<?xml version="1.0" encoding="utf-8"?>
<!-- Generator: Adobe Illustrator 21.1.0, SVG Export Plug-In . SVG Version: 6.00 Build 0)  -->
<!DOCTYPE svg PUBLIC "-//W3C//DTD SVG 1.1//EN" "http://www.w3.org/Graphics/SVG/1.1/DTD/svg11.dtd">
<svg version="1.1" id="Layer_1" xmlns="http://www.w3.org/2000/svg" xmlns:xlink="http://www.w3.org/1999/xlink" x="0px" y="0px"
	 viewBox="0 0 108 108" style="enable-background:new 0 0 108 108;" xml:space="preserve">
<g>
	<path style="fill:#231F20;" d="M93.5,86.3c-1-6.5-3.1-27-2.3-31.7s-0.5-25.4-0.5-25.4c-6.6-1.4-11-4.6-13.8-7.5c0,0,0,0,0,0
		c0-0.5,1.5-3.1,1.8-3.6c0.3-0.5,2.2-2.9,2.4-3.3c0.3-0.4,2.6-3.5,3.1-4.4c0.5-0.9,0.9-2,0.9-2.5c0-0.5-0.6-1.5-0.7-1.8
		c-0.1-0.3-1.1-1.1-1.9-1.3c-0.5-0.2-1.8,0.2-3.5,0.4c-1.7,0.2-2.6,1.2-3.1,1.8c-0.6,0.6-2.8,3.4-3.1,4.1c-0.4,0.7-1,2.5-1.3,3.6
		c-0.3,1.1-1.1,1.8-1.7,2.6C69.2,18,65.8,21,65.8,21l0,0.1c-4.8,3.9-11,8.5-11,8.5s-2.7-1.3-3.5-1.8c-0.3-0.2-1.4-0.9-2.8-1.9
		c-0.1-0.1-0.2-0.2-0.2-0.3c-0.3-0.2-6.9-5.9-8-7.2c-1.1-1.3-2.2-2.7-2.8-3.8c-0.5-1.1-0.7-2.8-1.3-5c-0.6-2.2-1.4-3-1.9-3.7
		c-0.6-0.7-2.4-2-3.1-2.3c-0.7-0.3-2.2,0.2-2.6,0.2c-0.3,0-0.8,0.6-1.3,1.1c-0.5,0.6-0.2,3.9,0.8,6.8c0.8,2.4,3.1,6.9,3.7,8.1
		C22.7,29.2,18.2,29,18.2,29s-0.2,6.3,0.1,13.6s0.8,26.5,0,39.5s-2.7,21.4-2.7,21.4s9.9-0.9,28.9-0.4c27.6,0.8,50.7-1.1,50.7-1.1
		S94.5,92.8,93.5,86.3z M33,18.6c-0.8-1.5-3.1-5.9-3.8-7.9c-0.8-2.4-1.2-5.1-0.6-6.2c0.6-1.1,1.6-0.6,3.1,0.5c1.5,1.1,2.5,4.3,3,6.3
		c0.3,1.1,0.7,2.8,1,4.2C34.8,16.6,33.9,17.6,33,18.6z M74.4,9.7c0.4-0.6,1.7-1.8,2.5-2.3c0.8-0.5,2.4-2,4.6-1.8
		C83,5.7,83.2,6,83.7,6.8c0.4,0.8,0.3,2-0.1,2.7c-0.4,0.7-2.6,3.3-3.5,4.3c-0.9,1-1.7,1.4-2.3,2.2c-0.6,0.8-1.2,2.9-1.5,3.7
		c-0.2,0.4-0.3,0.7-0.5,0.8c-1.6-1.9-2.5-3.6-3-4.6c0.2-1.7,0.5-3.6,0.5-3.8C73.3,11.7,74,10.3,74.4,9.7z"/>
	<g>
		<path style="fill:none;stroke:#FFFFFF;stroke-width:0.2601;" d="M28.9,4c0,0-2.6,2.9,4.3,14.5"/>
		<path style="fill:none;stroke:#FFFFFF;stroke-width:0.2601;" d="M27.6,4.4c0,0,2.4-2.1,5.6,0.3c3.1,2.4,4.1,8.8,4.3,9.7
			c0,0,3.8,7.8,17.4,15.2c0,0,15-10.7,16.4-14.8c0,0,2.6-11.2,11.4-10c1,0.1,3.4,2,1.4,5.6c-2,3.6-7.1,8.8-7.3,11.1"/>
		<path style="fill:none;stroke:#FFFFFF;stroke-width:0.2601;" d="M76.2,20.5c0,0,0.9-4.4,2.1-5.3c1.3-0.9,5.7-5.6,5.7-6.7
			s-0.6-3.3-3.1-3c-2.6,0.3-7,4.1-7.4,5.7c-0.4,1.6-1,4.1-1,4.1s4,11.1,18.1,13.8c0,0,1.4,21.5,0.6,26.8c-0.9,5.3,0.9,18.7,1.6,26.2
			c0.7,7.6,2.9,19,2.6,20c0,0-26.8,2.4-38.3,2.1c-11.5-0.3-38.8-1-41.3-0.7c0,0,0.9-8,2.1-17.7c1.3-9.7,1.1-17,0.9-29.9
			C18.4,43,18.2,29,18.2,29s8.4-1,17.5-13.5c0,0-1.6-12.1-6.8-11.5c-5.3,0.6,2.9,15.8,2.9,15.8"/>
		<path style="fill:none;stroke:#FFFFFF;stroke-width:0.2601;" d="M18.8,30.9c0,0,11.6-4.3,18-14.3c0,0,8.8,11.3,18.3,14.6
			c0,0,13.4-9.4,16.4-13.7c0,0,5.2,11,18,13.1"/>
	</g>
</g>
</svg>
