<?xml version="1.0" encoding="utf-8"?>
<!-- Generator: Adobe Illustrator 21.1.0, SVG Export Plug-In . SVG Version: 6.00 Build 0)  -->
<!DOCTYPE svg PUBLIC "-//W3C//DTD SVG 1.1//EN" "http://www.w3.org/Graphics/SVG/1.1/DTD/svg11.dtd">
<svg version="1.1" id="Layer_1" xmlns="http://www.w3.org/2000/svg" xmlns:xlink="http://www.w3.org/1999/xlink" x="0px" y="0px"
	 viewBox="0 0 108 108" style="enable-background:new 0 0 108 108;" xml:space="preserve">
<g>
	<path style="fill:#0047BA;stroke:#FFFFFF;stroke-width:0.2694;stroke-miterlimit:10;" d="M31.7,33.4c0-0.1,0-0.3,0-0.5
		c0-0.6-0.1-1.4-0.2-2.3c-0.2-2-0.5-4.6-0.9-7.2c-0.1-0.7-0.3-1.5-0.4-2.2c-0.3-1.2-0.6-2.3-0.9-3.4c-0.7-2.3-0.9-3.8-2-4.2
		c0,0,0,0,0,0c0,0,0,0,0,0c0,0,0,0,0,0c-0.1,0.1-0.4,0.3-1,0.8c-0.2,0.2-0.5,0.5-0.7,0.7c-0.1,0.2-0.3,0.4-0.5,0.6
		c-0.1,0.2-0.4,0.4-0.5,0.6c-0.2,0.3-0.5,0.6-0.7,1c-0.1,0.2-0.2,0.4-0.3,0.6c0,0.1-0.1,0.2-0.1,0.3c0,0.1-0.1,0.1-0.1,0.2
		c-0.1,0.2-0.2,0.4-0.3,0.6c0,0.1-0.1,0.2-0.1,0.3c0,0.1-0.1,0.1-0.1,0.2c0,0.1-0.1,0.1-0.1,0.2c0,0.1-0.1,0.2-0.1,0.2
		c0,0.1-0.1,0.2-0.1,0.3c-0.2,0.5-0.4,1.1-0.6,1.7c-0.7,1.9-1.4,4.2-2.2,7c-0.2,0.5-0.4,0.9-0.5,1.4c-0.7,1.8-1.3,3.5-2,5.3
		c-0.5,1.3-1.1,2.9-1.5,4.3c0,0.1-0.1,0.3-0.1,0.4c-0.1,0.2,0,0-0.1,0.2c-0.1,0.4-0.3,0.8-0.4,1.1C14.7,42.7,3.1,89,3.1,89.1
		c0,0.1,0.1,0.2,0.3,0.3l9.3,3.8c0.7,0.2,1.3,0.2,1.6,0.2c0.2,0,0.4-0.2,0.5-0.5c0-0.1,15.4-44.3,15.5-44.4c0.1-0.2,0.2-0.5,0.3-0.9
		c0,0,0-0.1,0-0.1c0,0,0,0,0,0c0-0.1,0.1-0.3,0.1-0.5c0.1-0.6,0.2-1.2,0.3-2c0.1-0.7,0.1-1.5,0.2-2.3c0.1-1.1,0.1-2.1,0.1-3.2
		c0-0.8,0-1.7,0.1-2.4c0-0.7,0-1.3,0.1-1.7c0-0.2,0-0.4,0.1-0.6c0-0.2,0.1-0.3,0.1-0.4C31.7,34.5,31.7,34.1,31.7,33.4z"/>
	<path style="fill:#0047BA;stroke:#FFFFFF;stroke-width:0.2694;stroke-miterlimit:10;" d="M75.2,32.4c0-0.1,0-0.3,0-0.5
		c0-0.6,0.1-1.4,0.2-2.3c0.2-2,0.5-4.6,0.9-7.2c0.1-0.7,0.3-1.5,0.4-2.2c0.3-1.2,0.6-2.3,0.9-3.4c0.7-2.3,0.9-3.8,2-4.2c0,0,0,0,0,0
		c0,0,0,0,0,0c0,0,0,0,0,0c0.1,0.1,0.4,0.3,1,0.8c0.2,0.2,0.5,0.5,0.7,0.7c0.1,0.2,0.3,0.4,0.5,0.6c0.1,0.2,0.4,0.4,0.5,0.6
		c0.2,0.3,0.5,0.6,0.7,1c0.1,0.2,0.2,0.4,0.3,0.6c0,0.1,0.1,0.2,0.1,0.3c0,0.1,0.1,0.1,0.1,0.2c0.1,0.2,0.2,0.4,0.3,0.6
		c0,0.1,0.1,0.2,0.1,0.3c0,0.1,0.1,0.1,0.1,0.2c0,0.1,0.1,0.1,0.1,0.2c0,0.1,0.1,0.2,0.1,0.2c0,0.1,0.1,0.2,0.1,0.3
		c0.2,0.5,0.4,1.1,0.6,1.7c0.7,1.9,1.4,4.2,2.2,7c0.2,0.5,0.4,0.9,0.5,1.4c0.7,1.8,1.3,3.5,2,5.3c0.5,1.3,1.1,2.9,1.5,4.3
		c0,0.1,0.1,0.3,0.1,0.4c0.1,0.2,0,0,0.1,0.2c0.1,0.4,0.3,0.8,0.4,1.1c0.2,0.8,11.8,47,11.8,47.2c0,0.1-0.1,0.2-0.3,0.3l-9.3,3.8
		c-0.7,0.2-1.3,0.2-1.6,0.2c-0.2,0-0.4-0.2-0.5-0.5c0-0.1-15.4-44.3-15.5-44.4c-0.1-0.2-0.2-0.5-0.3-0.9c0,0,0-0.1,0-0.1
		c0,0,0,0,0,0c0-0.1-0.1-0.3-0.1-0.5c-0.1-0.6-0.2-1.2-0.3-2c-0.1-0.7-0.1-1.5-0.2-2.3c-0.1-1.1-0.1-2.1-0.1-3.2
		c0-0.8,0-1.7-0.1-2.4c0-0.7,0-1.3-0.1-1.7c0-0.2,0-0.4-0.1-0.6c0-0.2-0.1-0.3-0.1-0.4C75.1,33.4,75.1,33,75.2,32.4z"/>
	<path style="fill:#0047BA;stroke:#FFFFFF;stroke-width:0.2694;stroke-miterlimit:10;" d="M78.6,26.1c0.1-0.4,0.2-0.8,0.2-1.1
		c0.3-1.8,0.6-3.3,0.8-5.1c0.1-1.6,0.1-3.2,0.1-5c0-0.6,0-1.3,0-2c-0.7-0.4-1.8-0.8-2.7-1.1c-0.1,0-0.2-0.1-0.3-0.1
		c-0.8-0.3-0.9-0.3-1.5-0.5c-0.1,0-0.3-0.1-0.5-0.2c-0.4-0.1-1.1-0.4-1.6-0.5c-0.7-0.2-1.3-0.3-2-0.5c-0.7-0.2-1.4-0.4-2.1-0.6
		c-0.9-0.3-1.8-0.5-2.7-0.8c-0.7-0.2-1.5-0.4-2.2-0.5C60.7,7.3,57.3,7,54.2,7H54c-2.3,0-4.7,0.1-7,0.3c-1.2,0.1-2.5,0.4-3.7,0.7
		c-1.2,0.3-2.4,0.7-3.6,1.2c-2.1,0.8-4.2,1.5-6.3,2.2c-1.4,0.5-2.2,0.8-3.5,1.3c-0.7,0.3-1,0.3-1.6,0.6c-0.5,0.2-0.6,0.3-1.1,0.5
		c0,0.4-0.2,0.8-0.2,1.4c0.1,1.5-0.2,3.5,0,4.8c0.3,1.5,0.5,2.9,0.9,4.4c0.1,0.3,0.2,0.6,0.2,0.9c0.6,2.2,1.4,5.1,2.6,8
		c0.4,1.1,0.6,2.9,0.7,5.2c0,0.6,0,1.3,0,1.9c0,0.4,0,0.8,0,1.2c0,1,0,2.1,0,3c0,0.4,0,1.8,0,2.2c0,0.6,0,1.2,0,1.7
		c0,0.6,0,1.3,0,1.9c0,0.7,0,1.3,0,2c0,0.5,0,1,0,1.5c0,0.4,0,0.7,0,1.1c0,2,0,4,0,6.1c0,2.4-0.1,4.9-0.1,7.3
		c-0.1,9.2-0.4,18.5-0.4,27.9c0,0.1,0,0.1,0,0.2c0,0.1,0,0.1,0,0.2c0,0.4,0,0.8,0,1.3c0,0.4,0,0.7,0,1.1v0.2v0.3
		c0.4,0.1,0.9,0.2,1.3,0.2c0.6,0.1,1.2,0.2,1.8,0.3c0.8,0.1,1.7,0.5,2.5,0.6c0.3,0,0.6,0.1,0.9,0.1c1.8,0.2,3.5,0.6,5.3,0.6
		c1.1,0,2.2,0.1,3.4,0.1c1.1,0.1,2.2,0.2,3.3,0.2c2.1,0.1,4.2,0.3,6.3,0.2c3-0.1,6.1-0.3,9.1-0.4c0.7,0,1.5,0,2.2-0.1
		c0.9,0,1.8-0.1,2.7-0.2c0.7,0,1.3-0.1,2-0.2c0.4,0,0.9-0.2,1.3-0.2c0.1,0,0.4,0,0.6,0c0.6-0.1,1.4-0.2,1.7-0.2
		c0.2,0,0.3-0.1,0.4-0.1c0.5-0.1,0.6-0.2,1.3-0.3c0,0,0.1,0,0.1,0c0.7-0.1,1.2-0.6,1.9-0.7v-0.3v-0.2c0-0.3,0-0.7,0-1
		c0-0.4,0-0.8,0-1.2c0-0.1,0-0.2,0-0.3c0-0.1,0-0.2,0-0.3c-0.1-9.4-0.8-18.7-1.3-28c-0.1-2.7-0.2-2.9-0.3-3.6c0-0.6-0.1-1.4-0.1-3.7
		c0-0.4,0-1.1-0.1-1.9c0-1-0.1-2.2-0.1-2.7c0-0.7-0.1-2.3-0.2-2.9c0-0.6-0.1-3-0.2-3.6c0-0.6-0.1-1.4-0.1-2.1c0-0.4-0.2-2.6-0.2-3
		c0-0.9-0.1-3-0.1-3.9c0-1.4-0.1-2.9-0.1-4.4c0-1.2,0-2.3,0.3-3.3C77.6,30,78.1,28.4,78.6,26.1z"/>
	<path style="fill:#0047BA;stroke:#FFFFFF;stroke-width:0.2694;stroke-miterlimit:10;" d="M63,8.3c0,0,0-0.1,0-0.2
		c0-0.1,0-0.1,0-0.2c-0.2-0.4-0.1-0.5-0.3-0.7c0,0,0,0,0,0c0,0,0,0,0,0c-0.3-0.4-0.8-0.5-1.5-0.6c-0.2,0-0.5,0-0.8,0
		c-0.5,0-1,0-1.6,0.1c-1.5,0.1-3.3,0.4-5,0.4c-1.6,0-3.1-0.1-4.6-0.1c-0.9,0-1.8-0.1-2.5,0c-0.8,0-1.5,0.1-1.9,0.3c0,0,0,0,0,0
		c0,0,0,0,0,0c-0.3,0.2-0.3,0.1-0.5,0.8c0,0,0,0.1,0,0.2c0,0.1,0,0.2,0,0.2c0,0.2,0,0.4,0.1,0.7c0.1,0.2,0.1,0.5,0.2,0.7
		c0.2,0.4,0.4,0.8,0.8,1.1c0.5,0.5,1.1,0.9,1.8,1.3c0.7,0.4,1.5,0.6,2.3,0.9c1.3,0.4,2.8,0.6,4.3,0.6c1.7,0,3.3-0.2,4.7-0.7
		c0.8-0.2,1.6-0.6,2.2-0.9c0.6-0.4,1.2-0.7,1.6-1.2c0.3-0.3,0.6-0.7,0.7-1.2C63,9.4,63,9.2,63,9C63.1,8.7,63.1,8.5,63,8.3z"/>
	<g>
		<path style="fill:#0047BA;stroke:#FFFFFF;stroke-width:0.2694;stroke-linejoin:round;stroke-miterlimit:10;" d="M66.2,8.6
			c-0.1,0-0.3-0.1-0.4-0.2c-0.1,0-0.3-0.1-0.4-0.1c-0.3-0.1-0.5-0.2-0.8-0.3c-0.2-0.1-0.7-0.2-1.1-0.4c-0.2-0.1-0.4-0.2-0.5-0.3
			C62.8,7.3,62.5,7,62.4,7c0.7,0.7,0.7,1.5,0.5,2.2c-0.2,1.1-1.1,2.1-2,2.5c-1.4,0.7-2.8,1.1-4.1,1.4c-1,0.2-1.9,0.3-2.9,0.4
			c-2.4,0.1-6.1-1.1-7-1.6c-0.8-0.5-1.7-1.1-2.2-1.9c-0.2-0.3-0.3-0.7-0.4-1.2c-0.1-0.5,0.1-1.2,0.4-1.6c-0.1,0-0.2,0.1-0.3,0.1
			c-0.1,0.1-0.2,0.1-0.4,0.3c-0.6,0.3-1.3,0.4-1.8,0.6c-0.2,0.1-0.4,0.1-0.6,0.2c-0.1,0-0.3,0.1-0.4,0.2c-0.1,0.1-0.6,0.2-0.6,0.3
			c0,0.9,0.4,1.4,0.8,2c0.4,0.7,0.9,1.3,1.5,1.7c1.3,1.1,3,2,4,2.4c2.1,0.9,4.6,1.3,7,1.3c1.3,0,2.3-0.1,3.3-0.4
			c1.2-0.3,2.3-0.8,3.8-1.4c0.9-0.4,2.9-1.7,4.1-3.1C65.9,10.5,66.5,9.7,66.2,8.6z"/>
		<path style="fill:#0047BA;stroke:#FFFFFF;stroke-width:0.2694;stroke-linejoin:round;stroke-miterlimit:10;" d="M44.8,7
			C44.8,7.1,44.7,7.1,44.8,7C44.8,7.1,44.8,7.1,44.8,7z"/>
	</g>
</g>
</svg>
