<?xml version="1.0" encoding="utf-8"?>
<!-- Generator: Adobe Illustrator 21.1.0, SVG Export Plug-In . SVG Version: 6.00 Build 0)  -->
<!DOCTYPE svg PUBLIC "-//W3C//DTD SVG 1.1//EN" "http://www.w3.org/Graphics/SVG/1.1/DTD/svg11.dtd">
<svg version="1.1" id="Layer_1" xmlns="http://www.w3.org/2000/svg" xmlns:xlink="http://www.w3.org/1999/xlink" x="0px" y="0px"
	 viewBox="0 0 108 108" style="enable-background:new 0 0 108 108;" xml:space="preserve">
<g>
	<path style="fill:#EB008B;stroke:#FFFFFF;stroke-width:0.2586;stroke-linecap:round;" d="M43.5,3.8C43.5,3.8,43.5,3.8,43.5,3.8
		C43.5,3.8,43.5,3.8,43.5,3.8C43.5,3.8,43.5,3.8,43.5,3.8z"/>
	<path style="fill:#EB008B;stroke:#FFFFFF;stroke-width:0.2586;stroke-linecap:round;" d="M44.6,7.2c2.7,7.5,8.3,18.9,10.9,18.9
		c3.1,0,8.2-11.5,10.7-18.9C59,6.5,51.8,6.5,44.6,7.2z"/>
	<path style="fill:#EB008B;stroke:#FFFFFF;stroke-width:0.2586;stroke-linecap:round;" d="M82.6,7.8L83.2,8L82.6,7.8l-13.1-2
		c0,0,0.1,0.1,0.1,0.1c-3.3,7.8-9.5,24.5-13.9,24.5c-4.2,0-13-18-14.4-24.5c0-0.1,0.1-0.1,0.2-0.2l-0.1,0C36,6.7,29.7,7.8,25,8.8
		c-0.3,0.1-0.7,0.2-1,0.3L24.5,9c1.9,7.9,1.3,15.9-3.2,23c-0.1,0-0.3,0-0.4,0c0.2,0.3,0.3,0.5,0.5,0.8c0,11.1,5,23.2,5,34.3
		c0,11.1-5,22.2-5,33.3c25.2,5.3,46.3,3.8,64.7,0c0-12.9-5.2-20.4-5.2-32.6c0-9.5,5.2-26.5,5.2-36.6c0,0,0,0,0,0l-0.3,0
		C81.3,24,80.7,15.8,82.6,7.8z"/>
	<path style="fill:#EB008B;stroke:#FFFFFF;stroke-width:0.2586;stroke-linecap:round;" d="M67.3,3.8c-7.5-0.9-15.2-1-23.8,0
		c0.2,0.6,0.4,1.2,0.6,1.9c0.2,0.5,0.3,1,0.5,1.5c7.2-0.7,14.4-0.7,21.6,0c0.2-0.5,0.3-1,0.5-1.4C66.9,5,67.1,4.4,67.3,3.8
		C67.3,3.8,67.3,3.8,67.3,3.8C67.3,3.8,67.3,3.8,67.3,3.8z"/>
	<path style="fill:#EB008B;stroke:#FFFFFF;stroke-width:0.2586;stroke-linecap:round;" d="M24.5,9L24,9.1L4.5,13.7L8,32
		c4.3,0.3,8.6-0.2,12.9,0c0.1,0,0.3,0,0.4,0C25.9,24.9,26.5,16.9,24.5,9z"/>
	<path style="fill:#EB008B;stroke:#FFFFFF;stroke-width:0.2586;stroke-linecap:round;" d="M83.2,8l-0.6-0.2
		c-1.9,8-1.3,16.2,3.2,23.4l0.3,0l14.1,1.3l3.4-18L83.2,8z"/>
	<polygon style="fill:#EB008B;stroke:#FFFFFF;stroke-width:0.2586;stroke-linecap:round;" points="43.5,3.7 43.5,3.8 43.5,3.8 	"/>
	<path style="fill:#EB008B;stroke:#FFFFFF;stroke-width:0.2586;stroke-linecap:round;" d="M69.5,5.8c-0.5-0.5-1.8-1.5-2.2-2
		c0,0,0,0,0,0c-0.2,0.6-0.4,1.2-0.6,2c-0.1,0.4-0.3,0.9-0.5,1.4c-2.6,7.4-7.6,18.9-10.7,18.9c-2.5,0-8.1-11.4-10.9-18.9
		c-0.2-0.5-0.4-1.1-0.5-1.5c-0.2-0.7-0.4-1.3-0.6-1.9c0,0,0,0,0,0c0,0,0,0,0,0c-0.3,0.4-1.4,1.3-1.9,1.8c-0.1,0.1-0.2,0.2-0.2,0.2
		c1.4,6.5,10.1,24.5,14.4,24.5C60.1,30.4,66.2,13.7,69.5,5.8C69.5,5.9,69.5,5.8,69.5,5.8z"/>
</g>
</svg>
