<?xml version="1.0" encoding="utf-8"?>
<!-- Generator: Adobe Illustrator 21.1.0, SVG Export Plug-In . SVG Version: 6.00 Build 0)  -->
<!DOCTYPE svg PUBLIC "-//W3C//DTD SVG 1.1//EN" "http://www.w3.org/Graphics/SVG/1.1/DTD/svg11.dtd">
<svg version="1.1" id="Layer_1" xmlns="http://www.w3.org/2000/svg" xmlns:xlink="http://www.w3.org/1999/xlink" x="0px" y="0px"
	 viewBox="0 0 108 108" style="enable-background:new 0 0 108 108;" xml:space="preserve">
<g>
	<path style="fill:#FFFFFF;stroke:#000000;stroke-width:0.2985;stroke-miterlimit:10;" d="M22.1,11.3C22.1,11.3,22.1,11.3,22.1,11.3
		C22.1,11.3,22.1,11.3,22.1,11.3c-0.2,0.1-0.6,0.3-1.2,0.9c-0.3,0.2-0.6,0.5-0.8,0.8c-0.2,0.2-0.4,0.4-0.6,0.6
		c-0.2,0.2-0.5,0.5-0.6,0.7c-0.3,0.3-0.5,0.7-0.8,1.1c-0.1,0.2-0.2,0.4-0.3,0.6c0,0.1-0.1,0.2-0.1,0.3c0,0.1-0.1,0.1-0.1,0.2
		c-0.1,0.2-0.2,0.4-0.3,0.6c0,0.1-0.1,0.2-0.1,0.3c0,0.1-0.1,0.2-0.1,0.2c0,0.1-0.1,0.2-0.1,0.2c0,0.1-0.1,0.2-0.1,0.2
		c0,0.1-0.1,0.2-0.1,0.3c-0.2,0.6-0.5,1.2-0.8,1.8c-0.8,2-1.7,4.4-2.6,7.4c-0.2,0.5-0.4,1-0.6,1.5c-0.8,1.9-1.6,3.7-2.3,5.6
		c-0.5,1.3-1.2,3.1-1.8,4.5c-0.1,0.2-0.1,0.3-0.2,0.4c-0.1,0.3,0,0-0.1,0.3C8.1,40.2,8,40.6,7.8,41c-0.3,0.8-0.4,1.4-0.4,1.5
		c0,0.1,0.2,0.2,0.4,0.3c0.3,0.2,0.8,0.4,1.5,0.7c0.4,0.2,0.8,0.4,1.3,0.6c0.3,0.1,0.7,0.3,1,0.4c0.4,0.2,0.9,0.4,1.3,0.5
		c1.5,0.6,3.1,1.2,4.6,1.7c1,0.3,2,0.7,2.9,0.9c1,0.3,1.9,0.6,2.7,0.7c0.9,0.2,1.5,0.3,1.9,0.2c0.2,0,0.4-0.2,0.6-0.5
		c0-0.1,0.1-0.2,0.1-0.2c0.1-0.3,0.2-0.6,0.3-0.9c0,0,0-0.1,0-0.1c0,0,0,0,0,0c0-0.2,0.1-0.3,0.1-0.5c0.1-0.6,0.2-1.3,0.3-2.1
		c0.1-0.8,0.1-1.6,0.2-2.4c0.1-1.1,0.1-2.3,0.1-3.3c0-0.9,0.1-1.7,0.1-2.5c0-0.7,0.1-1.3,0.1-1.8c0-0.2,0-0.4,0.1-0.6
		c0-0.2,0.1-0.3,0.1-0.4c0,0,0-0.5,0-1.1c0-0.2,0-0.3,0-0.5c0-0.6-0.1-1.5-0.2-2.4c-0.2-2.1-0.6-4.9-1.1-7.6
		c-0.2-0.8-0.3-1.6-0.5-2.3c-0.3-1.3-0.6-2.5-1-3.6C23.6,13.2,23.4,11.6,22.1,11.3C22.1,11.2,22.1,11.2,22.1,11.3"/>
	<path style="fill:#FFFFFF;stroke:#000000;stroke-width:0.2985;stroke-miterlimit:10;" d="M83,10.2c-1.4,0.5-2.3,2.5-2.9,5
		c-0.3,1.1-0.6,2.4-0.8,3.7c-0.1,0.8-0.2,1.6-0.3,2.4c-0.3,2.8-0.4,5.6-0.5,7.7c0,0.1,0,0.3,0,0.4c0,0.8,0,1.5,0,2
		c0,0.4,0,0.8,0,1.1c0,0.3,0,0.5,0.1,0.5c0.1,0.1,0.1,0.2,0.2,0.4c0,0.2,0.1,0.4,0.1,0.6c0.1,0.5,0.2,1.1,0.3,1.8
		c0.1,0.8,0.2,1.6,0.3,2.5c0.1,1.1,0.3,2.2,0.5,3.3c0.1,0.8,0.3,1.6,0.4,2.4c0.2,0.8,0.3,1.5,0.5,2.1c0.1,0.2,0.1,0.3,0.2,0.5
		c0,0,0,0,0,0c0,0,0,0.1,0,0.1c0.1,0.4,0.3,0.7,0.4,0.9c0.1,0.1,0.1,0.2,0.2,0.2c0.2,0.3,0.5,0.4,0.7,0.4c0.1,0,0.2,0,0.4,0
		c0.4,0,1-0.2,1.6-0.4c0.4-0.1,0.8-0.3,1.3-0.4c1.3-0.5,2.8-1.1,4.4-1.8c1.6-0.7,3.2-1.5,4.7-2.2c0.5-0.2,0.9-0.5,1.4-0.7
		c0.4-0.2,0.7-0.4,1-0.5c0.5-0.3,0.9-0.5,1.3-0.7c0.7-0.4,1.2-0.7,1.5-0.9c0.2-0.2,0.3-0.3,0.4-0.3c0-0.1-0.2-0.7-0.5-1.5
		c-0.2-0.3-0.3-0.7-0.6-1.2c-0.1-0.3,0,0-0.1-0.3c-0.1-0.1-0.1-0.3-0.2-0.4c-0.7-1.4-1.6-3.1-2.3-4.4c-1-1.8-2-3.6-3-5.4
		c-0.3-0.5-0.5-1-0.8-1.4c-1.3-2.9-2.4-5.2-3.4-7.2c-0.3-0.6-0.7-1.2-1-1.7c-0.1-0.1-0.1-0.2-0.2-0.3c0-0.1-0.1-0.2-0.1-0.2
		c0-0.1-0.1-0.1-0.1-0.2c0,0-0.1-0.1-0.1-0.1c0,0,0-0.1-0.1-0.1c0-0.1-0.1-0.2-0.1-0.2c0,0,0,0,0,0c-0.1-0.2-0.3-0.4-0.4-0.6
		c0-0.1-0.1-0.1-0.1-0.2c-0.1-0.1-0.1-0.2-0.2-0.3c-0.1-0.2-0.3-0.4-0.4-0.6c-0.3-0.4-0.6-0.8-0.8-1.1c-0.2-0.2-0.3-0.4-0.5-0.6
		c-0.2-0.3-0.4-0.5-0.6-0.7c-0.3-0.3-0.5-0.6-0.8-0.8C83.6,10.5,83.3,10.3,83,10.2C83.1,10.3,83.1,10.3,83,10.2
		C83.1,10.3,83.1,10.3,83,10.2C83,10.2,83,10.2,83,10.2L83,10.2z"/>
	<path style="fill:#FFFFFF;stroke:#000000;stroke-width:0.2985;stroke-miterlimit:10;" d="M81.7,24.2c0.1-0.4,0.2-0.8,0.3-1.2
		c0.4-1.9,0.8-3.5,0.9-5.4c0.1-1.7,0.1-3.4,0.1-5.3c0-0.7,0-1.4,0-2.1c-0.9-0.4-2.1-0.9-3.1-1.2c-0.1,0-0.2-0.1-0.3-0.1
		c-1-0.3-1.1-0.3-1.7-0.5c-0.2,0-0.4-0.1-0.6-0.2c-0.5-0.1-1.3-0.4-1.8-0.6c-0.8-0.2-1.6-0.3-2.3-0.5c-0.8-0.2-1.6-0.4-2.4-0.6
		c-1-0.3-2.1-0.5-3.1-0.8c-0.8-0.2-1.7-0.4-2.6-0.6C61,4.4,57,4,53.5,4h-0.2c-2.7,0-5.4,0.1-8.1,0.3c-1.4,0.2-2.9,0.4-4.3,0.7
		c-1.4,0.3-2.8,0.8-4.2,1.2c-2.4,0.8-4.9,1.6-7.3,2.4c-1.6,0.5-2.5,0.8-4.1,1.4c-0.8,0.3-1.1,0.3-1.9,0.7c-0.5,0.2-0.7,0.3-1.3,0.5
		c0,0.4-0.2,0.9-0.2,1.4c0.1,1.6-0.3,3.7,0,5c0.3,1.6,0.6,3.1,1,4.6c0.1,0.3,0.2,0.7,0.3,1c0.7,2.3,1.6,5.4,3,8.5
		c0.5,1.1,0.8,3.1,0.8,5.5c0,0.7,0,1.3,0.1,2c0,0.4,0,0.8,0,1.2c0,1.1,0,2.2,0,3.2c0,0.5,0,1.9,0,2.4c0,0.7,0,1.3,0,1.8
		c0,0.7,0,1.3,0,2c0,0.7,0,1.4,0,2.1c0,0.5,0,1.1,0,1.6c0,0.4,0,0.8,0,1.2c0,2.1,0,4.3,0,6.4c0,2.6-0.1,5.1-0.1,7.7
		c-0.2,9.7-0.4,19.5-0.5,29.5c0,0.1,0,0.1,0,0.2c0,0.2,0,0.1,0,0.2c0,0.4,0,0.9,0,1.3c0,0.4,0,0.8,0,1.1v0.3v0.3
		c0.5,0.1,1,0.2,1.5,0.2c0.7,0.1,1.4,0.2,2.1,0.3c1,0.1,2,0.6,2.9,0.7c0.3,0,0.7,0.1,1,0.1c2.1,0.2,4.1,0.6,6.2,0.7
		c1.3,0,2.6,0.1,3.9,0.1c1.3,0.1,2.6,0.2,3.9,0.2c2.4,0.2,4.8,0.3,7.3,0.2c3.5-0.1,7.1-0.3,10.6-0.4c0.9,0,1.7,0,2.6-0.1
		c1,0,2.1-0.1,3.1-0.2c0.8,0,1.5-0.2,2.3-0.2c0.5,0,1.1-0.2,1.5-0.2c0.1,0,0.4,0,0.8,0c0.7-0.1,1.6-0.2,1.9-0.3
		c0.2,0,0.4-0.1,0.5-0.1c0.5-0.1,0.7-0.2,1.5-0.3c0,0,0.1,0,0.1,0c0.9-0.1,1.4-0.6,2.2-0.7v-0.3v-0.3c0-0.4,0-0.7,0-1.1
		c0-0.4,0-0.8,0-1.3c0-0.1,0-0.2,0-0.4c0-0.1,0-0.2,0-0.3c-0.2-10-0.9-19.8-1.5-29.6c-0.1-2.8-0.3-3-0.3-3.8c-0.1-0.6-0.1-1.5-0.1-4
		c0-0.4,0-1.2-0.1-2c0-1.1-0.1-2.3-0.1-2.8c0-0.7-0.2-2.4-0.2-3c0-0.7-0.2-3.1-0.2-3.8c0-0.6-0.1-1.5-0.1-2.3c0-0.4-0.3-2.7-0.3-3.1
		c0-0.9-0.1-3.2-0.1-4.1c0-1.5-0.1-3.1-0.1-4.7c0-1.2,0-2.5,0.3-3.5C80.6,28.4,81.2,26.7,81.7,24.2z"/>
	<path style="fill:#FFFFFF;stroke:#000000;stroke-width:0.2985;stroke-miterlimit:10;" d="M63.7,5.4c0,0,0-0.1,0-0.2
		c0-0.1,0-0.2,0-0.2c-0.3-0.4-0.2-0.6-0.4-0.7c0,0,0,0,0,0c0,0,0,0,0,0c-0.3-0.4-0.9-0.6-1.7-0.7c-0.3,0-0.6,0-0.9,0
		c-0.6,0-1.2,0-1.9,0.1C57,3.8,54.9,4,53,4c-1.8,0-3.6-0.1-5.3-0.1c-1.1,0-2.1-0.1-2.9,0c-0.9,0-1.7,0.1-2.3,0.3c0,0,0,0,0,0
		c0,0,0,0,0,0c-0.3,0.2-0.4,0.1-0.6,0.9c0,0,0,0.1,0,0.2c0,0.1,0,0.2,0,0.2c0,0.2,0,0.5,0.1,0.7C42,6.5,42.1,6.7,42.2,7
		c0.2,0.4,0.5,0.8,0.9,1.2c0.6,0.5,1.3,1,2.1,1.4c0.8,0.4,1.7,0.7,2.7,0.9c1.5,0.4,3.2,0.6,5,0.6c2,0,3.8-0.3,5.4-0.7
		c0.9-0.3,1.8-0.6,2.5-1c0.7-0.4,1.4-0.8,1.9-1.3c0.4-0.3,0.6-0.8,0.8-1.2c0.1-0.3,0.2-0.5,0.2-0.8C63.7,5.9,63.7,5.6,63.7,5.4z"/>
	<g>
		<path style="fill:#FFFFFF;stroke:#000000;stroke-width:0.2985;stroke-linejoin:round;stroke-miterlimit:10;" d="M67.4,5.8
			c-0.1,0-0.3-0.1-0.5-0.2c-0.1,0-0.3-0.1-0.5-0.2c-0.3-0.1-0.6-0.2-0.9-0.3c-0.3-0.1-0.8-0.3-1.3-0.5c-0.2-0.1-0.4-0.2-0.6-0.3
			C63.4,4.3,63.1,4.1,63,4c0.8,0.8,0.8,1.6,0.6,2.3c-0.3,1.1-1.3,2.2-2.3,2.6c-1.7,0.7-3.2,1.2-4.7,1.5c-1.1,0.2-2.3,0.4-3.4,0.4
			c-2.8,0.1-7.1-1.1-8.2-1.7c-1-0.5-1.9-1.2-2.6-2c-0.3-0.4-0.3-0.8-0.5-1.3c-0.1-0.5,0.1-1.3,0.5-1.7c-0.1,0-0.2,0.1-0.3,0.1
			c-0.1,0.1-0.2,0.1-0.5,0.3C41,4.9,40.1,5,39.6,5.2c-0.2,0.1-0.4,0.1-0.7,0.2c-0.1,0-0.4,0.1-0.5,0.2c-0.2,0.1-0.7,0.2-0.8,0.3
			c0,0.9,0.5,1.5,0.9,2.2c0.4,0.7,1,1.3,1.7,1.8c1.6,1.1,3.5,2.1,4.7,2.6c2.5,1,5.3,1.4,8.2,1.4c1.5,0,2.7-0.1,3.8-0.4
			c1.4-0.3,2.7-0.8,4.4-1.5c1-0.4,3.4-1.8,4.8-3.3C67,7.8,67.7,6.9,67.4,5.8z"/>
		<path style="fill:#FFFFFF;stroke:#000000;stroke-width:0.2985;stroke-linejoin:round;stroke-miterlimit:10;" d="M42.5,4.1
			C42.5,4.1,42.5,4.1,42.5,4.1C42.5,4.1,42.5,4.1,42.5,4.1z"/>
	</g>
</g>
</svg>
