<?xml version="1.0" encoding="utf-8"?>
<!-- Generator: Adobe Illustrator 21.1.0, SVG Export Plug-In . SVG Version: 6.00 Build 0)  -->
<!DOCTYPE svg PUBLIC "-//W3C//DTD SVG 1.1//EN" "http://www.w3.org/Graphics/SVG/1.1/DTD/svg11.dtd">
<svg version="1.1" id="Layer_1" xmlns="http://www.w3.org/2000/svg" xmlns:xlink="http://www.w3.org/1999/xlink" x="0px" y="0px"
	 viewBox="0 0 216 186.2" style="enable-background:new 0 0 216 186.2;" xml:space="preserve">
<style type="text/css">
	.st0{fill:#777777;}
</style>
<g>
	<path class="st0" d="M34.5,155.9c-0.3,0.6-0.4,1.3-0.5,1.8c0,0.3,0,0.6,0.1,0.8c0.3,2,1.8,2.2,2.3,2.2c0.1,0,0.3,0,0.4,0
		c1-0.2,1.8-0.6,2.4-1.1c-0.5-0.4-1.1-0.8-1.6-1.2l-1.1,0.7l0-1.6C35.8,157,35.1,156.4,34.5,155.9z"/>
	<path class="st0" d="M108.4,181.7c-8.9,0-17.6-1-25.9-2.7l-9.3,1.3c10.9,3.2,22.7,4.9,34.9,4.9c25,0,48-7.2,66.3-19.4l-8.1,1.2
		C149.7,176.3,129.8,181.7,108.4,181.7z"/>
	<path class="st0" d="M136.4,68.2v23.5c0,0.5,0.6,0.9,1.2,0.9c1.9,0,5.6-3.8,5.6-12.7s-3.7-12.7-5.6-12.7
		C137,67.2,136.4,67.7,136.4,68.2z"/>
	<path class="st0" d="M205.5,133.1c6.8-12,10.6-25.5,10.6-39.7c0-50.7-48.4-91.8-108-91.8S0.1,42.6,0.1,93.3
		c0,20.6,8,39.6,21.4,54.9c0.6-1.1,1.3-2.2,2.1-3.2c-1.1-1.2-2.1-2.5-3.1-3.8c-2.6-3.4-0.1-8.2,4.1-8.2h80.5l1-0.1l10-1.4l4.1-0.6
		c0.3-0.1,0.7-0.1,1-0.2c0.6-0.1,1.2-0.1,1.8-0.1c2.3,0,4.4,0.7,6,1.9c0.2,0.2,0.4,0.4,0.6,0.5h4.4c2.7-2.7,5.6-4.2,7.2-4.9l0-0.3
		l1.4-0.2l0.6-0.2l-1.9-3c2.5-1.9,1.9-4.2,1.2-7.1l-3.7-18.3l-2.5,1.4v14.6c0,5.6,0.6,7.5,3.1,9.4l-2.5,3.8h-16.1l-2.5-3.8
		c2.5-1.9,3.1-3.8,3.1-9.4V73.8c0-5.6-0.6-7.5-3.1-9.4l2.5-3.8H150l9.9,7.5c-1.2,0.9-2.5,5.6-2.5,11.3c0,5.6,0.6,10.3,1.9,11.3
		l-6.8,3.3l5,21.2c1.5,6.6,2.5,8,5,9.4l-0.2,0.3l2.6-0.4l4.5-0.6l1-0.1c1.9-1.7,3.3-3.7,3.3-8.6v-48l-1.2-0.9
		c-2.5,2.8-3.1,7.5-3.1,15v2.8h-7.4V60.6h38.4v23.5h-7.4v-2.8c0-7.5-0.6-12.2-3.1-15l-1.2,0.9v48c0,2.7,0.4,4.5,1.1,5.9l0.1,0
		l4.4-0.6l7.1-1l4.4-0.6l0,4.4L205.5,133.1z M42.3,128.3H18.2v-27.3h8c1.2,16,3.1,20.7,5.6,20.7c1.9,0,3.1-1.9,3.1-5.6v-12.2
		c0-2.4-1.2-4.7-3.7-6.6l-12.4-9.4V77.6c0-5.6-1.2-8.5-2.5-9.4l9.9-7.5h22.9v20.7h-7.4c-1.9-10.8-3.1-14.1-5.6-14.1
		c-1.9,0-2.5,1.9-2.5,5.6v5.6c0,2.4,1.2,4.7,3.7,6.6l12.4,9.4v16.9c0,5.6,1.2,8.5,2.5,9.4L42.3,128.3z M94.9,124.6l-2.5,3.8H77
		l-2.5-3.8c2.5-1.9,2.5-3.8,2.5-9.4V94.5h-6.2v20.7c0,5.6,0,7.5,2.5,9.4l-2.5,3.8H55.3l-2.5-3.8c2.5-1.9,3.1-3.8,3.1-9.4V73.8
		c0-5.6-0.6-7.5-3.1-9.4l2.5-3.8h15.5l2.5,3.8c-2.5,1.9-2.5,3.8-2.5,9.4v14.1H77V73.8c0-5.6,0-7.5-2.5-9.4l2.5-3.8h15.5l2.5,3.8
		c-2.5,1.9-3.1,3.8-3.1,9.4v41.4C91.8,120.8,92.5,122.7,94.9,124.6z M117.2,124.6l-2.5,3.8H98.7l-2.5-3.8c2.5-1.9,3.1-3.8,3.1-9.4
		V73.8c0-5.6-0.6-7.5-3.1-9.4l2.5-3.8h16.1l2.5,3.8c-2.5,1.9-3.1,3.8-3.1,9.4v41.4C114.1,120.8,114.7,122.7,117.2,124.6z
		 M193.8,56.9H23c-4.2,0-6.6-4.7-4.2-8.1C37.1,23.3,70.4,6.2,108.4,6.2c38,0,71.3,17.1,89.6,42.6C200.4,52.2,198,56.9,193.8,56.9z"
		/>
	<path class="st0" d="M48.8,169.1l3.4-0.5c-0.6-0.5-1.1-1-1.6-1.6C50.1,167.7,49.5,168.4,48.8,169.1z"/>
	<path class="st0" d="M35.2,171.4C35.2,171.4,35.2,171.4,35.2,171.4c0.6,0,1.2-0.1,1.8-0.2c1.3-0.2,2.4-0.5,3.4-0.9
		c0.9-0.4,1.8-0.8,2.6-1.3c0.8-0.5,1.5-1,2.1-1.6c0.5-0.4,0.9-0.8,1.3-1.3c1-1.1,1.6-2.1,2-2.7c0.1-0.1,0.1-0.2,0.2-0.4l-0.8-1.3
		l-2.7-4.1c0,0-0.2,0.6-0.6,1.4c-0.3,0.5-0.6,1.1-1.1,1.7c-0.3,0.4-0.6,0.8-1,1.2c-0.4,0.4-0.8,0.8-1.3,1.1c-1,0.7-2.2,1.2-3.6,1.4
		c-0.3,0-0.6,0.1-0.9,0.1c-0.1,0-0.2,0-0.2,0c-0.1,0-0.2,0-0.2,0c-0.1,0-0.2,0-0.3,0c-0.1,0-0.2,0-0.2,0c-0.1,0-0.2,0-0.3-0.1
		c-0.1,0-0.2,0-0.2,0c-0.1,0-0.2-0.1-0.3-0.1c-0.1,0-0.1,0-0.2-0.1c-0.1,0-0.2-0.1-0.3-0.1c-0.1,0-0.1,0-0.2-0.1
		c-0.2-0.1-0.3-0.2-0.5-0.2c0,0,0,0,0,0c-0.2-0.1-0.3-0.2-0.5-0.3c-0.1,0-0.1-0.1-0.1-0.1c-0.1-0.1-0.2-0.2-0.3-0.2
		c-0.1,0-0.1-0.1-0.2-0.2c-0.1-0.1-0.2-0.2-0.3-0.2c-0.1-0.1-0.1-0.1-0.2-0.2c-0.1-0.1-0.1-0.2-0.2-0.3c-0.1-0.1-0.1-0.1-0.1-0.2
		c-0.1-0.1-0.1-0.2-0.2-0.3c0-0.1-0.1-0.1-0.1-0.2c-0.1-0.1-0.1-0.2-0.2-0.3c0-0.1-0.1-0.2-0.1-0.2c-0.1-0.1-0.1-0.2-0.1-0.4
		c0-0.1-0.1-0.2-0.1-0.2c0-0.1-0.1-0.3-0.1-0.4c0-0.1,0-0.1-0.1-0.2c-0.1-0.2-0.1-0.4-0.1-0.7c0,0,0,0,0,0c0-0.2-0.1-0.5-0.1-0.7
		c0-0.2,0-0.5,0-0.7c0-0.3,0-0.6,0.1-0.9c0-0.3,0.1-0.6,0.2-0.9c0.2-0.6,0.4-1.2,0.6-1.8c0.3-0.6,0.6-1.2,1-1.7
		c0.4-0.6,0.8-1.1,1.3-1.6c0.5-0.5,1-1,1.5-1.4c1.7-1.3,3.6-2.2,5.7-2.5l-0.1,5.1l7.5-4.8l0.2-8.4l-8.8,1.3
		c-0.5,0.1-0.9,0.2-1.4,0.3c-0.5,0.1-0.9,0.2-1.4,0.4c-0.9,0.3-1.8,0.6-2.6,1c-2.5,1.2-4.7,2.9-6.5,4.8c-0.2,0.2-0.4,0.5-0.6,0.8
		c-1.5,1.8-2.6,3.8-3.2,5.9c-0.1,0.4-0.2,0.8-0.3,1.2c-0.1,0.5-0.2,1.1-0.3,1.6c0,0.1,0,0.2,0,0.2c-0.1,0.6-0.1,1.2-0.2,1.7
		c0,0.3,0,0.6,0,1c0,0.6,0.1,1.2,0.1,1.7c0.3,2.4,1.2,4.5,2.5,6.2c0.6,0.9,1.4,1.6,2.2,2.3c0.3,0.2,0.5,0.4,0.8,0.6
		c0.8,0.6,1.7,1,2.7,1.3s1.9,0.5,2.9,0.5h0c0.2,0,0.4,0,0.6,0C34.8,171.4,35,171.4,35.2,171.4z"/>
	<path class="st0" d="M145.1,131.3l0,2.9l-1.5-2.6c0,0-0.3,0.1-0.9,0.4c-0.6,0.3-1.4,0.6-2.3,1.2c-1.2,0.7-2.5,1.7-3.8,3.1
		c-0.5,0.5-1,1.1-1.5,1.8c-0.2,0.3-0.5,0.7-0.7,1c-0.3,0.4-0.5,0.8-0.7,1.2c-0.5,0.9-0.9,1.8-1.2,2.8c-0.7,2.2-0.9,4.4-0.6,6.3
		c0,0.3,0.1,0.6,0.2,0.9c0.1,0.6,0.3,1.2,0.6,1.8c0.5,1.2,1.3,2.3,2.3,3c0.2,0.2,0.5,0.3,0.8,0.5c0.1,0,0.1,0.1,0.2,0.1
		c0.3,0.1,0.6,0.2,0.9,0.3l0,0c0.3,0.1,0.6,0.1,1,0.2c0.1,0,0.2,0,0.2,0c0.3,0,0.7,0.1,1,0.1c0,0,0,0,0,0h0c0.2,0,0.4,0,0.6,0
		c0.1,0,0.1,0,0.2,0c0.3,0,0.5,0,0.8-0.1c1.8-0.3,3.6-0.9,5-1.9c0.2-0.1,0.4-0.3,0.6-0.4c0.1,0.1,0.3,0.2,0.4,0.2c0,0,0.1,0,0.1,0.1
		c0.1,0.1,0.3,0.1,0.4,0.2c0,0,0,0,0.1,0c0.2,0,0.4,0.1,0.6,0.1c0,0,0.1,0,0.2,0c0.2,0,0.3,0,0.5,0c0,0,0.1,0,0.1,0c0,0,0,0,0.1,0
		c0.1,0,0.3,0,0.4,0c0.1,0,0.1,0,0.2,0c0.2,0,0.4,0,0.7-0.1l4.5-0.6l0-0.2l0.6-6.4l-0.5,0.1v0l-0.7,0.1c0,0-0.1,0-0.1,0
		c-0.1,0-0.2,0-0.3,0c0,0,0,0,0,0c-0.1,0-0.2,0-0.3,0c0,0-0.1,0-0.1,0c-0.1,0-0.1,0-0.2,0c0,0-0.1,0-0.1,0c-0.1,0-0.1,0-0.2-0.1
		c0,0-0.1,0-0.1-0.1c0,0-0.1-0.1-0.1-0.1c0,0-0.1,0-0.1-0.1c0,0-0.1-0.1-0.1-0.1c0,0,0-0.1-0.1-0.1c0-0.1-0.1-0.1-0.1-0.2
		c0,0,0-0.1,0-0.1c0-0.1,0-0.2,0-0.3l0.3-15.6L145.1,131.3z M144.9,144.5c0,0.8-0.2,1.4-0.4,2.1c-0.5,1.1-1.2,1.9-2.1,2.4
		c-0.1,0.1-0.3,0.2-0.5,0.3c-0.5,0.2-0.9,0.4-1.3,0.4c-0.1,0-0.3,0-0.4,0c0,0-0.1,0-0.1,0c-0.1,0-0.2,0-0.4,0c0,0-0.1,0-0.1,0
		c-0.1,0-0.3-0.1-0.4-0.1c-0.4-0.2-0.6-0.5-0.7-1c0-0.1-0.1-0.3-0.1-0.5c0-0.2,0-0.3,0-0.5c0-0.6,0.1-1.2,0.3-1.9
		c0.2-0.7,0.5-1.4,0.9-2.2c0.1-0.3,0.3-0.5,0.4-0.8c0.6-0.9,1.2-1.8,1.9-2.5c1.2-1.2,2.4-2.1,3.2-2.6L144.9,144.5z"/>
	<path class="st0" d="M194,141.1c0,0.5-0.1,0.9-0.2,1.3c-0.1,0.4-0.3,0.7-0.5,0.9c-0.1,0.1-0.1,0.1-0.2,0.2c-0.3,0.2-0.7,0.3-1,0.3
		c-0.1,0-0.2,0-0.3,0c-0.1,0-0.1,0-0.2,0c-0.1,0-0.1,0-0.2,0c-0.1,0-0.1,0-0.2-0.1c-0.1,0-0.1-0.1-0.2-0.1c-0.1,0-0.1-0.1-0.2-0.1
		c-0.1,0-0.1-0.1-0.2-0.2c0,0-0.1-0.1-0.1-0.1c-0.1-0.1-0.1-0.1-0.2-0.2c0-0.1-0.1-0.1-0.1-0.2c0-0.1-0.1-0.2-0.1-0.3
		c0-0.1-0.1-0.1-0.1-0.2c0-0.1-0.1-0.3-0.1-0.4c0-0.1,0-0.1,0-0.2c0-0.2,0-0.5,0-0.8l0.2-16l-8.5,1.2l0,0.2l-0.2,6.5l1.7-0.2
		l-0.2,8.6c0,0.3,0,0.6,0,0.8c0,0.3,0,0.5,0.1,0.8c0,0.3,0.1,0.6,0.2,0.8c0,0.1,0.1,0.2,0.1,0.3c0.1,0.2,0.1,0.3,0.2,0.5
		c0,0.1,0.1,0.2,0.1,0.3c0.1,0.1,0.1,0.3,0.2,0.4c0,0.1,0.1,0.2,0.1,0.3c0.1,0.1,0.1,0.2,0.2,0.4c0.1,0.1,0.1,0.2,0.2,0.2
		c0.1,0.1,0.2,0.2,0.3,0.3c0.1,0.1,0.1,0.1,0.2,0.2c0.1,0.1,0.2,0.2,0.3,0.3c0.1,0.1,0.1,0.1,0.2,0.2c0.1,0.1,0.2,0.2,0.3,0.3
		c0.1,0,0.1,0.1,0.2,0.1c0.1,0.1,0.2,0.2,0.4,0.2c0.1,0,0.1,0.1,0.2,0.1c0.2,0.1,0.4,0.2,0.6,0.3c0,0,0,0,0.1,0
		c0.2,0.1,0.3,0.1,0.5,0.2c0.1,0,0.1,0,0.2,0.1c0.1,0,0.2,0.1,0.4,0.1c0.1,0,0.2,0,0.2,0.1c0.1,0,0.2,0.1,0.3,0.1c0.1,0,0.2,0,0.2,0
		c0.1,0,0.2,0,0.3,0c0.1,0,0.2,0,0.2,0c0.1,0,0.2,0,0.3,0c0.1,0,0.1,0,0.2,0c0,0,0.1,0,0.1,0c0,0,0.1,0,0.1,0c0.3,0,0.5,0,0.7,0
		c1.5-0.2,2.4-0.7,3-1.1c0.1-0.1,0.2-0.2,0.3-0.2l0,5l-76.3,10.9c0,0.3,0,0.7,0,1c0,1.3,0,2.5-0.1,3.6c0,0.8,0,1.6,0,2.3l78.1-11.2
		c0.5-0.1,1-0.2,1.4-0.3c3.1-0.9,4.6-3.1,4.7-7.4l0.1-28l-7.6,1.1L194,141.1z"/>
	<path class="st0" d="M64.5,143C64.5,143,64.5,143,64.5,143c-0.1,0-0.1,0-0.2,0c0,0-0.1,0-0.1,0c-0.1,0-0.2,0-0.3-0.1c0,0,0,0-0.1,0
		c-0.1,0-0.3,0-0.4-0.1c0,0-0.1,0-0.1,0c-0.1,0-0.3,0-0.4,0c-0.1,0-0.1,0-0.2,0c-0.1,0-0.3,0-0.4,0c-0.1,0-0.1,0-0.2,0
		c0,0-0.1,0-0.1,0c-0.1,0-0.3,0-0.4,0c-0.1,0-0.2,0-0.2,0c-0.3,0-0.5,0-0.8,0.1l0,0c-0.1,0-0.3,0-0.4,0.1c-0.4,0.1-0.8,0.2-1.2,0.3
		c-0.4,0.1-0.8,0.3-1.2,0.5c-0.4,0.2-0.8,0.4-1.2,0.7c-0.8,0.5-1.6,1.2-2.4,2c-1.5,1.6-2.8,3.9-3.4,7c-0.3,1.6-0.3,3.2-0.1,4.7
		c0.1,0.9,0.3,1.7,0.6,2.5c0.5,1.6,1.3,3.1,2.4,4.2c0.2,0.2,0.4,0.4,0.6,0.6c1.1,1.1,2.5,1.8,4.1,2.1c0.3,0.1,0.6,0.1,0.9,0.1
		c0.1,0,0.2,0,0.3,0c0,0,0.1,0,0.1,0c0.7,0,1.3,0,2-0.1c0.6-0.1,1.3-0.3,1.9-0.5c0.9-0.3,1.8-0.8,2.7-1.4c2.2-1.7,4-4.3,4.9-7.5
		c0.1-0.3,0.1-0.6,0.2-0.9c0.2-0.7,0.3-1.5,0.3-2.2c0.1-1,0-2-0.1-3c-0.2-1.6-0.7-3.1-1.3-4.4c-0.3-0.7-0.7-1.4-1.1-1.9
		c-0.2-0.3-0.5-0.6-0.7-0.8c-0.5-0.5-1-0.9-1.5-1.1l-1.4,1.5l-1.5,1.5L64.5,143C64.6,143,64.6,143,64.5,143z M64.2,153
		c0,0.2,0.1,0.5,0.1,0.8c0,0.8,0,1.6-0.2,2.3l0,0c-0.1,0.3-0.1,0.6-0.2,0.8c0,0.1-0.1,0.2-0.1,0.3c-0.1,0.2-0.1,0.4-0.2,0.5
		c0,0.1-0.1,0.2-0.1,0.3c-0.1,0.1-0.1,0.3-0.2,0.4c-0.1,0.1-0.1,0.2-0.2,0.3c-0.1,0.1-0.2,0.2-0.3,0.3c-0.1,0.1-0.1,0.1-0.2,0.2
		c-0.1,0.1-0.2,0.2-0.3,0.3c-0.1,0.1-0.2,0.1-0.2,0.2c-0.1,0.1-0.2,0.1-0.3,0.2c-0.1,0-0.2,0.1-0.3,0.1c-0.1,0-0.2,0.1-0.4,0.1
		c-0.1,0-0.2,0-0.3,0c-0.2,0-0.4,0-0.5,0c-0.3,0-0.6-0.1-0.9-0.3c-0.1-0.1-0.3-0.2-0.4-0.3c-0.4-0.3-0.7-0.8-0.9-1.4
		c-0.2-0.4-0.3-0.8-0.3-1.2c-0.1-0.8-0.1-1.6,0.1-2.5c0.1-0.4,0.2-0.7,0.3-1c0.8-2.3,2.6-3.4,4.2-3.5c0.3,0.1,0.6,0.3,0.8,0.5
		c0.3,0.3,0.6,0.7,0.8,1.2C64,151.9,64.1,152.4,64.2,153z"/>
	<path class="st0" d="M104,145.4c0-0.7,0-1.3-0.1-1.9c-0.2-1.2-0.5-2.1-1.1-2.9c0,0,0,0-0.1-0.1c-0.1-0.1-0.1-0.2-0.2-0.3
		c-0.1-0.1-0.1-0.1-0.2-0.2c-0.1-0.1-0.2-0.2-0.2-0.3c-0.1-0.1-0.1-0.1-0.2-0.2c-0.1-0.1-0.2-0.2-0.3-0.2c-0.1-0.1-0.1-0.1-0.2-0.2
		c-0.1-0.1-0.2-0.1-0.3-0.2c-0.1,0-0.1-0.1-0.2-0.1c-0.1-0.1-0.2-0.1-0.3-0.2c-0.1,0-0.1-0.1-0.2-0.1c-0.1-0.1-0.2-0.1-0.4-0.2
		c-0.1,0-0.1-0.1-0.2-0.1c-0.2-0.1-0.4-0.1-0.5-0.2c0,0,0,0,0,0c-0.2,0-0.3-0.1-0.5-0.1c-0.1,0-0.1,0-0.2,0c-0.1,0-0.2,0-0.4-0.1
		c-0.1,0-0.1,0-0.2,0c-0.1,0-0.2,0-0.3,0c-0.1,0-0.1,0-0.2,0c-0.1,0-0.1,0-0.2,0c0,0,0,0-0.1,0c-0.2,0-0.4,0-0.6,0
		c-0.7,0.1-1.3,0.2-1.9,0.4c-0.9,0.3-1.7,0.7-2.3,1.3c-0.7,0.5-1.2,1.2-1.6,1.9c0,0,0,0,0,0c-0.2-0.2-0.4-0.4-0.6-0.5
		c-0.1-0.1-0.1-0.1-0.2-0.1c-0.1-0.1-0.3-0.2-0.4-0.3c-0.1,0-0.2-0.1-0.2-0.1c-0.1-0.1-0.3-0.1-0.4-0.2c-0.1,0-0.2-0.1-0.3-0.1
		c-0.1-0.1-0.3-0.1-0.4-0.2c-0.1,0-0.2-0.1-0.2-0.1c-0.2,0-0.3-0.1-0.5-0.1c-0.1,0-0.1,0-0.2,0c-0.2,0-0.4-0.1-0.6-0.1
		c0,0-0.1,0-0.1,0c-0.1,0-0.3,0-0.4,0c0,0,0,0-0.1,0c-0.2,0-0.5,0-0.7,0c-0.2,0-0.4,0.1-0.6,0.1c-0.2,0-0.4,0.1-0.6,0.1
		c-0.4,0.1-0.7,0.2-0.9,0.3c-0.1,0.1-0.3,0.1-0.4,0.2c-0.2,0.1-0.4,0.2-0.6,0.4c-0.1,0.1-0.2,0.1-0.2,0.2l0-0.6l-8.2,1.2l-0.1,6.7
		l1.3-0.2L75,164.9l7.1-1l0.3-14.7c0.1-2.8,0.8-3.6,1.6-3.9c0.1,0,0.2-0.1,0.3-0.1c0.1,0,0.2,0,0.3,0c0.1,0,0.1,0,0.2,0
		c0,0,0.1,0,0.1,0c0.1,0,0.2,0,0.3,0.1c0,0,0,0,0.1,0c0.1,0,0.1,0.1,0.2,0.1c0,0,0.1,0,0.1,0.1c0.1,0,0.1,0.1,0.2,0.1
		c0,0,0.1,0.1,0.1,0.1c0,0.1,0.1,0.1,0.1,0.2c0,0,0.1,0.1,0.1,0.1c0,0.1,0.1,0.2,0.1,0.3c0,0.1,0,0.1,0.1,0.2c0,0.2,0.1,0.4,0.1,0.6
		c0,0,0,0,0,0c0,0.2,0,0.4,0.1,0.6c0,0.3,0,0.6,0,0.9l-0.3,14.7l6.7-1l0.4-14.7c0-0.6,0.1-1.2,0.1-1.6c0.1-0.4,0.2-0.8,0.3-1.1
		c0.1-0.2,0.2-0.4,0.2-0.5c0.1-0.2,0.3-0.4,0.4-0.5c0.3-0.2,0.5-0.3,0.8-0.3c0.1,0,0.2,0,0.3,0c0.1,0,0.2,0,0.2,0c0,0,0,0,0,0
		c0.1,0,0.2,0,0.3,0.1c0,0,0.1,0,0.1,0c0.1,0,0.1,0.1,0.2,0.1c0,0,0.1,0,0.1,0.1c0.1,0,0.1,0.1,0.2,0.1c0,0,0.1,0.1,0.1,0.1
		c0,0.1,0.1,0.1,0.1,0.2c0,0,0.1,0.1,0.1,0.1c0,0.1,0.1,0.2,0.1,0.3c0,0.1,0,0.1,0.1,0.2c0.1,0.2,0.1,0.4,0.1,0.6
		c0,0.2,0.1,0.4,0.1,0.7c0,0.2,0,0.5,0,0.8l-0.5,14.8l8.4-1.2l0.3-5.3l-1.7,0.2l0.3-7.8L104,145.4z"/>
	<path class="st0" d="M157,129.5l-0.3,6.9l1.7-0.2l-0.3,16.8v0l6.8-1l5.3-10.1l-0.2,9.4l8.3-1.2l0.2-6.7l-1.1,0.2
		c-0.1,0-0.1,0-0.2,0c0,0-0.1,0-0.1,0c0,0-0.1,0-0.1-0.1c0,0,0,0-0.1-0.1c0,0-0.1-0.1-0.1-0.1c0,0,0,0,0-0.1c0-0.1,0-0.2,0-0.3
		l0.4-16.2v0l-5.9,0.8l-6.2,10.9l0.1-10.1L157,129.5z"/>
	<path class="st0" d="M106.7,136.8l0,3.3l0,3.3h0l3.1-0.4l-0.4,17.5l-0.3,14.1l2.7-0.4l1.6-0.2l2.7-0.4c0,0,0.1-2.7,0.1-6.6
		c0-0.2,0-0.4,0-0.7c0-0.5,0-0.9,0-1.4c0-0.2,0-0.5,0-0.7c0-0.7,0-1.5,0-2.3c0-0.8,0-1.6,0-2.4c0-1.1,0-2.1,0.1-3.2l1.5,2.5
		c0,0,3.4-0.3,6.7-2.8c0.5-0.4,1.1-0.9,1.6-1.4c0.5-0.5,1-1.2,1.5-1.9c0.6-0.8,1-1.6,1.4-2.5c0.2-0.4,0.3-0.9,0.5-1.3
		c0.4-1.3,0.6-2.6,0.7-3.9c0,0,0,0,0,0c0-0.9,0-1.7-0.1-2.5c-0.2-1.4-0.6-2.8-1.2-3.9c-0.1-0.3-0.3-0.6-0.5-0.8
		c-0.2-0.4-0.5-0.7-0.8-1c-0.3-0.3-0.6-0.6-0.9-0.9c-0.2-0.2-0.5-0.3-0.8-0.5c-0.1,0-0.1-0.1-0.2-0.1c-0.3-0.1-0.5-0.2-0.8-0.3
		c0,0-0.1,0-0.1,0c-0.3-0.1-0.5-0.1-0.8-0.2c-0.1,0-0.1,0-0.2,0c-0.3,0-0.6-0.1-0.9-0.1c0,0,0,0,0,0c0,0-0.1,0-0.1,0
		c-0.4,0-0.7,0-1.1,0.1l0,0c-0.7,0.1-1.4,0.3-2.1,0.5c-1.1,0.4-2.2,1-3,1.8l0-1.6L106.7,136.8z M116.7,145.9c0-0.6,0.1-1.1,0.3-1.6
		c0.6-1.8,1.9-3,3.3-3.5c0.2-0.1,0.5-0.1,0.7-0.2h0c0.1,0,0.3,0,0.4,0c0,0,0.1,0,0.1,0c0.1,0,0.2,0,0.4,0c0,0,0.1,0,0.1,0
		c0.1,0,0.3,0.1,0.4,0.1c0.6,0.3,1,1.1,1.2,2c0,0.2,0.1,0.5,0.1,0.7c0,1.2-0.2,2.6-0.7,3.9c-0.2,0.5-0.4,1-0.7,1.4
		c-0.2,0.3-0.4,0.6-0.6,0.9c-0.1,0.1-0.1,0.2-0.2,0.3c-0.1,0.2-0.3,0.3-0.4,0.5c-0.1,0.1-0.2,0.2-0.3,0.3c-0.1,0.1-0.3,0.3-0.4,0.4
		c-0.1,0.1-0.2,0.2-0.3,0.2c-0.1,0.1-0.3,0.2-0.4,0.3c-0.1,0.1-0.2,0.1-0.3,0.2c-0.1,0.1-0.3,0.2-0.4,0.2c-0.1,0.1-0.2,0.1-0.3,0.2
		c-0.1,0.1-0.3,0.1-0.4,0.2c-0.1,0-0.2,0.1-0.3,0.1c-0.1,0-0.3,0.1-0.4,0.1c-0.1,0-0.2,0-0.3,0c-0.2,0-0.3,0-0.5,0L116.7,145.9z"/>
	<path class="st0" d="M108.3,164.5L108.3,164.5l-70.5,10.1c-1.8,0.3-3.2,1.7-3.3,3.6l-0.1,3.7l73.8-10.5L108.3,164.5z"/>
	<path class="st0" d="M76.2,49.8c-1.8-6-2.8-8.8-4.5-13.7c-2.4,1-3.5,1.5-5.8,2.6c-1.4,5.3-2.1,7.7-3.6,11.9
		c-0.6,0.1-0.9,0.1-1.4,0.1c0,0.7,0,1.1,0,1.8c1.8,0,2.8,0,4.6,0c0-0.9,0-1.3,0-2.2c-0.6,0-0.8,0.1-1.4,0.1c0.4-1.1,0.5-1.7,0.9-3
		c1.5-0.3,2.3-0.4,3.9-0.7c0.4,1.3,0.6,2,1.1,3.5c-0.5,0-0.8,0.1-1.3,0.1c0,0.9,0,1.3,0.1,2.1c3.7,0,5.5,0,9.2-0.1
		c0-1.1-0.1-1.6-0.1-2.7C77,49.7,76.7,49.7,76.2,49.8z M65.4,45.5c0.5-1.9,0.8-2.8,1.2-4.9c0.6,1.6,0.8,2.4,1.4,4.2
		C67,45.1,66.4,45.2,65.4,45.5z"/>
	<path class="st0" d="M86.2,31.3c0,1.4,0.1,2,0.1,3.4c0.6-0.1,0.9-0.2,1.5-0.3c-1,4.8-1.5,7.1-2.6,11.6c-1.4-4.4-2.1-6.5-3.5-10.6
		c0.6-0.2,0.9-0.2,1.5-0.4c0-1.2-0.1-1.8-0.1-2.9c-3.7,1-5.5,1.6-9.1,3c0,1,0.1,1.5,0.1,2.5c0.5-0.2,0.8-0.2,1.3-0.4
		c2.3,5.4,3.4,8.5,5.7,15.2c1.7,0,2.6,0,4.4,0c1.7-6.9,2.5-10.6,4.2-18.3c0.6-0.1,0.9-0.1,1.4-0.2c0-1.4-0.1-2.1-0.1-3.5
		C89.1,30.6,88.1,30.8,86.2,31.3z"/>
	<path class="st0" d="M106.6,43.9c-1.7,0-2.6,2.3-2.6,5.7c-1.6,0-2.4,0-3.9,0c0-3.2-0.1-4.7-0.1-7.9c0.8,0,1.2-0.1,2-0.1
		c0,1.1,0,1.7,0,2.8c0.6,0,0.8,0,1.4,0c0-3.2,0-4.9-0.1-8.1c-0.6,0-0.8,0-1.4,0.1c0,1.1,0,1.6,0,2.6c-0.8,0-1.2,0.1-2,0.1
		c0-2.9-0.1-4.4-0.1-7.4c1.3-0.1,1.9-0.1,3.2-0.2c0.8,1.8,1.2,2.7,2,4.6c0.6,0,0.9,0,1.5,0c0-3,0-4.4,0-7.4
		c-5.7,0.1-8.5,0.4-14.2,1.4c0,1.3,0,1.9,0.1,3.2c0.5-0.1,0.8-0.1,1.3-0.2c0.1,6.4,0.2,9.6,0.3,16c-0.5,0-0.8,0-1.3,0
		c0,1.3,0,1.9,0.1,3.2c5.7,0,8.5,0,14.1,0c0-3.4,0-5,0-8.4C106.8,43.9,106.8,43.9,106.6,43.9z"/>
	<path class="st0" d="M120.3,33c0.6,0.1,1,0.1,1.6,0.2c-0.1,3.7-0.1,5.5-0.2,9.2c-2.3-5.3-3.5-8-5.9-13.4c-2.8-0.2-4.2-0.3-7.1-0.3
		c0,1.7,0,2.5,0,4.2c0.5,0,0.8,0,1.3,0c0,6.3,0,9.4,0,15.7c-0.6,0-0.9,0-1.5,0c0,1.5,0,2.3,0,3.8c1.9,0,2.8,0,4.6,0
		c0-1.5,0-2.3,0-3.8c-0.6,0-1,0-1.6,0c0-5.4,0-8.1,0.1-13.5c3.1,7,4.6,10.5,7.6,17.3c1.5,0,2.3,0,3.8,0c0.2-7.6,0.2-11.3,0.4-18.9
		c0.6,0.1,0.9,0.1,1.5,0.2c0-1.4,0-2.1,0.1-3.6c-1.9-0.3-2.9-0.5-4.8-0.7C120.3,30.8,120.3,31.5,120.3,33z"/>
	<path class="st0" d="M137.7,36.2c0.6,0.1,0.8,0.2,1.4,0.4c-0.1,3.3-0.2,4.9-0.3,8.1c-0.1,2.6-1.1,4.2-2.6,4.2
		c-2-0.1-2.8-1.6-2.7-4.9c0.1-3.6,0.2-5.4,0.3-9c0.4,0.1,0.7,0.2,1.1,0.3c0-1.2,0.1-1.7,0.1-2.9c-3.4-1-5.1-1.4-8.5-2
		c0,1.3,0,1.9-0.1,3.2c0.5,0.1,0.8,0.1,1.3,0.2c-0.1,3.5-0.1,5.2-0.2,8.7c-0.2,6.8,2,10.2,6.5,10.2c3.6,0,6.2-2.9,6.4-7.7
		c0.1-3.2,0.2-4.7,0.3-7.9c0.5,0.2,0.8,0.2,1.3,0.4c0-1.1,0.1-1.7,0.1-2.9c-1.7-0.6-2.5-0.9-4.2-1.4
		C137.7,34.3,137.7,34.9,137.7,36.2z"/>
	<path class="st0" d="M153.8,51c-1.6-0.1-2.3-0.1-3.9-0.2c0.1-2,0.1-2.9,0.1-4.9c0.8,0.2,1.2,0.3,1.9,0.4c0,0.6,0,1,0,1.6
		c0.5,0.1,0.8,0.1,1.4,0.2c0-1.8,0-2.7,0.1-4.4c-0.5-0.2-0.8-0.3-1.3-0.5c0,0.6,0,0.9,0,1.5c-0.8-0.2-1.2-0.3-1.9-0.5
		c0-1.8,0.1-2.7,0.1-4.6c1.2,0.5,1.8,0.8,3,1.3c0.7,1.4,1.1,2,1.8,3.2c0.5,0.2,0.8,0.3,1.4,0.5c0-1.4,0-2.1,0-3.5
		c-5.1-2.9-7.8-4.1-13.2-6.2c0,1-0.1,1.5-0.1,2.5c0.5,0.2,0.8,0.2,1.3,0.4c-0.2,4.8-0.2,7.2-0.4,12c-0.5,0-0.8,0-1.3-0.1
		c0,1-0.1,1.5-0.1,2.5c5.6,0,8.5,0,14.1,0.1c0-1.6,0-2.4,0-4c-0.1,0-0.2,0-0.3-0.1C154.7,48.1,153.8,49.1,153.8,51z"/>
	<path class="st0" d="M50.3,37.7c-1.9,1.3-1.5,4.2-1.4,5.1c0,0.3-1,1.2-1.8,1.8c-2.5,2-5.5,2.3-7.6-0.1c-2.1-2.3-1.3-6,2.1-8.7
		c1.7,0.2,2.6,0.3,4.2,0.5c1-0.7,1.5-1.1,2.5-1.8c-1.1-1.5-1.6-2.3-2.7-3.8c-1.2,0.8-1.8,1.3-3,2.2c0.3,0.3,0.4,0.5,0.6,0.8
		c-1.9,0.3-4.1,1.4-6.4,3.3c-6.1,5.3-7.5,11.3-4.3,14.2c3.1,2.8,8.5,1,13.9-3.6c2.6-2.3,5-4.8,6.3-7.5c-0.8-1.1-1.2-1.7-2-2.8
		C50.6,37.5,50.5,37.5,50.3,37.7z"/>
	<path class="st0" d="M71.3,26.6c-0.2,0.1-0.3,0.1-0.4,0.2c-2.3,0.9-2.9,2.7-2.1,4.5c-2,0.9-3,1.4-5,2.4c-0.9-1.7-1.3-2.5-2.2-4.2
		c1.1-0.6,1.6-0.8,2.7-1.3c0.3,0.6,0.4,0.9,0.7,1.5c0.7-0.4,1.1-0.5,1.8-0.9c-0.8-1.7-1.2-2.6-2-4.3c-0.8,0.4-1.2,0.5-1.9,0.9
		c0.3,0.6,0.4,0.8,0.7,1.4c-1.1,0.5-1.6,0.8-2.7,1.4c-0.8-1.6-1.2-2.3-2-3.9c1.7-0.9,2.6-1.3,4.4-2.2c1.6,0.5,2.3,0.8,3.8,1.3
		c0.8-0.3,1.2-0.5,2-0.8c-0.7-1.6-1-2.4-1.6-4c-8.1,3.3-12.1,5.4-19.5,10.3c0.4,0.7,0.7,1,1.1,1.7c0.7-0.5,1-0.7,1.7-1.1
		c2.1,3.3,3.2,5,5.3,8.3c-0.6,0.4-0.9,0.6-1.5,1c0.4,0.7,0.7,1,1.1,1.7c6.7-4.5,10.3-6.3,17.6-9.2C72.4,29.4,72.1,28.5,71.3,26.6z"
		/>
	<path class="st0" d="M73.4,19c1.2,3.5,1.8,5.2,3,8.7c-0.8,0.3-1.2,0.4-2,0.7c0.3,0.8,0.5,1.3,0.8,2.1c2.4-0.9,3.6-1.3,6.1-2.1
		c-0.3-0.9-0.4-1.3-0.6-2.1c-0.9,0.3-1.3,0.4-2.1,0.7c-1-3-1.5-4.5-2.5-7.5c5.7,2.4,8.4,3.8,13.4,6.9c2.1-0.4,3.1-0.6,5.2-0.9
		c-0.7-4.6-1.1-6.9-1.8-11.5c0.9-0.1,1.4-0.2,2.3-0.3c-0.1-0.9-0.2-1.3-0.3-2.2c-2.9,0.4-4.3,0.6-7.2,1.2c0.2,0.9,0.3,1.3,0.4,2.2
		c0.9-0.2,1.4-0.3,2.4-0.4c0.4,2.2,0.6,3.3,1,5.5c-4-2.5-6.1-3.6-10.5-5.7c-4.2,1.1-6.3,1.8-10.3,3.3c0.3,0.9,0.5,1.4,0.9,2.3
		C72.2,19.4,72.6,19.2,73.4,19z"/>
	<path class="st0" d="M100,15.6c1.2-1.4,1.8-2,3-3.4c0.5,0,0.8,0,1.3-0.1c0.2,4.1,0.3,6.1,0.5,10.2c-0.6,0-0.9,0-1.5,0.1
		c0,0.8,0.1,1.2,0.1,2c4.5-0.3,6.8-0.3,11.3,0c0-0.8,0.1-1.2,0.1-2c-0.6,0-0.9,0-1.5-0.1c0.2-4.1,0.2-6.1,0.4-10.2
		c0.4,0,0.5,0,0.9,0c1.2,1.3,1.8,2,3,3.3c0.8,0.1,1.3,0.1,2.1,0.2c0.2-1.9,0.3-2.9,0.5-4.9c-9-0.9-13.6-0.9-22.7,0.1
		c0.2,1.9,0.3,2.9,0.5,4.9C98.7,15.7,99.1,15.7,100,15.6z"/>
	<path class="st0" d="M133,25.2c-0.7-0.2-1.1-0.3-1.8-0.4c0.4-1.6,0.6-2.4,0.9-4c0.5,0.1,0.7,0.2,1.2,0.4c3.9,1.2,2.7,4.4,4.1,6.4
		c0.7,1,2.2,1.9,4.4,2.5c0.4-0.6,0.6-1,0.9-1.6c-0.7-0.4-1-0.7-1.7-1.1c1.1-3.2-0.9-5.3-4.3-6.8c2.4,0.4,4.6-0.1,5.1-1.7
		c0.6-1.8-0.8-3.9-5-5c-2-0.5-2.6-0.6-5.9-1.3c-3.3-0.7-5-0.9-8.4-1.3c-0.1,0.8-0.1,1.2-0.2,2c0.8,0.1,1.2,0.1,1.9,0.3
		c-0.5,3.9-0.8,5.9-1.4,9.8c-0.7-0.1-1.1-0.1-1.8-0.2c-0.1,0.8-0.1,1.2-0.2,2c4.7,0.6,7,1,11.7,2.1C132.7,26.3,132.8,26,133,25.2z
		 M133.6,14.3c0.1,0,0.2,0,0.3,0.1c2.4,0.5,3.4,1.9,3,3.3c-0.4,1.5-1.9,2.1-3.9,1.8c-0.2,0-0.3-0.1-0.6-0.1
		C132.9,17.3,133.2,16.3,133.6,14.3z"/>
	<path class="st0" d="M164.6,25.3c-3.4-2-5.1-2.9-8.6-4.5c-4.2,3.2-6.2,4.8-10,8.3c-0.8-0.3-1.2-0.5-1.9-0.7
		c-0.3,0.8-0.5,1.3-0.8,2.1c2.4,0.9,3.6,1.4,5.9,2.5c0.4-0.8,0.6-1.2,0.9-2c-0.7-0.3-1.1-0.5-1.8-0.8c1-0.9,1.5-1.4,2.5-2.2
		c2.1,0.9,3.2,1.4,5.2,2.5c-0.1,1.4-0.1,2.1-0.3,3.5c-0.7-0.4-1-0.5-1.6-0.9c-0.4,0.7-0.5,1.1-0.9,1.8c4.6,2.3,6.9,3.7,11.2,6.7
		c0.5-0.7,0.7-1,1.1-1.6c-0.7-0.5-1.1-0.7-1.8-1.2C164.4,33.4,164.6,30.7,164.6,25.3z M156.1,28.3c-1.5-0.7-2.2-1.1-3.7-1.8
		c1.5-1.3,2.3-1.9,3.8-3.1C156.2,25.3,156.2,26.3,156.1,28.3z"/>
	<path class="st0" d="M178.5,51.2c-1.3-1.3-1.9-1.9-3.2-3.1c2.8-3,4.1-4.6,6.9-7.6c0.6,0.6,0.9,0.9,1.6,1.4c0.5-0.6,0.8-0.9,1.4-1.5
		c-4.2-4-6.4-5.8-11-9.1c-0.5,0.7-0.7,1-1.2,1.6c0.7,0.5,1,0.7,1.7,1.2c-2.4,3.1-3.6,4.7-5.9,7.9c-0.6-0.5-0.9-0.7-1.5-1.1
		c-0.5,0.7-0.7,1-1.2,1.6c6.3,4.6,9.3,7.3,14.8,13.3c1.8-1.6,2.7-2.4,4.4-4c-0.1-0.1-0.2-0.2-0.3-0.4
		C182.9,49.4,180.3,49.3,178.5,51.2z"/>
</g>
</svg>
