<?xml version="1.0" encoding="utf-8"?>
<!-- Generator: Adobe Illustrator 21.1.0, SVG Export Plug-In . SVG Version: 6.00 Build 0)  -->
<!DOCTYPE svg PUBLIC "-//W3C//DTD SVG 1.1//EN" "http://www.w3.org/Graphics/SVG/1.1/DTD/svg11.dtd">
<svg version="1.1" id="Layer_1" xmlns="http://www.w3.org/2000/svg" xmlns:xlink="http://www.w3.org/1999/xlink" x="0px" y="0px"
	 viewBox="0 0 432 432" style="enable-background:new 0 0 432 432;" xml:space="preserve">
<style type="text/css">
	.Drop_x0020_Shadow{fill:none;}
	.Round_x0020_Corners_x0020_2_x0020_pt{fill:#FFFFFF;stroke:#231F20;stroke-miterlimit:10;}
	.Live_x0020_Reflect_x0020_X{fill:none;}
	.Bevel_x0020_Soft{fill:url(#SVGID_1_);}
	.Dusk{fill:#FFFFFF;}
	.Foliage_GS{fill:#FFDD00;}
	.Pompadour_GS{fill-rule:evenodd;clip-rule:evenodd;fill:#44ADE2;}
	.st0{fill:#FFFFFF;}
</style>
<linearGradient id="SVGID_1_" gradientUnits="userSpaceOnUse" x1="216" y1="216" x2="216.7071" y2="216.7071">
	<stop  offset="0" style="stop-color:#DEDFE3"/>
	<stop  offset="0.1783" style="stop-color:#DADBDF"/>
	<stop  offset="0.3611" style="stop-color:#CECFD3"/>
	<stop  offset="0.546" style="stop-color:#B9BCBF"/>
	<stop  offset="0.7324" style="stop-color:#9CA0A2"/>
	<stop  offset="0.9181" style="stop-color:#787D7E"/>
	<stop  offset="1" style="stop-color:#656B6C"/>
</linearGradient>
<g id="KINkQ3_1_">
	<g>
		<path class="st0" d="M409,213.9c-2.6,16.9-4.4,34-8.1,50.6c-3.4,15.3-8.9,30.2-13.5,45.2c-0.4,1.4-1.3,2.8-1.9,4.2
			c-1.6,3.6-4,3.8-7.9,3.1c-10.3-1.9-20.8-3.5-31.3-4.2c-3-0.2-6.4,3.1-9.4,5.2c-18.7,13.3-39.5,22-61.3,28.4
			c-14.1,4.1-28.8,4.3-42.8,2.1c-12-1.9-23.9-7-34.7-12.9c-21.8-11.8-42.8-25-64-37.7c-13.3-8-27.5-14-42.3-18.8
			c-3.9-1.3-7.5-1.3-11.5,0.7c-10.3,5-20.8,9.7-31.5,14c-5.2,2.1-10.8,3.3-16.3,4.6c-3.5,0.8-6.8-0.2-8.8-3.5c-2-3.2-0.3-6,1.8-8.3
			c6.2-7.1,14.3-11.3,22.8-15c18.5-8,37-16.3,55.6-24.2c7.7-3.3,8.7-10.4,9.9-17c2.9-15.5,4.7-31.2,7.6-46.7
			c4.1-21.9,12.6-42,28.9-57.9c15.1-14.7,33.3-24.3,53.5-30.1c11.6-3.3,23.4-6.2,35.2-8.6c13.2-2.7,26.5-0.5,39.8,0
			c1.8,0.1,3.6-1.3,5.4-1.9c3.8-1.2,7.7-3.5,11.4-3.2c6.8,0.4,13.4,2.4,15.7,10.3c0.3,1.1,2,1.8,3.1,2.5c12.3,7.7,24.9,15,37,23.1
			c6,4.1,11.2,9.5,16.4,14.6c6.4,6.3,12.8,12.7,18.7,19.5c12.7,14.9,19.3,32.4,20.9,51.9c0.3,3.2,0.4,6.4,0.7,9.6
			C408.4,213.8,408.7,213.8,409,213.9z"/>
	</g>
</g>
</svg>
