<?xml version="1.0" encoding="utf-8"?>
<!-- Generator: Adobe Illustrator 21.1.0, SVG Export Plug-In . SVG Version: 6.00 Build 0)  -->
<!DOCTYPE svg PUBLIC "-//W3C//DTD SVG 1.1//EN" "http://www.w3.org/Graphics/SVG/1.1/DTD/svg11.dtd">
<svg version="1.1" id="Layer_1" xmlns="http://www.w3.org/2000/svg" xmlns:xlink="http://www.w3.org/1999/xlink" x="0px" y="0px"
	 viewBox="0 0 432 432" style="enable-background:new 0 0 432 432;" xml:space="preserve">
<style type="text/css">
	.Drop_x0020_Shadow{fill:none;}
	.Round_x0020_Corners_x0020_2_x0020_pt{fill:#FFFFFF;stroke:#231F20;stroke-miterlimit:10;}
	.Live_x0020_Reflect_x0020_X{fill:none;}
	.Bevel_x0020_Soft{fill:url(#SVGID_1_);}
	.Dusk{fill:#FFFFFF;}
	.Foliage_GS{fill:#FFDD00;}
	.Pompadour_GS{fill-rule:evenodd;clip-rule:evenodd;fill:#44ADE2;}
	.st0{fill:#FFFFFF;}
</style>
<linearGradient id="SVGID_1_" gradientUnits="userSpaceOnUse" x1="216" y1="216" x2="216.7071" y2="216.7071">
	<stop  offset="0" style="stop-color:#DEDFE3"/>
	<stop  offset="0.1783" style="stop-color:#DADBDF"/>
	<stop  offset="0.3611" style="stop-color:#CECFD3"/>
	<stop  offset="0.546" style="stop-color:#B9BCBF"/>
	<stop  offset="0.7324" style="stop-color:#9CA0A2"/>
	<stop  offset="0.9181" style="stop-color:#787D7E"/>
	<stop  offset="1" style="stop-color:#656B6C"/>
</linearGradient>
<g id="xNVPEU_1_">
	<g>
		<path class="st0" d="M283.3,401.1c-36.9-4.8-72.7-1.8-109.4,2.5c3.8,6.4,0,8.4-4.1,10.4c-7.6,3.7-15,7.6-22.7,11
			c-1.2,0.6-4.1-0.3-4.9-1.4c-9.8-13.9-19.5-27.7-26.2-43.5c-5.7-13.4-12.8-26.2-19.3-39.3c-12.4-25-20.4-51.3-23.8-79
			c-1.7-13.7,0.1-27.4,2.7-40.9c5-27,10.8-53.9,21.7-79.3c6.1-14.2,12.1-28.4,18.8-42.3c1.8-3.8,5.3-7.3,8.9-9.6
			c7.4-4.6,15.3-8.3,23.6-12.6c-8.1-9.9-0.2-18.9,1.3-28.3c0.5-3,1.5-6,2.2-9c2.5-11.1,9.4-18.8,18.8-24.5c4.4-2.6,8.8-5.7,13.5-7.4
			c8.6-3.1,17.5-5.7,26.4-7.7c3.2-0.7,7,0.6,10.5,1.2c3,0.5,6,1.5,9,2c14.2,2.3,26.1,9,36.2,18.9c2.7,2.7,4.9,6.2,6.4,9.8
			c3,6.9,5.4,14.1,7.9,21.2c1.8,5.1,1.3,10.3-1.5,14.9c-2.1,3.5-1,5.3,2.3,6.8c4.4,2,8.5,4.5,12.9,6.4c13.5,5.5,21.9,15.5,26.8,28.9
			c14.1,38.2,26.8,76.8,34.6,116.9c6.6,33.9,4.3,67.4-3,101c-5.2,23.6-15,45.2-24.7,67c-5.3,11.8-11.2,23.4-17.1,35
			c-0.6,1.1-3.1,2.3-4.2,1.9c-8.7-3.1-17.3-6.6-26-9.9c-4.3-1.6-6.1-3.8-3.4-8.5C279.8,409.9,281.2,405.8,283.3,401.1z M306.5,214.8
			c-0.6,0.1-1.2,0.2-1.9,0.3c3.3,40.6,3.8,81.3,1.7,122.1c1.6-3.2,3.1-6.4,3.8-9.8c1.5-7.4,2.7-14.8,3.9-22.3
			c0.6-3.9,1.4-7.8,1.2-11.7c-1-15.9-2.2-31.8-3.8-47.6C310.3,235.4,308.2,225.1,306.5,214.8z M130.1,216.6c-0.1,0-0.3,0-0.4,0
			c-3.6,15.6-6.8,31.4-11,46.9c-1.7,6.4-1.8,11.8,1,17.7c3.5,7.3,6.7,14.8,10.4,23.1C130.1,274.1,130.1,245.3,130.1,216.6z"/>
	</g>
</g>
</svg>
