<?xml version="1.0" encoding="utf-8"?>
<!-- Generator: Adobe Illustrator 21.1.0, SVG Export Plug-In . SVG Version: 6.00 Build 0)  -->
<!DOCTYPE svg PUBLIC "-//W3C//DTD SVG 1.1//EN" "http://www.w3.org/Graphics/SVG/1.1/DTD/svg11.dtd">
<svg version="1.1" id="Layer_1" xmlns="http://www.w3.org/2000/svg" xmlns:xlink="http://www.w3.org/1999/xlink" x="0px" y="0px"
	 viewBox="0 0 432 432" style="enable-background:new 0 0 432 432;" xml:space="preserve">
<style type="text/css">
	.Drop_x0020_Shadow{fill:none;}
	.Round_x0020_Corners_x0020_2_x0020_pt{fill:#FFFFFF;stroke:#231F20;stroke-miterlimit:10;}
	.Live_x0020_Reflect_x0020_X{fill:none;}
	.Bevel_x0020_Soft{fill:url(#SVGID_1_);}
	.Dusk{fill:#FFFFFF;}
	.Foliage_GS{fill:#FFDD00;}
	.Pompadour_GS{fill-rule:evenodd;clip-rule:evenodd;fill:#44ADE2;}
	.st0{fill:#FFFFFF;}
</style>
<linearGradient id="SVGID_1_" gradientUnits="userSpaceOnUse" x1="216" y1="216" x2="216.7071" y2="216.7071">
	<stop  offset="0" style="stop-color:#DEDFE3"/>
	<stop  offset="0.1783" style="stop-color:#DADBDF"/>
	<stop  offset="0.3611" style="stop-color:#CECFD3"/>
	<stop  offset="0.546" style="stop-color:#B9BCBF"/>
	<stop  offset="0.7324" style="stop-color:#9CA0A2"/>
	<stop  offset="0.9181" style="stop-color:#787D7E"/>
	<stop  offset="1" style="stop-color:#656B6C"/>
</linearGradient>
<g id="Jg3Zqb_1_">
	<g>
		<path class="st0" d="M323.3,206.2c0,1.2,0,2.4,0,3.6c-0.4,23.5-0.8,47-1.1,70.5c-0.1,13.4,0.1,26.9,0,40.3
			c-0.3,27.3-0.6,54.6-1.1,81.9c-0.1,7-0.4,14-1.2,21c-0.2,1.8-2.5,4.3-4.2,4.7c-5,1.1-10.2,1.8-15.4,1.9
			c-43.9,0.5-87.8,1.5-131.7,0.8c-18.2-0.3-36.3-4.2-54.4-6.6c-4.3-0.6-5.7-3.4-7.2-7.5c-2.4-6.7-6.3-12.9-10-19.1
			c-7.3-12.3-15.6-24.1-22-36.8c-5.7-11.4-8.9-23.9-14-35.6c-8.4-19.4-15.5-39.1-21.2-59.5c-5-17.7-4.3-35.3-1.9-53.4
			c5-38.5,17.9-74.8,30.1-111.3C74.4,82.5,81,64.1,90.5,47c4.4-8,8.3-16.5,17.2-20.8c5-2.4,10.2-4.3,15.3-6.3
			c13-5.1,26.1-10.1,39.1-15.1c0.5-0.2,1.2-0.2,1.4-0.5c4-6.1,10-3.9,15.4-3.5c11,0.8,22,2,33,2.6c5.6,0.3,11.4-0.3,17-0.6
			c8.4-0.5,17-0.6,25.2-2c7.1-1.2,11.7,2.9,17.2,5.5c13.2,6,26.2,12.6,39.7,17.7c13.7,5.3,23.1,14.7,28.8,27.5
			c8.1,17.9,16.5,35.9,22.3,54.6c8,25.9,14.3,52.3,20.1,78.8c5.2,23.6,9.3,47.5,12.7,71.4c1.4,9.4,0.4,19.3-0.8,28.9
			c-2.9,24-6.4,47.9-10.1,71.8c-1.8,11.6-3.9,23.2-7.2,34.5c-3.7,12.7-8.8,25-13.7,37.3c-0.7,1.7-3.8,3.7-5.5,3.4
			c-9.2-1.1-18.4-2.6-27.5-4.5c-4.7-1-6.1-5-5.7-9.7c1-10.2,3-20.2,1-30.8c-1.1-6,2.2-12.8,2.9-19.3c2.5-22.3,4.6-44.6,7-66.9
			c1-9.6,2.6-19.1,3.5-28.7c0.3-3.1-0.6-6.5-1.3-9.6c-4.2-18-8.5-36-12.8-54c-0.2-0.8-0.5-1.6-0.8-2.4
			C323.9,206.1,323.6,206.2,323.3,206.2z M107.8,193.7c-0.4,0-0.9,0.1-1.3,0.1c-5.5,19.1-11,38.1-16.5,57.2
			c-0.2,0.8-0.4,1.8-0.2,2.5c3.3,12.3,8.6,23.8,14.4,35.1c0.7-0.1,1.4-0.2,2.1-0.2C106.8,256.8,107.3,225.3,107.8,193.7z"/>
	</g>
</g>
</svg>
