<?xml version="1.0" encoding="utf-8"?>
<!-- Generator: Adobe Illustrator 21.1.0, SVG Export Plug-In . SVG Version: 6.00 Build 0)  -->
<!DOCTYPE svg PUBLIC "-//W3C//DTD SVG 1.1//EN" "http://www.w3.org/Graphics/SVG/1.1/DTD/svg11.dtd">
<svg version="1.1" id="Layer_1" xmlns="http://www.w3.org/2000/svg" xmlns:xlink="http://www.w3.org/1999/xlink" x="0px" y="0px"
	 viewBox="0 0 432 432" style="enable-background:new 0 0 432 432;" xml:space="preserve">
<style type="text/css">
	.Drop_x0020_Shadow{fill:none;}
	.Round_x0020_Corners_x0020_2_x0020_pt{fill:#FFFFFF;stroke:#231F20;stroke-miterlimit:10;}
	.Live_x0020_Reflect_x0020_X{fill:none;}
	.Bevel_x0020_Soft{fill:url(#SVGID_1_);}
	.Dusk{fill:#FFFFFF;}
	.Foliage_GS{fill:#FFDD00;}
	.Pompadour_GS{fill-rule:evenodd;clip-rule:evenodd;fill:#44ADE2;}
	.st0{fill:#FFFFFF;}
</style>
<linearGradient id="SVGID_1_" gradientUnits="userSpaceOnUse" x1="216" y1="216" x2="216.7071" y2="216.7071">
	<stop  offset="0" style="stop-color:#DEDFE3"/>
	<stop  offset="0.1783" style="stop-color:#DADBDF"/>
	<stop  offset="0.3611" style="stop-color:#CECFD3"/>
	<stop  offset="0.546" style="stop-color:#B9BCBF"/>
	<stop  offset="0.7324" style="stop-color:#9CA0A2"/>
	<stop  offset="0.9181" style="stop-color:#787D7E"/>
	<stop  offset="1" style="stop-color:#656B6C"/>
</linearGradient>
<g>
	<path class="st0" d="M405.4,165.8c-0.2-0.5-0.4-1-0.7-1.6c-0.6-1.4-1.4-3-2.3-4.7c-0.5-1,0,0-0.5-1c-0.3-0.6-0.6-1.2-0.9-1.8
		c-2.9-5.7-6.5-12.6-9.4-17.9c-4-7.4-8.1-14.8-12.2-22.2c-1.1-2-2.2-3.9-3.3-5.9c-5.1-11.9-9.8-21.5-14-29.4
		c-1.4-2.6-2.7-4.9-3.9-7.2c-0.2-0.4-0.5-0.8-0.7-1.2c-0.2-0.3-0.4-0.6-0.6-1c-0.2-0.3-0.4-0.6-0.5-0.9c-0.1-0.2-0.2-0.4-0.3-0.5
		c-0.1-0.1-0.2-0.3-0.2-0.4c-0.2-0.3-0.4-0.7-0.6-1c0-0.1-0.1-0.1-0.1-0.2c-0.5-0.9-1-1.7-1.6-2.5c-0.2-0.2-0.3-0.5-0.5-0.7
		c-0.2-0.4-0.5-0.8-0.7-1.1c-0.5-0.8-1-1.6-1.6-2.3c-1.2-1.7-2.3-3.3-3.4-4.7c-0.7-0.9-1.4-1.8-2-2.6c-0.9-1-1.7-2-2.4-2.8
		c-1.1-1.2-2.2-2.3-3.1-3.1c-2.3-2.1-3.8-2.9-4.4-3.1c-0.1,0-0.2-0.1-0.2-0.1c0,0,0,0-0.1,0c0,0,0,0-0.1,0h0c0-0.1,0-0.2,0-0.3
		c-3.5-1.7-8.7-3.5-12.8-4.8c-0.4-0.1-0.9-0.3-1.3-0.4c-4-1.1-4.3-1.4-7.1-2.2c-0.7-0.2-1.5-0.4-2.5-0.7c-2-0.5-5.3-1.7-7.5-2.3
		c-3.1-0.9-6.4-1.3-9.5-2.1c-3.3-0.8-6.5-1.6-9.8-2.5c-4.2-1.1-8.4-2.2-12.7-3.3c-0.3-0.1-0.5-0.1-0.8-0.2c1.8,3.8,3.2,8.7,3.1,16.3
		c-0.3,11.7-4.5,27.9-12.9,49.6l-0.9,2.4l-2.6-0.3c-0.1,0-7.9-1-16-2.5c-16.2-2.9-18.8-5-19.9-6.7c-1-1.4-1.5-3.8,1.2-7.1
		c1.2-1.5,3-3.2,5.1-5.1c5.3-4.9,12.6-11.6,14.2-19.7c1-4.9,2.2-10.2,3.3-15.3c2.1-9.6,4.8-21.6,4.5-24.1c-0.3-2.3-4-6-12.8-6
		c-0.5,0-1,0-1.6,0c-0.5,0-1.1,0-1.8,0c-2.6,0-6.2-0.2-10.3-0.4c-5.6-0.3-12-0.6-18.3-0.6c-16.1,0-21.6,2.3-23.5,4.3
		c-0.6,0.6-0.8,1.2-0.7,2.1c0.3,3.6-0.1,7.2-0.5,10.7c-1.3,11.8-2.7,24,18.5,45.4c2.8,1.1,7.6,3.8,7.4,7.8c-0.2,4.3-5.4,5.8-7.7,6.4
		c-3.8,1.6-20,8.2-25.9,8.2c-1.5,0-2.6-0.4-3.5-1.1c-3.5-3-9.4-26.7-9.5-26.9c-2.9-11.7-5.9-27.2-3.7-35.2l0.2-0.8l0.5-0.6
		c0.9-1,1.8-2.1,2.7-3.2c-5.1,1.2-10,2.8-15,4.5c-10,3.4-20,6.7-30,9.7c-6.5,2-10.3,3.4-16.8,5.8c-3.3,1.2-4.6,1.4-7.6,2.8
		c-2.2,1-2.7,1.3-5.1,2.2c0,0,0,0,0,0c0,0,0,0-0.1,0c0,0-0.1,0-0.1,0.1c0,0-0.1,0-0.2,0.1c-0.6,0.3-2,1.2-4.7,3.4
		c-1.1,0.9-2.4,2-3.4,3.2c-0.7,0.8-1.6,1.7-2.6,2.6c-0.7,0.7-1.9,1.9-2.6,2.7c-1.1,1.3-2.2,2.7-3.2,4.5c-0.4,0.8-0.8,1.6-1.3,2.4
		c-0.2,0.4-0.4,0.8-0.6,1.2c-0.1,0.2-0.2,0.5-0.4,0.7c-0.4,0.8-0.8,1.7-1.2,2.6c-0.2,0.4-0.4,0.8-0.6,1.2c-0.1,0.3-0.3,0.6-0.4,1
		c-0.1,0.3-0.3,0.6-0.4,0.9c-0.1,0.3-0.3,0.7-0.4,1c-0.2,0.4-0.4,0.8-0.5,1.2c-1,2.3-2,4.8-3.1,7.4c-3.3,8.2-6.8,18.2-10.6,30.3
		c-0.9,2-1.7,4-2.6,6.1c-3.2,7.7-6.4,15.3-9.6,23c-2.2,5.4-5.1,12.6-7.3,18.5c-0.2,0.6-0.5,1.2-0.7,1.8c-0.1,0.4-0.2,0.5-0.2,0.5
		c0,0.1,0.1-0.1-0.2,0.6c-0.7,1.8-1.2,3.4-1.7,4.9c-1.1,3.3-1.7,5.6-1.5,6.1c0.1,0.3,0.6,0.7,1.5,1.2c1.3,0.8,3.4,1.8,6,3
		c1.6,0.7,3.4,1.5,5.3,2.3c1.3,0.6,2.7,1.1,4.1,1.7c1.8,0.7,3.6,1.5,5.5,2.2c6,2.4,12.6,4.8,19,7c4.1,1.4,8.1,2.7,11.9,3.9
		c4.2,1.3,8,2.3,11.1,2.9c3.5,0.7,6.2,1,7.8,0.7c1-0.2,1.8-0.9,2.6-2.1c0.2-0.3,0.4-0.6,0.6-1c0.5-1.1,1-2.4,1.4-3.9
		c0-0.1,0.1-0.2,0.1-0.4c0-0.1,0-0.1,0.1-0.2c0,0,0-0.1,0-0.1c0.2-0.6,0.3-1.2,0.4-1.9c0.5-2.5,1-5.4,1.3-8.5
		c0.3-3.1,0.6-6.4,0.8-9.8c0.3-4.6,0.4-9.3,0.6-13.7c0.1-2.5,0.1-4.9,0.2-7.1c0,0.8,0.1,1.5,0.1,2.3c0.1,2.7,0.2,5.5,0.2,8.3
		c0,1.7,0,3.4,0,5.1c0,4.5,0,9,0.1,13.1c0,1.9,0,7.9,0,9.7c0,2.7,0,5.2,0,7.5c0,2.8,0,5.4-0.1,8.1c0,2.9,0,5.7-0.1,8.6
		c0,2.2,0,4.4,0,6.6c0,1.6,0,3.2,0,4.8c0,8.8-0.1,17.5-0.2,26.3c-0.1,10.5-0.3,21.1-0.5,31.6c-0.7,40-1.8,80.1-2.1,120.9
		c0,0.5,0.1,0.5,0.1,1c0,0.6-0.1,0.3-0.1,0.9c0,1.7,0,3.6,0,5.5c0,1.6,0,3.2,0,4.7v1.1v1.1c2.1,0.4,4.2,0.7,6.3,1
		c2.9,0.4,5.8,0.8,8.7,1.1c4,0.4,8.1,2.4,12.1,2.7c1.4,0.1,2.7,0.2,4.1,0.4c8.4,0.9,16.8,2.4,25.3,2.7c5.3,0.2,10.6,0.3,16,0.6
		c5.3,0.3,10.6,0.7,15.9,1c9.9,0.6,19.8,1.1,29.8,0.9c14.5-0.2,29.1-1.4,43.6-1.7c3.5-0.1,7-0.1,10.5-0.2c4.3-0.2,8.4-0.5,12.6-0.7
		c3.1-0.2,6.3-0.6,9.5-0.9c2.1-0.2,4.5-0.7,6.2-0.8c0.5,0,1.8-0.1,3.1-0.2c3-0.3,6.8-0.8,8-1.1c0.8-0.1,1.5-0.3,2.1-0.4
		c2.2-0.5,2.8-0.9,6.3-1.2c0.2,0,0.3,0,0.5-0.1c3.5-0.6,5.6-2.4,9.2-3v-1.1v-1.1c0-1.5,0-2.9,0-4.4c0-1.7,0-3.4-0.1-5.1
		c0-0.6,0.1-0.8,0.1-1.5c0-0.5-0.1-0.8-0.1-1.3c-0.7-40.9-3.9-81.3-6-121.6c-0.6-11.5-1.1-12.4-1.4-15.7c-0.2-2.4-0.4-6.2-0.4-16.2
		c0-1.7-0.1-4.8-0.3-8.1c-0.2-4.5-0.4-9.4-0.5-11.7c-0.1-2.9-0.6-9.9-0.8-12.5c-0.1-2.7-0.7-12.9-0.8-15.7c-0.1-2.5-0.4-6.3-0.4-9.3
		c0-1.8-1.2-11.1-1.1-12.9c0-3.9-0.5-13.1-0.4-16.9c0.1-2.2,0-4.5,0-6.9c0.1,0.8,0.2,1.5,0.3,2.3c0.5,4.4,1.2,9.1,1.9,13.7
		c0.5,3.4,1.1,6.7,1.7,9.8c0.6,3.1,1.4,6,2.1,8.4c0.2,0.7,0.5,1.3,0.7,2c0,0.1,0.1,0.1,0.1,0.2c0,0.1,0.1,0.2,0.1,0.4
		c0,0.1,0.1,0.2,0.1,0.2c0.5,1.4,1.1,2.5,1.7,3.5c0.2,0.4,0.5,0.7,0.7,1c0.9,1.1,1.9,1.7,2.9,1.8c0.4,0,0.9,0,1.4,0
		c1.7-0.1,3.9-0.7,6.7-1.5c1.7-0.5,3.5-1.1,5.4-1.8c5.4-1.9,11.7-4.5,18.2-7.4c6.5-2.9,13.3-6,19.4-9c1.9-0.9,3.8-1.9,5.6-2.8
		c1.5-0.7,2.9-1.5,4.2-2.1c2-1,3.8-2,5.4-2.9c2.7-1.5,4.8-2.8,6.1-3.7c0.9-0.6,1.4-1.1,1.5-1.4C407,169.7,406.4,168.1,405.4,165.8z"
		/>
	<path class="st0" d="M161.4,56.2c0.2,1,0.4,1.9,0.6,2.9c0.5,2.4,1.1,4.8,1.7,7.2c0.6,2.4,1.2,4.6,1.9,6.8c1.2,4.3,2.5,8.1,3.5,10.9
		c0.3,0.7,0.5,1.4,0.7,1.9c0.2,0.6,0.5,1.1,0.7,1.5c0.1,0.2,0.2,0.4,0.3,0.6c0.3,0.5,0.5,0.9,0.7,1.1c0.1,0.1,0.2,0.1,0.3,0.2
		c0,0,0.1,0,0.1,0c0.1,0,0.2,0.1,0.3,0.1c0,0,0.1,0,0.2,0c0.1,0,0.2,0,0.3,0c0.1,0,0.1,0,0.2,0c0,0,0,0,0.1,0c0.1,0,0.2,0,0.3,0
		c0.1,0,0.1,0,0.2,0c0.2,0,0.4,0,0.7-0.1c0,0,0,0,0,0c0.2,0,0.5-0.1,0.8-0.1c0.1,0,0.2,0,0.3-0.1c0.2,0,0.4-0.1,0.6-0.1
		c0.1,0,0.2,0,0.3-0.1c0.2,0,0.4-0.1,0.6-0.1c0.1,0,0.3-0.1,0.4-0.1c0.2,0,0.4-0.1,0.6-0.1c0.1,0,0.3-0.1,0.4-0.1
		c0.2-0.1,0.4-0.1,0.6-0.2c0.1,0,0.3-0.1,0.4-0.1c0.2-0.1,0.4-0.1,0.6-0.2c0.1,0,0.3-0.1,0.4-0.1c0.2-0.1,0.5-0.1,0.7-0.2
		c0.1,0,0.2-0.1,0.4-0.1c0.3-0.1,0.6-0.2,0.8-0.3c0.1,0,0.2-0.1,0.2-0.1c0.7-0.2,1.5-0.5,2.3-0.8c0.1,0,0.2-0.1,0.2-0.1
		c0.3-0.1,0.6-0.2,0.9-0.3c0.1,0,0.2-0.1,0.3-0.1c0.3-0.1,0.5-0.2,0.8-0.3c0.1,0,0.2-0.1,0.4-0.1c0.2-0.1,0.5-0.2,0.7-0.3
		c0.1,0,0.2-0.1,0.4-0.1c0.2-0.1,0.5-0.2,0.7-0.3c0.1,0,0.2-0.1,0.4-0.1c0.2-0.1,0.5-0.2,0.7-0.3c0.1,0,0.2-0.1,0.3-0.1
		c0.3-0.1,0.5-0.2,0.8-0.3c0.1,0,0.2-0.1,0.2-0.1c0.3-0.1,0.6-0.2,0.8-0.3c0,0,0.1,0,0.1,0c0.6-0.2,1.2-0.5,1.8-0.7
		c0.1,0,0.1-0.1,0.2-0.1c0.2-0.1,0.4-0.2,0.6-0.2c0.1,0,0.1-0.1,0.2-0.1c0.2-0.1,0.3-0.1,0.5-0.2c0.1,0,0.1-0.1,0.2-0.1
		c0.1-0.1,0.3-0.1,0.4-0.2c0.1,0,0.1-0.1,0.2-0.1c0.1,0,0.2-0.1,0.3-0.1c0.1,0,0.1-0.1,0.2-0.1c0.1,0,0.2-0.1,0.3-0.1c0,0,0,0,0.1,0
		c0.1,0,0.2-0.1,0.3-0.1c0,0,0,0,0.1,0c0.1,0,0.1,0,0.1-0.1c0.1,0,0.1,0,0.1,0c12.6-3.3-0.5-8.3-0.5-8.3c-1.8-1.8-3.5-3.6-5.1-5.3
		s-2.9-3.4-4.2-5c-1.9-2.4-3.5-4.7-4.8-6.9c-0.4-0.7-0.9-1.5-1.3-2.2c-0.8-1.4-1.5-2.8-2-4.2c-0.3-0.7-0.6-1.3-0.8-2
		c-0.7-2-1.3-3.8-1.7-5.6c-0.3-1.2-0.4-2.4-0.6-3.5c-0.2-1.7-0.3-3.4-0.3-5c0-0.5,0-1.1,0-1.6c0-1,0.1-2.1,0.2-3.1
		c0.4-5,1.3-9.7,1-14.3c0-0.2,0-0.5,0-0.7c0-0.1,0-0.2,0-0.2c0-0.2,0-0.3,0-0.5c0-0.1,0-0.2,0.1-0.3c0-0.1,0.1-0.3,0.1-0.4
		c0-0.1,0.1-0.2,0.1-0.3c0-0.1,0.1-0.2,0.1-0.4c0-0.1,0.1-0.2,0.1-0.3c0.1-0.1,0.1-0.2,0.2-0.3c0-0.1,0.1-0.2,0.1-0.2
		c0.1-0.1,0.1-0.2,0.2-0.3c0.1-0.1,0.1-0.2,0.2-0.2c0.1-0.1,0.2-0.2,0.2-0.3c0.1-0.1,0.1-0.2,0.2-0.2c0.1-0.1,0.2-0.2,0.3-0.3
		c0.1-0.1,0.1-0.1,0.2-0.2c0.1-0.1,0.2-0.2,0.3-0.3c0.1-0.1,0.2-0.1,0.2-0.2c0.1-0.1,0.2-0.2,0.4-0.3c0.1-0.1,0.2-0.1,0.3-0.2
		c0.1-0.1,0.3-0.2,0.4-0.3c0.1,0,0.2-0.1,0.2-0.1c0.2-0.1,0.5-0.2,0.7-0.4c0,0,0.1,0,0.1-0.1c0.2-0.1,0.4-0.2,0.6-0.3
		c0.1,0,0.2-0.1,0.3-0.1c0.2-0.1,0.3-0.1,0.5-0.2c0.1,0,0.2-0.1,0.4-0.1c0.2-0.1,0.3-0.1,0.5-0.2c0.1,0,0.3-0.1,0.4-0.1
		c0.2-0.1,0.3-0.1,0.5-0.2c0.1,0,0.3-0.1,0.4-0.1c0.2,0,0.3-0.1,0.5-0.1c0.1,0,0.3-0.1,0.4-0.1c0.2,0,0.4-0.1,0.5-0.1
		c0.2,0,0.3-0.1,0.5-0.1c0.2,0,0.4-0.1,0.6-0.1c0.2,0,0.3-0.1,0.5-0.1c0.2,0,0.4-0.1,0.6-0.1c0.2,0,0.3-0.1,0.5-0.1
		c0.2,0,0.4-0.1,0.6-0.1c0.2,0,0.3,0,0.5-0.1c0.2,0,0.4-0.1,0.7-0.1c0.2,0,0.3,0,0.5-0.1c0.2,0,0.5-0.1,0.7-0.1c0.1,0,0.3,0,0.4,0
		c0.4,0,0.8-0.1,1.2-0.1c0.1,0,0.2,0,0.2,0c0.3,0,0.6-0.1,1-0.1c0.1,0,0.3,0,0.4,0c0.3,0,0.5,0,0.8-0.1c0.2,0,0.3,0,0.5,0
		c0.2,0,0.5,0,0.7,0c0.2,0,0.4,0,0.5,0c0.2,0,0.5,0,0.7,0c0.2,0,0.4,0,0.5,0c0.2,0,0.5,0,0.7,0c0.2,0,0.4,0,0.6,0c0.2,0,0.5,0,0.7,0
		c0.2,0,0.4,0,0.6,0c0.3,0,0.5,0,0.8,0c0.2,0,0.4,0,0.5,0c0.3,0,0.5,0,0.8,0c0.1,0,0.2,0,0.3,0c0,0,0.1,0,0.1,0c0.6,0,1.2,0,1.8,0
		c0.1,0,0.2,0,0.3,0c1.3,0,2.5,0,3.8,0.1c0.1,0,0.2,0,0.3,0c0.6,0,1.2,0,1.8,0.1c0.1,0,0.2,0,0.3,0c1.3,0,2.5,0.1,3.7,0.2
		c0.1,0,0.2,0,0.3,0c0.6,0,1.2,0.1,1.8,0.1c0.1,0,0.2,0,0.3,0c1.5,0.1,2.9,0.1,4.3,0.2c0.3,0,0.6,0,0.9,0c0.1,0,0.2,0,0.3,0
		c0.5,0,0.9,0,1.4,0.1c0.1,0,0.2,0,0.3,0c0.4,0,0.9,0,1.3,0.1c0.1,0,0.2,0,0.3,0c0.4,0,0.9,0,1.3,0.1c0.1,0,0.2,0,0.3,0
		c0.4,0,0.8,0,1.2,0c0,0,0,0,0,0c0.4,0,0.8,0,1.2,0c0.1,0,0.1,0,0.2,0c0.4,0,0.7,0,1,0c0,0,0.1,0,0.1,0c0.1,0,0.1,0,0.1,0
		c0.2,0,0.4,0,0.6,0c0.1,0,0.2,0,0.2,0c0.2,0,0.5,0,0.7,0c0,0,0,0,0,0h0c0,0,0,0,0,0c0.6,0,1.2,0,1.7,0c0.1,0,0.1,0,0.2,0
		c0.3,0,0.6,0,0.8,0c0.4,0,0.7,0,1.1,0c0.3,0,0.6,0,0.8,0.1c0.3,0,0.7,0.1,1,0.1c0.3,0,0.5,0.1,0.8,0.1c0.3,0,0.6,0.1,0.9,0.2
		c0.3,0.1,0.5,0.1,0.7,0.2c0.3,0.1,0.5,0.1,0.8,0.2c0.2,0.1,0.5,0.1,0.7,0.2c0.3,0.1,0.5,0.2,0.7,0.2c0.2,0.1,0.4,0.2,0.6,0.2
		c0.2,0.1,0.4,0.2,0.7,0.3c0.2,0.1,0.4,0.2,0.6,0.3c0.2,0.1,0.4,0.2,0.6,0.3c0.2,0.1,0.3,0.2,0.5,0.3c0.2,0.1,0.4,0.2,0.5,0.3
		c0.2,0.1,0.3,0.2,0.5,0.3c0.2,0.1,0.3,0.2,0.5,0.4c0.1,0.1,0.3,0.2,0.4,0.3c0.1,0.1,0.3,0.3,0.4,0.4c0.1,0.1,0.2,0.2,0.3,0.3
		c0.1,0.1,0.2,0.3,0.4,0.4c0.1,0.1,0.2,0.2,0.3,0.4c0.1,0.1,0.2,0.3,0.3,0.5c0.1,0.1,0.2,0.2,0.2,0.3c0.1,0.2,0.2,0.3,0.2,0.5
		c0.1,0.1,0.1,0.2,0.2,0.3c0.1,0.2,0.1,0.4,0.2,0.5c0,0.1,0.1,0.2,0.1,0.3c0.1,0.3,0.1,0.5,0.2,0.8c0.3,2.2-0.9,8.4-2.6,16.1
		c-0.8,3.8-1.8,8-2.7,12.1c-0.3,1.6-0.7,3.1-1,4.7c-0.6,2.6-1.1,5.1-1.6,7.6c-0.2,1-0.5,1.9-0.8,2.8c-0.3,0.9-0.7,1.8-1.1,2.7
		c-0.4,0.9-0.9,1.7-1.4,2.6c-2.1,3.4-4.7,6.4-7.4,9c-1,1-2,1.9-2.9,2.8c-0.3,0.3-0.6,0.6-0.9,0.9c-0.5,0.4-0.9,0.8-1.4,1.3
		c-0.4,0.4-0.8,0.8-1.2,1.2c-0.5,0.5-1,1-1.5,1.4c-0.8,0.8-1.4,1.5-1.8,2.1c-0.7,1.1-1,1.9-0.5,2.6c0.4,0.6,1.6,1.3,3.3,1.9
		c0.6,0.2,1.2,0.4,1.9,0.6c1.1,0.3,2.4,0.7,3.8,1c0.9,0.2,1.9,0.4,2.8,0.6c1,0.2,2,0.4,3,0.6c0.9,0.2,1.9,0.4,2.8,0.5
		c8.2,1.5,16,2.5,16,2.5c0.4-1,0.7-1.9,1.1-2.9c0.7-1.9,1.4-3.7,2-5.5c0.3-0.9,0.6-1.7,0.9-2.6c1.5-4.3,2.8-8.2,3.8-11.8
		c0.4-1.4,0.8-2.8,1.2-4.2c0.5-2,1-3.9,1.4-5.7c0.5-2.4,1-4.6,1.3-6.7c0.2-1,0.3-2,0.4-3c0.2-1.4,0.3-2.8,0.4-4.1
		c0.1-0.8,0.1-1.7,0.1-2.4c0-0.4,0-0.8,0-1.1c0-1.5-0.1-2.9-0.2-4.1c0-0.3-0.1-0.6-0.1-0.9c-0.1-0.9-0.3-1.8-0.5-2.6
		c-0.2-0.8-0.4-1.6-0.6-2.3c-0.1-0.2-0.2-0.5-0.2-0.7c-0.7-1.9-1.5-3.6-2.3-5.1c-0.2-0.5-0.5-0.9-0.7-1.3c-0.1-0.2-0.2-0.3-0.3-0.5
		c-0.2-0.3-0.4-0.7-0.6-1c-0.5-0.8-0.9-1.6-1.3-2.5c-0.1-0.3-0.3-0.7-0.4-1c-0.3-0.9-0.6-1.8-0.7-2.8c-0.1-0.4-0.1-0.8-0.2-1.2
		c-0.6-2.3-1.6-4.3-2.9-6c-0.4-0.6-0.9-1.1-1.4-1.7C253,2.3,244.6,0,244.6,0s-15.3,0.2-30.3,0.3c-1.3,0-2.5,0-3.7,0
		c-0.8,0-1.7,0-2.5,0c-3.3,0-6.4,0.1-9.3,0.1c-1.8,0-3.5,0-5,0c-0.6,0-1.2,0-1.7,0c-2.2,0-4,0-5.2,0c-2.2,0-4.3,0.4-6.2,1
		c-0.6,0.2-1.2,0.4-1.8,0.7c-0.5,0.2-0.9,0.4-1.3,0.7c-0.9,0.5-1.7,1-2.4,1.6c-0.7,0.6-1.4,1.2-1.9,1.9c-1.7,2-2.7,4.2-2.7,6.3
		c0,5.5-11,17.7-11,17.7C158.1,35.8,159.3,45.9,161.4,56.2z"/>
</g>
</svg>
