<?xml version="1.0" encoding="utf-8"?>
<!-- Generator: Adobe Illustrator 21.1.0, SVG Export Plug-In . SVG Version: 6.00 Build 0)  -->
<!DOCTYPE svg PUBLIC "-//W3C//DTD SVG 1.1//EN" "http://www.w3.org/Graphics/SVG/1.1/DTD/svg11.dtd">
<svg version="1.1" id="Layer_1" xmlns="http://www.w3.org/2000/svg" xmlns:xlink="http://www.w3.org/1999/xlink" x="0px" y="0px"
	 viewBox="0 0 432 432" style="enable-background:new 0 0 432 432;" xml:space="preserve">
<style type="text/css">
	.Drop_x0020_Shadow{fill:none;}
	.Round_x0020_Corners_x0020_2_x0020_pt{fill:#FFFFFF;stroke:#231F20;stroke-miterlimit:10;}
	.Live_x0020_Reflect_x0020_X{fill:none;}
	.Bevel_x0020_Soft{fill:url(#SVGID_1_);}
	.Dusk{fill:#FFFFFF;}
	.Foliage_GS{fill:#FFDD00;}
	.Pompadour_GS{fill-rule:evenodd;clip-rule:evenodd;fill:#44ADE2;}
	.st0{fill:#FFFFFF;}
</style>
<linearGradient id="SVGID_1_" gradientUnits="userSpaceOnUse" x1="216" y1="216" x2="216.7071" y2="216.7071">
	<stop  offset="0" style="stop-color:#DEDFE3"/>
	<stop  offset="0.1783" style="stop-color:#DADBDF"/>
	<stop  offset="0.3611" style="stop-color:#CECFD3"/>
	<stop  offset="0.546" style="stop-color:#B9BCBF"/>
	<stop  offset="0.7324" style="stop-color:#9CA0A2"/>
	<stop  offset="0.9181" style="stop-color:#787D7E"/>
	<stop  offset="1" style="stop-color:#656B6C"/>
</linearGradient>
<g id="uiQVbC_1_">
	<g>
		<path class="st0" d="M231.8,432c-21.3-2.5-42.9-4-64-7.9c-12.1-2.2-23.5-8.1-35-12.9c-11.6-4.9-22.9-10.8-34.4-15.9
			c-4.2-1.9-5.4-4.7-4.8-9c3.9-26.5,8-53,11.5-79.6c3.3-25.2,7.3-50.4,8.5-75.8c1.7-33.9,1.1-68,1.4-102c0.1-9.4,1.6-18,7.7-25.9
			c9-11.6,12-25.5,12.7-39.9c0.8-16.5-0.9-32.8-6.1-48.6c-1.2-3.5,0-5.4,3.2-6.9c2.8-1.3,5.6-2.6,8-4.4c6-4.6,8.4-4.3,13.8,1.7
			c10.5,11.9,23.4,20,39.2,22.6c19.3,3.2,38.7,4.7,58.1,0.8c14.1-2.8,26.1-9.1,33.8-21.9c2.5-4.3,5.3-5.1,9.5-2.1
			c2.2,1.6,4.8,2.7,7.4,3.3c4.9,1.2,5.6,3.6,4.3,8.2c-7.5,25.7-6.3,51.4,2,76.6c2.3,7,7,13.3,10.2,20c1.6,3.5,3.4,7.3,3.5,11
			c0.1,15-0.6,30.1-0.8,45.1c-0.2,14.4-0.5,28.8,0.1,43.1c1.5,38,1.7,76.1,7.8,113.9c3.5,21.8,6.1,43.6,9.1,65.5
			c0.6,4.7-1.8,9.4-7.3,11.7c-17.3,7.2-34.8,14.1-52.3,21c-15.1,5.9-30.9,7-46.8,7.2C231.9,431.2,231.9,431.6,231.8,432z"/>
	</g>
</g>
</svg>
