<?xml version="1.0" encoding="utf-8"?>
<!-- Generator: Adobe Illustrator 21.1.0, SVG Export Plug-In . SVG Version: 6.00 Build 0)  -->
<!DOCTYPE svg PUBLIC "-//W3C//DTD SVG 1.1//EN" "http://www.w3.org/Graphics/SVG/1.1/DTD/svg11.dtd">
<svg version="1.1" id="Layer_1" xmlns="http://www.w3.org/2000/svg" xmlns:xlink="http://www.w3.org/1999/xlink" x="0px" y="0px"
	 viewBox="0 0 432 432" style="enable-background:new 0 0 432 432;" xml:space="preserve">
<style type="text/css">
	.Drop_x0020_Shadow{fill:none;}
	.Round_x0020_Corners_x0020_2_x0020_pt{fill:#FFFFFF;stroke:#231F20;stroke-miterlimit:10;}
	.Live_x0020_Reflect_x0020_X{fill:none;}
	.Bevel_x0020_Soft{fill:url(#SVGID_1_);}
	.Dusk{fill:#FFFFFF;}
	.Foliage_GS{fill:#FFDD00;}
	.Pompadour_GS{fill-rule:evenodd;clip-rule:evenodd;fill:#44ADE2;}
	.st0{fill:#FFFFFF;}
</style>
<linearGradient id="SVGID_1_" gradientUnits="userSpaceOnUse" x1="216" y1="216" x2="216.7071" y2="216.7071">
	<stop  offset="0" style="stop-color:#DEDFE3"/>
	<stop  offset="0.1783" style="stop-color:#DADBDF"/>
	<stop  offset="0.3611" style="stop-color:#CECFD3"/>
	<stop  offset="0.546" style="stop-color:#B9BCBF"/>
	<stop  offset="0.7324" style="stop-color:#9CA0A2"/>
	<stop  offset="0.9181" style="stop-color:#787D7E"/>
	<stop  offset="1" style="stop-color:#656B6C"/>
</linearGradient>
<g id="SoMaRd_1_">
	<g>
		<path class="st0" d="M320.5,168.6c-0.1,2.1-0.3,4.2-0.3,6.3c0,13.3,0.1,26.6,0,39.9c-0.3,55.8-0.6,111.5-1.2,167.3
			c-0.1,14.2-1.3,28.3-2.2,42.5c-0.4,7.1-1.2,7.6-8,7.3c-25.8-1.4-51.6-3.1-77.4-4.2c-12.9-0.6-25.8-0.2-38.7-0.1
			c-5.7,0.1-11.5,1-17.2,1c-10-0.1-20-0.8-30-0.9c-14.6-0.2-29.2-0.2-43.7,0c-4.3,0-6.4-1.3-6.3-5.8c0.2-15.6,0-31.3,0.6-46.9
			c0.5-12.7,2.3-25.4,2.7-38.1c1.3-37.7,2.2-75.4,3.4-113.2c0.4-13.5,1.4-26.9,2.1-40.4c0.1-1.9-0.2-3.8-0.3-7.4
			c-5.4,4.1-9.6,7.6-14,10.7c-4.5,3.2-9.3,6-13.9,9c-3.1,2-5.4,1.3-8-1.3c-12.7-12.2-25.4-24.4-38.4-36.3
			c-6-5.4-12.4-10.4-18.9-15.2c-3.4-2.5-4.4-4.3-1.2-8C23.1,119.4,36.5,103.6,50,88c13.1-15,26-30.3,39.5-44.9
			c4.1-4.4,9.8-7.8,15.4-10.4c19.7-9.2,39.6-18.1,59.6-26.4C175,2,185.3-2.4,197.7,1.6C211.9,6.2,227,5.9,241.4,2
			c11-3,20,0.5,29.4,4.6c17.4,7.7,34.8,15.6,52.4,23c10.3,4.3,18.1,11.3,25.2,19.7c18.7,22.1,37.9,43.7,56.9,65.5
			c5.8,6.6,11.6,13.2,17.7,19.6c2.5,2.6,2.3,4.4-0.2,6.7c-8.7,7.5-17.5,15-26.1,22.5c-11.2,9.8-22.5,19.6-33.5,29.6
			c-6.8,6.2-6.6,5.9-12.9-0.3c-8.9-8.8-18.6-16.8-27.9-25.1C321.6,168,321,168.3,320.5,168.6z"/>
	</g>
</g>
</svg>
