<?xml version="1.0" encoding="utf-8"?>
<!-- Generator: Adobe Illustrator 21.1.0, SVG Export Plug-In . SVG Version: 6.00 Build 0)  -->
<!DOCTYPE svg PUBLIC "-//W3C//DTD SVG 1.1//EN" "http://www.w3.org/Graphics/SVG/1.1/DTD/svg11.dtd">
<svg version="1.1" id="Layer_1" xmlns="http://www.w3.org/2000/svg" xmlns:xlink="http://www.w3.org/1999/xlink" x="0px" y="0px"
	 viewBox="0 0 216 186.2" enable-background="new 0 0 216 186.2" xml:space="preserve">
<g>
	<path fill="#D94828" d="M183.9,27C163.6,9.8,136.7,0.2,108.1,0.2C79.5,0.2,52.5,9.8,32.2,27C11.5,44.7,0.1,68.2,0.1,93.3
		c0,20.1,7.2,39.2,21,55.2c-0.5,2.7-0.6,5.3-0.2,7.9c1,6.8,5,12.5,10.5,15.5l-0.1,2.7l-0.2,4.3l-0.3,6.4l6.4-0.9l4.2-0.6l26.8-3.8
		c12.7,4.3,26.1,6.5,39.9,6.5c25.8,0,50.6-7.9,70.1-22.2l11.7-1.7c8.3-1.2,13.2-7.1,13.2-15.8l0-9.1c8.5-13.5,13-28.8,13-44.3
		C216.1,68.2,204.7,44.7,183.9,27z M210.6,98.2c-0.1,1.3-0.2,2.5-0.3,3.7c0,0.2-0.1,0.5-0.1,0.7c-0.1,1-0.3,2-0.4,3.1
		c-0.1,0.4-0.1,0.8-0.2,1.2c-0.2,1.1-0.4,2.2-0.7,3.3c-0.1,0.5-0.2,0.9-0.3,1.4c-0.2,0.7-0.4,1.4-0.6,2.1c-0.2,0.6-0.3,1.1-0.5,1.7
		c-0.3,1-0.6,1.9-0.9,2.8c-0.2,0.7-0.5,1.3-0.7,2c-0.2,0.4-0.3,0.8-0.5,1.2c-0.9,2.3-2,4.7-3.1,6.9c-0.1,0.2-0.2,0.3-0.2,0.5
		c-1.3,2.4-2.6,4.8-4.2,7.1l0,10.6c0,1-0.1,1.8-0.2,2.6c-0.1,0.5-0.2,1-0.4,1.5c-0.1,0.4-0.3,0.8-0.5,1.2c-1.3,2.9-3.7,4.3-6.1,4.9
		c-0.5,0.1-1,0.2-1.5,0.3l-13.1,1.9c-5.7,4.4-12,8.1-18.6,11.2c-0.2,0.1-0.3,0.2-0.5,0.2c-1.1,0.5-2.1,1-3.2,1.4
		c-0.4,0.2-0.7,0.3-1.1,0.5c-1,0.4-2,0.8-2.9,1.2c-0.5,0.2-1,0.4-1.4,0.5c-0.9,0.3-1.9,0.7-2.8,1c-0.6,0.2-1.1,0.4-1.7,0.6
		c-0.9,0.3-1.8,0.5-2.7,0.8c-0.6,0.2-1.3,0.4-1.9,0.5c-0.9,0.2-1.7,0.5-2.6,0.7c-0.7,0.2-1.4,0.3-2.1,0.5c-0.8,0.2-1.6,0.4-2.5,0.5
		c-0.8,0.2-1.5,0.3-2.3,0.4c-0.8,0.1-1.6,0.3-2.4,0.4c-0.8,0.1-1.7,0.2-2.5,0.4c-0.8,0.1-1.5,0.2-2.3,0.3c-0.9,0.1-1.8,0.2-2.7,0.3
		c-0.7,0.1-1.4,0.1-2.1,0.2c-1,0.1-2.1,0.1-3.2,0.2c-0.6,0-1.1,0.1-1.7,0.1c-1.6,0.1-3.2,0.1-4.8,0.1c0,0,0,0-0.1,0
		c-1.7,0-3.4,0-5.1-0.1c-0.2,0-0.4,0-0.6,0c-1.5-0.1-3-0.2-4.5-0.3c-0.2,0-0.4,0-0.5-0.1c-1.5-0.1-3-0.3-4.5-0.5c-0.1,0-0.2,0-0.3,0
		c-1.6-0.2-3.1-0.4-4.7-0.7c0,0,0,0,0,0c-6.6-1.1-13-2.8-19.1-5l-28.1,4l-4.2,0.6l0.2-4.1l0-0.2l0.1-3.4c0-0.5,0.1-1,0.2-1.5
		c0,0,0-0.1,0-0.1c0.1-0.5,0.3-0.9,0.5-1.3c-0.7-0.1-1.4-0.4-2.1-0.6c0,0-0.1,0-0.1,0c-0.7-0.3-1.3-0.6-1.9-0.9c0,0-0.1,0-0.1,0
		c-1.2-0.7-2.4-1.7-3.4-2.8c0,0,0,0,0,0c-0.5-0.5-0.9-1.1-1.3-1.7c0-0.1-0.1-0.1-0.1-0.2c-0.4-0.6-0.7-1.2-1-1.8
		c0-0.1-0.1-0.2-0.1-0.3c-0.3-0.6-0.5-1.3-0.7-2c0-0.1,0-0.2-0.1-0.3c-0.2-0.7-0.4-1.4-0.5-2.2c-0.1-0.7-0.2-1.4-0.2-2.1
		c0-2.1,0.3-4.2,1-6.4c0-0.1,0-0.1,0.1-0.1c-5.1-5.6-9.4-11.7-12.7-18.1c-0.1-0.2-0.2-0.5-0.4-0.7c-0.4-0.9-0.9-1.7-1.3-2.6
		c-0.2-0.3-0.3-0.7-0.5-1c-0.4-0.8-0.7-1.7-1.1-2.5c-0.2-0.4-0.3-0.8-0.4-1.1c-0.3-0.8-0.6-1.7-0.9-2.5c-0.1-0.3-0.2-0.6-0.3-0.9
		c-0.5-1.5-0.9-2.9-1.3-4.4c-0.2-0.7-0.4-1.3-0.5-2c-0.1-0.6-0.3-1.2-0.4-1.8c-0.2-0.7-0.3-1.4-0.4-2.2c-0.1-0.6-0.2-1.2-0.3-1.8
		c-0.1-0.8-0.2-1.6-0.3-2.3c-0.1-0.5-0.1-1.1-0.2-1.6c-0.1-0.9-0.2-1.8-0.2-2.7c0-0.5-0.1-0.9-0.1-1.4c-0.1-1.3-0.1-2.7-0.1-4
		c0,0,0,0,0,0c0-8.5,1.4-16.7,4.1-24.6c0.6-1.7,1.2-3.4,1.9-5.1c1.1-2.7,2.4-5.3,3.8-7.9c1.1-2.1,2.4-4.1,3.8-6.1
		c2-3,4.2-5.9,6.6-8.6c3-3.5,6.4-6.8,10-9.9c6.1-5.1,12.7-9.6,19.9-13.2c4.3-2.2,8.7-4.1,13.3-5.7c1.5-0.5,3.1-1,4.6-1.5
		c2.8-0.9,5.7-1.6,8.6-2.2c0.6-0.1,1.1-0.2,1.7-0.4c3-0.6,6-1.1,9-1.5c5-0.6,10-0.9,15.2-0.9h0c5.1,0,10.2,0.3,15.2,0.9
		c6.6,0.8,13.1,2.2,19.4,4.1c1.6,0.5,3.1,1,4.6,1.5c6.1,2.2,12,4.8,17.6,8c4.2,2.4,8.2,5,11.9,7.9c1.3,1,2.5,2,3.7,3
		c8.5,7.3,15.4,15.6,20.4,24.6c1.4,2.6,2.7,5.2,3.8,7.9c1.1,2.7,2.1,5.4,2.9,8.2c1.2,4.2,2.1,8.4,2.6,12.8c0.3,2.9,0.5,5.8,0.5,8.8
		c0,1.3,0,2.6-0.1,3.9C210.6,97.5,210.6,97.9,210.6,98.2z"/>
	<path fill="#D94828" d="M40.3,150.9c-0.3,0.6-0.4,1.2-0.5,1.7c0,0.2,0,0.5,0.1,0.8c0.3,1.9,1.7,2,2.1,2c0.1,0,0.2,0,0.4,0
		c0.9-0.1,1.7-0.6,2.3-1.1c-0.5-0.4-1-0.7-1.5-1.1l-1,0.7l0-1.5C41.5,151.9,40.9,151.4,40.3,150.9z"/>
	<path fill="#D94828" d="M108.4,174.7c-8.2,0-16.2-0.9-23.8-2.5l-8.5,1.2c10.1,2.9,20.8,4.5,32.1,4.5c23,0,44.2-6.7,61-17.8
		l-7.5,1.1C146.4,169.7,128.1,174.7,108.4,174.7z"/>
	<path fill="#D94828" d="M53.5,163.1l3.1-0.4c-0.5-0.4-1.1-0.9-1.5-1.5C54.7,161.8,54.1,162.4,53.5,163.1z"/>
	<path fill="#D94828" d="M108.1,8.8C53.1,8.8,8.6,46.6,8.6,93.3c0,19,7.3,36.5,19.7,50.6c0.6-1,1.2-2,1.9-2.9
		c-1-1.1-1.9-2.3-2.8-3.4c-2.4-3.1-0.1-7.6,3.8-7.6h74.1l1-0.1l9.2-1.3l3.8-0.5c0.3-0.1,0.6-0.1,0.9-0.2c0.5-0.1,1.1-0.1,1.6-0.1h0
		c2.1,0,4,0.6,5.6,1.8c0.2,0.2,0.4,0.3,0.6,0.5h4.1c2.5-2.5,5.1-3.9,6.6-4.5l0-0.3l1.3-0.2l0.6-0.2l-1.8-2.7
		c2.3-1.7,1.7-3.9,1.1-6.5l-3.4-16.9l-2.3,1.3v13.4c0,5.2,0.6,6.9,2.9,8.7l-2.3,3.5h-14.8l-2.3-3.5c2.3-1.7,2.8-3.5,2.8-8.7V75.3
		c0-5.2-0.6-6.9-2.8-8.7l2.3-3.5h26.8l9.1,6.9c-1.1,0.9-2.3,5.2-2.3,10.4s0.6,9.5,1.7,10.4l-6.3,3l4.6,19.5c1.4,6.1,2.3,7.4,4.6,8.7
		l-0.2,0.3l2.4-0.3l4.1-0.6l0.9-0.1c1.8-1.5,3-3.5,3-7.9V69.3l-1.1-0.9c-2.3,2.6-2.8,6.9-2.8,13.9v2.6h-6.8V63.2h35.3v21.7H186v-2.6
		c0-6.9-0.6-11.3-2.8-13.9l-1.1,0.9v44.2c0,2.5,0.4,4.1,1,5.4l0.1,0l4.1-0.6l6.5-0.9l4.1-0.6l0,4.1l0,9.1
		c6.3-11.1,9.8-23.5,9.8-36.6C207.5,46.6,163,8.8,108.1,8.8z M47.5,125.6H25.3v-25.1h7.4c1.1,14.7,2.9,19.1,5.1,19.1
		c1.7,0,2.9-1.7,2.9-5.2V103c0-2.2-1.1-4.3-3.4-6.1l-11.4-8.7v-9.5c0-5.2-1.1-7.8-2.3-8.7l9.1-6.9h21.1v19.1h-6.8
		c-1.7-10-2.8-13-5.1-13c-1.7,0-2.3,1.7-2.3,5.2v5.2c0,2.2,1.1,4.3,3.4,6.1l11.4,8.7V110c0,5.2,1.1,7.8,2.3,8.7L47.5,125.6z
		 M96,122.1l-2.3,3.5H79.4l-2.3-3.5c2.3-1.7,2.3-3.5,2.3-8.7V94.4h-5.7v19.1c0,5.2,0,6.9,2.3,8.7l-2.3,3.5H59.5l-2.3-3.5
		c2.3-1.7,2.8-3.5,2.8-8.7V75.3c0-5.2-0.6-6.9-2.8-8.7l2.3-3.5h14.3l2.3,3.5c-2.3,1.7-2.3,3.5-2.3,8.7v13h5.7v-13
		c0-5.2,0-6.9-2.3-8.7l2.3-3.5h14.3l2.3,3.5c-2.3,1.7-2.9,3.5-2.9,8.7v38.1C93.1,118.6,93.7,120.4,96,122.1z M116.5,122.1l-2.3,3.5
		H99.4l-2.3-3.5c2.3-1.7,2.9-3.5,2.9-8.7V75.3c0-5.2-0.6-6.9-2.9-8.7l2.3-3.5h14.8l2.3,3.5c-2.3,1.7-2.8,3.5-2.8,8.7v38.1
		C113.6,118.6,114.2,120.4,116.5,122.1z M187,59.8H29.7c-3.8,0-6.1-4.3-3.9-7.5c16.8-23.5,47.5-39.3,82.5-39.3
		c35,0,65.7,15.7,82.5,39.3C193.1,55.4,190.9,59.8,187,59.8z"/>
	<path fill="#D94828" d="M134.1,70.1v21.7c0,0.4,0.6,0.9,1.1,0.9c1.7,0,5.1-3.5,5.1-11.7s-3.4-11.7-5.1-11.7
		C134.7,69.3,134.1,69.7,134.1,70.1z"/>
	<path fill="#D94828" d="M40.7,165.2c-0.3,0-0.5,0-0.8,0c0.2,0,0.4,0,0.6,0C40.5,165.2,40.6,165.2,40.7,165.2z"/>
	<path fill="#D94828" d="M45.6,164.2c0.4-0.2,0.9-0.4,1.3-0.6C46.5,163.9,46,164.1,45.6,164.2L45.6,164.2z"/>
	<path fill="#D94828" d="M46.9,163.7c0.8-0.4,1.5-0.9,2.2-1.3C48.4,162.8,47.7,163.3,46.9,163.7z"/>
	<path fill="#D94828" d="M36.3,153.2c0,0.2,0,0.4,0.1,0.7c0,0,0,0,0,0c0,0,0,0,0,0C36.3,153.7,36.3,153.5,36.3,153.2z"/>
	<path fill="#D94828" d="M53,157.9c-0.1,0.2-0.2,0.4-0.4,0.6C52.8,158.3,52.9,158.1,53,157.9C53,157.9,53,157.9,53,157.9z"/>
	<polygon fill="#D94828" points="52.5,156.5 51.2,154.6 52.5,156.5 	"/>
	<polygon fill="#D94828" points="67.4,142.5 68,139.1 67.4,142.5 	"/>
	<path fill="#D94828" d="M65.6,138.8c0,0,0.1,0,0.1,0C65.7,138.8,65.7,138.8,65.6,138.8C65.6,138.8,65.6,138.8,65.6,138.8z"/>
	<path fill="#D94828" d="M61.7,149.5c-0.1,0.4-0.1,0.8-0.2,1.2C61.6,150.3,61.6,149.9,61.7,149.5c0.1-0.3,0.2-0.7,0.3-1
		C61.9,148.8,61.8,149.2,61.7,149.5z"/>
	<path fill="#D94828" d="M98.3,134.3c-0.2,0-0.4,0-0.6,0c0.3,0,0.5,0,0.8,0C98.5,134.3,98.4,134.3,98.3,134.3z"/>
	<polygon fill="#D94828" points="76.7,143.8 76.8,137.6 76.7,143.8 	"/>
	<path fill="#D94828" d="M92.4,137.6c-0.4-0.4-0.8-0.6-1.2-0.9C91.6,137,92,137.3,92.4,137.6z"/>
	<path fill="#D94828" d="M86.1,141.1c-0.2,0-0.4,0.1-0.6,0.2C85.7,141.1,85.9,141.1,86.1,141.1c0.1,0,0.2,0,0.3,0
		C86.3,141,86.2,141,86.1,141.1z"/>
	<polygon fill="#D94828" points="84.3,136.5 76.8,137.6 84.3,136.5 	"/>
	<polygon fill="#D94828" points="77.6,159.2 77.6,159.2 84.1,158.3 	"/>
	<polygon fill="#D94828" points="103.9,150.6 103.9,150.6 105.5,150.4 	"/>
	<path fill="#D94828" d="M96.1,139.6c-0.1,0-0.2,0-0.3,0.1C95.9,139.6,96,139.6,96.1,139.6c0.1,0,0.2,0,0.3,0
		C96.3,139.6,96.2,139.6,96.1,139.6z"/>
	<path fill="#D94828" d="M87.3,135.9c0.3,0,0.6,0,1,0c-0.1,0-0.2,0-0.3,0C87.8,135.8,87.6,135.8,87.3,135.9z"/>
	<polygon fill="#D94828" points="94,156.9 94.3,143.3 94,156.9 87.8,157.7 	"/>
	<polygon fill="#D94828" points="77.9,143.6 76.9,143.8 77.9,143.6 77.6,158.9 	"/>
	<polygon fill="#D94828" points="150.1,142.8 150.1,142.8 150.6,142.8 	"/>
	<path fill="#D94828" d="M138,145.3C138,145.3,138,145.3,138,145.3c0.2,0,0.4-0.1,0.6-0.2C138.4,145.2,138.2,145.2,138,145.3
		C138,145.3,138,145.3,138,145.3z"/>
	<path fill="#D94828" d="M136.2,141.5c0.2-0.8,0.6-1.8,1.2-2.7c0.3-0.4,0.5-0.8,0.8-1.2c-0.3,0.4-0.6,0.8-0.8,1.2
		C136.8,139.8,136.4,140.7,136.2,141.5z"/>
	<polygon fill="#D94828" points="142.1,130.9 140.7,128.5 142.1,130.9 	"/>
	<path fill="#D94828" d="M146.5,149.4C146.5,149.4,146.5,149.4,146.5,149.4l4.1-0.6l0-0.2v0l0,0.2L146.5,149.4
		C146.5,149.4,146.5,149.4,146.5,149.4z"/>
	<polygon fill="#D94828" points="148.3,141.7 148.3,141.7 148.3,141.7 148.6,127.3 	"/>
	<path fill="#D94828" d="M136.5,151.1C136.5,151.1,136.5,151.1,136.5,151.1c-0.4,0-0.8,0-1.2-0.1
		C135.7,151.1,136.1,151.1,136.5,151.1z"/>
	<path fill="#D94828" d="M130.6,147.2c0.1,0.3,0.3,0.7,0.5,1C130.9,147.8,130.8,147.5,130.6,147.2
		C130.6,147.2,130.6,147.2,130.6,147.2z"/>
	<path fill="#D94828" d="M145.1,149.4c0,0,0.1,0,0.1,0c0,0,0,0,0.1,0C145.3,149.4,145.2,149.4,145.1,149.4z"/>
	<polygon fill="#D94828" points="152.8,133 152.8,133 153.1,126.7 	"/>
	<path fill="#D94828" d="M115.8,154.2c0-1,0-2,0-3l0,0C115.8,152.2,115.8,153.2,115.8,154.2L115.8,154.2z"/>
	<path fill="#D94828" d="M126.9,146.8c-0.2,0.4-0.4,0.8-0.7,1.1c-0.3,0.5-0.7,0.9-1,1.3c0.4-0.4,0.7-0.8,1-1.3
		C126.4,147.5,126.7,147.2,126.9,146.8z"/>
	<polygon fill="#D94828" points="115.9,133.5 116,132 116,132 	"/>
	<polygon fill="#D94828" points="109.7,139 106.8,139.4 109.7,139 	"/>
	<path fill="#D94828" d="M121.8,131.3C121.8,131.3,121.8,131.2,121.8,131.3c-0.4,0-0.8,0-1.2,0.1c-0.4,0.1-0.9,0.2-1.3,0.3
		c0.4-0.1,0.9-0.2,1.3-0.3C121.1,131.3,121.4,131.2,121.8,131.3z"/>
	<polygon fill="#D94828" points="108.2,158.9 108.1,165.2 40.2,174.9 108.1,165.2 	"/>
	<polygon fill="#D94828" points="175.6,129.7 175.6,129.7 177.1,129.4 	"/>
	<path fill="#D94828" d="M193.8,149.9c0.3-0.9,0.4-2,0.4-3.2l0.1-25.8l-0.1,25.8C194.2,147.9,194.1,149,193.8,149.9z"/>
	<path fill="#D94828" d="M183.4,144.2c0.3,0,0.5,0,0.7,0C183.9,144.2,183.6,144.2,183.4,144.2C183.3,144.2,183.3,144.2,183.4,144.2z
		"/>
	<path fill="#D94828" d="M186.9,138.8c-0.1,0.3-0.3,0.5-0.4,0.6C186.6,139.2,186.7,139,186.9,138.8z"/>
	<path fill="#D94828" d="M186.9,138.8c0.2-0.4,0.3-0.8,0.3-1.4l0.1-15.5l-0.1,15.5C187.1,138,187,138.4,186.9,138.8z"/>
	<polygon fill="#D94828" points="175.7,126.6 175.8,123.5 183.7,122.3 175.8,123.5 	"/>
</g>
<g>
	<path fill="#F4F4F4" d="M210.2,84.6c-0.5-4.3-1.4-8.6-2.6-12.8c-0.8-2.8-1.8-5.5-2.9-8.2c-1.1-2.7-2.4-5.3-3.8-7.9
		c-5-9-11.9-17.3-20.4-24.6c-1.2-1-2.4-2-3.7-3c-3.8-2.9-7.8-5.6-11.9-7.9c-5.6-3.2-11.4-5.8-17.6-8c-1.5-0.5-3.1-1-4.6-1.5
		c-6.3-1.9-12.7-3.3-19.4-4.1c-5-0.6-10-0.9-15.2-0.9h0c-5.1,0-10.2,0.3-15.2,0.9c-3.1,0.4-6.1,0.9-9,1.5c-0.6,0.1-1.1,0.2-1.7,0.4
		c-2.9,0.6-5.8,1.4-8.6,2.2c-1.6,0.5-3.1,1-4.6,1.5c-4.6,1.6-9.1,3.5-13.3,5.7c-7.1,3.6-13.8,8.1-19.9,13.2c-3.7,3.1-7,6.4-10,9.9
		c-2.4,2.8-4.6,5.7-6.6,8.6c-1.3,2-2.6,4-3.8,6.1c-1.4,2.6-2.7,5.2-3.8,7.9c-0.7,1.7-1.3,3.4-1.9,5.1c-2.7,7.9-4.1,16.2-4.1,24.6
		c0,0,0,0,0,0c0,1.4,0,2.7,0.1,4c0,0.5,0.1,0.9,0.1,1.4c0.1,0.9,0.1,1.8,0.2,2.7c0.1,0.5,0.1,1.1,0.2,1.6c0.1,0.8,0.2,1.6,0.3,2.3
		c0.1,0.6,0.2,1.2,0.3,1.8c0.1,0.7,0.3,1.5,0.4,2.2c0.1,0.6,0.3,1.2,0.4,1.8c0.2,0.7,0.3,1.3,0.5,2c0.4,1.5,0.8,3,1.3,4.4
		c0.1,0.3,0.2,0.6,0.3,0.9c0.3,0.8,0.6,1.7,0.9,2.5c0.1,0.4,0.3,0.8,0.4,1.1c0.3,0.8,0.7,1.7,1.1,2.5c0.1,0.3,0.3,0.7,0.5,1
		c0.4,0.9,0.8,1.8,1.3,2.6c0.1,0.2,0.2,0.5,0.4,0.7c3.3,6.4,7.6,12.5,12.7,18.1c0,0.1,0,0.1-0.1,0.1c-0.7,2.1-1,4.3-1,6.4
		c0,0.7,0.1,1.4,0.2,2.1c0.1,0.8,0.3,1.5,0.5,2.2c0,0.1,0,0.2,0.1,0.3c0.2,0.7,0.5,1.3,0.7,2c0,0.1,0.1,0.2,0.1,0.3
		c0.3,0.6,0.6,1.2,1,1.8c0,0.1,0.1,0.1,0.1,0.2c0.4,0.6,0.8,1.1,1.3,1.7c0,0,0,0,0,0c1,1.1,2.1,2,3.4,2.8c0,0,0.1,0,0.1,0
		c0.6,0.4,1.2,0.7,1.9,0.9c0,0,0.1,0,0.1,0c0.7,0.3,1.4,0.5,2.1,0.6c-0.2,0.4-0.4,0.8-0.5,1.3c0,0,0,0.1,0,0.1
		c-0.1,0.5-0.2,1-0.2,1.5l-0.1,3.4l0,0.2l-0.2,4.1l4.2-0.6l28.1-4c6.1,2.2,12.5,3.8,19.1,5c0,0,0,0,0,0c1.5,0.3,3.1,0.5,4.7,0.7
		c0.1,0,0.2,0,0.3,0c1.5,0.2,3,0.3,4.5,0.5c0.2,0,0.4,0,0.5,0.1c1.5,0.1,3,0.2,4.5,0.3c0.2,0,0.4,0,0.6,0c1.7,0.1,3.4,0.1,5.1,0.1
		c0,0,0,0,0.1,0c1.6,0,3.2,0,4.8-0.1c0.6,0,1.1-0.1,1.7-0.1c1.1-0.1,2.1-0.1,3.2-0.2c0.7-0.1,1.4-0.1,2.1-0.2
		c0.9-0.1,1.8-0.2,2.7-0.3c0.8-0.1,1.5-0.2,2.3-0.3c0.8-0.1,1.7-0.2,2.5-0.4c0.8-0.1,1.6-0.3,2.4-0.4c0.8-0.1,1.5-0.3,2.3-0.4
		c0.8-0.2,1.6-0.4,2.5-0.5c0.7-0.2,1.4-0.3,2.1-0.5c0.9-0.2,1.7-0.4,2.6-0.7c0.6-0.2,1.3-0.4,1.9-0.5c0.9-0.3,1.8-0.5,2.7-0.8
		c0.6-0.2,1.1-0.4,1.7-0.6c0.9-0.3,1.9-0.6,2.8-1c0.5-0.2,1-0.4,1.4-0.5c1-0.4,2-0.8,2.9-1.2c0.4-0.2,0.7-0.3,1.1-0.5
		c1.1-0.5,2.1-0.9,3.2-1.4c0.2-0.1,0.3-0.2,0.5-0.2c6.6-3.1,12.8-6.8,18.6-11.2l13.1-1.9c0.5-0.1,1-0.2,1.5-0.3
		c2.4-0.6,4.8-2,6.1-4.9c0.2-0.4,0.3-0.8,0.5-1.2c0.1-0.5,0.3-1,0.4-1.5c0.1-0.8,0.2-1.7,0.2-2.6l0-10.6c1.5-2.3,2.9-4.7,4.2-7.1
		c0.1-0.2,0.2-0.3,0.2-0.5c1.2-2.3,2.2-4.6,3.1-6.9c0.2-0.4,0.3-0.8,0.5-1.2c0.3-0.7,0.5-1.3,0.7-2c0.3-0.9,0.6-1.9,0.9-2.8
		c0.2-0.6,0.3-1.1,0.5-1.7c0.2-0.7,0.4-1.4,0.6-2.1c0.1-0.5,0.2-0.9,0.3-1.4c0.3-1.1,0.5-2.2,0.7-3.3c0.1-0.4,0.1-0.8,0.2-1.2
		c0.2-1,0.3-2,0.4-3.1c0-0.2,0.1-0.5,0.1-0.7c0.1-1.2,0.2-2.5,0.3-3.7c0-0.3,0-0.6,0.1-1c0.1-1.3,0.1-2.6,0.1-3.9
		C210.7,90.4,210.6,87.5,210.2,84.6z M29.6,155.2c-0.3-2.1-0.1-4.4,0.7-6.9c1.9-5.9,7.5-11.1,14.5-12.1l8.1-1.2h0l-0.2,7.7l-6.9,4.5
		l0.1-4.7c-0.6,0.1-1.2,0.2-1.9,0.5c-0.6,0.2-1.2,0.5-1.8,0.8c-0.8,0.5-1.6,1-2.3,1.7c-2.1,1.9-3.6,4.5-3.6,7c0,0.2,0,0.5,0,0.7
		c0,0.2,0,0.4,0.1,0.7c0,0,0,0,0,0c0.1,0.4,0.2,0.8,0.3,1.2c0,0.1,0.1,0.2,0.2,0.4c0.1,0.2,0.2,0.5,0.3,0.7c0.1,0.1,0.2,0.2,0.2,0.4
		c0.1,0.2,0.3,0.4,0.4,0.5c0.1,0.1,0.2,0.2,0.3,0.3c0.1,0.1,0.3,0.3,0.5,0.4c0.1,0.1,0.2,0.2,0.4,0.3c0.2,0.1,0.3,0.2,0.5,0.3
		c0.1,0.1,0.3,0.1,0.4,0.2c0.2,0.1,0.4,0.1,0.6,0.2c0.1,0,0.3,0.1,0.4,0.1c0.2,0,0.4,0.1,0.6,0.1c0.1,0,0.3,0,0.4,0
		c0.3,0,0.7,0,1-0.1c2.3-0.4,3.9-1.6,5.1-2.9c1.4-1.6,2-3.4,2-3.4l1.3,2l1.3,2c0,0,0,0,0,0l0.7,1.1c0,0.1-0.1,0.2-0.2,0.3
		c0,0,0,0,0,0c-0.2,0.4-0.5,0.9-0.9,1.4c-0.5,0.7-1.2,1.5-2.1,2.3c-1.1,1-2.6,2-4.4,2.7h0c-0.9,0.4-1.9,0.7-3,0.8
		c-0.5,0.1-1.1,0.1-1.6,0.1c-0.1,0-0.2,0-0.3,0c-0.1,0-0.2,0-0.3,0c-0.2,0-0.4,0-0.6,0C35,165.1,30.5,161,29.6,155.2z M119.3,131.6
		c0.4-0.1,0.9-0.2,1.3-0.3c0.4-0.1,0.7-0.1,1.1-0.1c0,0,0,0,0.1,0c0.1,0,0.1,0,0.2,0c0.3,0,0.6,0,0.9,0.1c0.1,0,0.2,0,0.3,0.1
		c0.2,0.1,0.5,0.1,0.7,0.2c0.1,0,0.2,0.1,0.3,0.1c0.3,0.1,0.6,0.3,0.9,0.5c1.2,0.9,2.2,2.4,2.7,4.2c0.2,0.6,0.3,1.2,0.4,1.9
		c0.2,1.1,0.2,2.3,0,3.5c-0.2,1.6-0.7,3.3-1.5,4.8c-0.2,0.4-0.4,0.8-0.7,1.1c-0.7,1-1.4,1.8-2.1,2.4c-0.5,0.4-1,0.8-1.5,1.2
		c-2.8,1.8-5.4,2.1-5.4,2.1l-1.3-2.3c0,1,0,2,0,3h0c0,0.5,0,1,0,1.5c0,0.5,0,1,0,1.4c0,0.9,0,1.8,0,2.7c-0.1,4.3-0.1,7.4-0.1,7.4
		l-2.5,0.4l-1.5,0.2l-2.5,0.4l0.3-13l0.3-16.1l-2.9,0.4l0-6.1l9.2-1.3h0l0,1.4C116.8,132.7,118,132,119.3,131.6z M166.3,124.8
		l5.5-0.8l-0.3,14.9c0,0.2,0,0.3,0.1,0.4c0,0,0,0,0,0c0.1,0.1,0.2,0.1,0.3,0.1c0,0,0.1,0,0.1,0l1-0.1l-0.2,6.2l-7.7,1.1l0.2-8.7
		l-4.8,9.3l-6.3,0.9l0.2-15.5l-1.6,0.2h0l0.3-6.3l7.6-1.1l-0.1,9.3L166.3,124.8z M142.1,130.9L142.1,130.9l0-2.6l6.4-0.9l-0.3,14.4
		c0,0,0,0,0,0c0,0.2,0.1,0.4,0.1,0.5c0,0,0.1,0.1,0.1,0.1c0.1,0.1,0.1,0.2,0.2,0.2c0.1,0,0.1,0.1,0.2,0.1c0.1,0,0.2,0.1,0.3,0.1
		c0.1,0,0.2,0,0.2,0c0.2,0,0.3,0,0.5,0l0.5-0.1l0.1,0l0.4-0.1l-0.5,5.9v0l0,0.2l-4.1,0.6c0,0,0,0,0,0c-0.4,0.1-0.8,0.1-1.1,0.1
		c0,0,0,0-0.1,0c-0.1,0-0.1,0-0.1,0c-0.4,0-0.7,0-1-0.1c-0.1,0-0.2,0-0.3-0.1c-0.3-0.1-0.6-0.2-0.8-0.4c-0.7,0.5-1.5,1-2.4,1.4
		c-0.9,0.4-1.8,0.6-2.8,0.8c-0.5,0.1-1,0.1-1.4,0.1c0,0,0,0,0,0c-0.4,0-0.8,0-1.2-0.1c-0.1,0-0.2,0-0.4-0.1
		c-0.3-0.1-0.6-0.1-0.9-0.2c-0.1,0-0.2-0.1-0.3-0.1c-0.4-0.2-0.7-0.3-1-0.6c-0.4-0.3-0.7-0.6-1-1c-0.4-0.5-0.8-1.2-1.1-1.8
		c0,0,0,0,0,0c-0.1-0.3-0.3-0.5-0.3-0.8c-0.2-0.5-0.3-1-0.4-1.6c-0.4-2.5,0.1-5.4,1.7-8.3c0.2-0.4,0.4-0.7,0.6-1.1
		c0.2-0.3,0.4-0.6,0.6-0.9c1.1-1.5,2.3-2.7,3.5-3.5c0.2-0.2,0.5-0.3,0.7-0.5c0.9-0.6,1.7-1.1,2.4-1.4c0.8-0.4,1.3-0.5,1.3-0.5
		L142.1,130.9z M55.1,161.2c0.5,0.5,1,1,1.5,1.5l-3.1,0.4C54.1,162.4,54.7,161.8,55.1,161.2z M62.3,161.6c-3.9-0.7-6.5-4.5-7.1-8.6
		c-0.1-0.7-0.1-1.4-0.1-2.2c0-0.7,0.1-1.5,0.2-2.2c0.6-2.9,1.7-5,3.1-6.5c0.3-0.4,0.7-0.7,1.1-1c0.7-0.6,1.5-1.1,2.3-1.4
		c0.4-0.2,0.8-0.3,1.1-0.4c0.5-0.2,1-0.3,1.4-0.3c0.4-0.1,0.8-0.1,1.2-0.1c0,0,0.1,0,0.1,0c0,0,0,0,0.1,0c0.3,0,0.6,0,0.8,0
		c0.1,0,0.1,0,0.2,0c0.2,0,0.4,0.1,0.6,0.1c0,0,0,0,0.1,0c0.2,0,0.3,0.1,0.4,0.1c0,0,0.1,0,0.1,0c0.1,0,0.1,0,0.1,0l-0.6,3.4
		l2.7-2.8c1.1,0.5,2.2,1.8,3.1,3.6c0.6,1.2,1,2.6,1.2,4c0.1,0.9,0.2,1.8,0.1,2.8c0,0.7-0.1,1.4-0.3,2c-0.1,0.3-0.1,0.5-0.2,0.8
		c-0.2,0.6-0.4,1.2-0.6,1.7c-0.2,0.6-0.5,1.1-0.8,1.6c-1.4,2.4-3.3,4.1-5.6,4.9c-0.1,0-0.1,0.1-0.2,0.1c-0.5,0.2-1,0.3-1.5,0.3
		c-0.6,0.1-1.2,0.1-1.8,0.1C63.1,161.7,62.7,161.6,62.3,161.6z M104.2,143.4l-0.3,7.2l1.5-0.2l-0.2,4.9l-7.7,1.1h0l0.5-13.6
		c0-0.6,0-1-0.1-1.4c0-0.2-0.1-0.4-0.1-0.5c0-0.1,0-0.1-0.1-0.1c0-0.1-0.1-0.2-0.1-0.3c0,0,0-0.1-0.1-0.1c0-0.1-0.1-0.1-0.1-0.2
		c0,0-0.1-0.1-0.1-0.1c0-0.1-0.1-0.1-0.1-0.1c0,0-0.1,0-0.1-0.1c-0.1,0-0.1-0.1-0.2-0.1c0,0,0,0-0.1,0c-0.1,0-0.2-0.1-0.3-0.1
		c0,0,0,0,0,0c-0.1,0-0.1,0-0.2,0c-0.1,0-0.2,0-0.3,0c-0.1,0-0.2,0-0.3,0.1c-0.2,0.1-0.4,0.2-0.6,0.3c-0.5,0.4-0.8,1.3-0.9,3.3
		L94,156.9l-6.2,0.9l0.2-13.6c0-0.3,0-0.5,0-0.8c0-0.2,0-0.4-0.1-0.6c0-0.2-0.1-0.4-0.1-0.5c0-0.1,0-0.1-0.1-0.1
		c0-0.1-0.1-0.2-0.1-0.3c0,0,0-0.1-0.1-0.1c0-0.1-0.1-0.1-0.1-0.2c0,0-0.1-0.1-0.1-0.1c0-0.1-0.1-0.1-0.2-0.1c0,0-0.1,0-0.1-0.1
		c-0.1,0-0.1-0.1-0.2-0.1c0,0,0,0,0,0c-0.1,0-0.2,0-0.3-0.1c0,0-0.1,0-0.1,0c-0.1,0-0.1,0-0.2,0c-0.1,0-0.2,0-0.3,0
		c-0.2,0-0.4,0.1-0.6,0.2c-0.1,0.1-0.2,0.1-0.3,0.2c-0.5,0.5-0.8,1.4-0.9,3.2l-0.2,13.6l-6.5,0.9v0l0-0.3l0.3-15.3l-1,0.1l-0.2,0h0
		l0.1-6.2l7.5-1.1v0h0l0,0.6c0.5-0.4,1.4-1,3-1.2c0.2,0,0.5,0,0.7,0c0.1,0,0.2,0,0.3,0c0.1,0,0.3,0,0.4,0c0.2,0,0.5,0.1,0.8,0.2
		c0.2,0,0.3,0.1,0.5,0.1c0.3,0.1,0.6,0.2,0.8,0.4c0.1,0.1,0.3,0.1,0.4,0.2c0.4,0.2,0.8,0.5,1.2,0.9c0.5-0.9,1.2-1.7,2.1-2.2
		c0.9-0.6,2-0.9,3.2-1.1c0,0,0,0,0,0c0.2,0,0.4,0,0.6,0c0.1,0,0.1,0,0.2,0c0.1,0,0.3,0,0.4,0c0.2,0,0.4,0,0.6,0.1
		c0.1,0,0.3,0.1,0.4,0.1c0.2,0,0.4,0.1,0.6,0.2c0.1,0.1,0.3,0.1,0.4,0.2c0.2,0.1,0.4,0.2,0.5,0.3c0.1,0.1,0.3,0.2,0.4,0.2
		c0.2,0.1,0.3,0.3,0.5,0.4c0.1,0.1,0.2,0.2,0.3,0.3c0.2,0.2,0.3,0.4,0.4,0.5c0.1,0.1,0.1,0.1,0.2,0.2c0.5,0.7,0.8,1.6,1,2.7
		c0,0.3,0.1,0.5,0.1,0.8c0,0.3,0,0.6,0,0.9L104.2,143.4z M42.1,152.4l0,1.5l1-0.7c0.5,0.4,1,0.7,1.5,1.1c-0.6,0.5-1.3,0.9-2.3,1.1
		c-0.1,0-0.2,0-0.4,0c-0.4,0-1.8-0.1-2.1-2c0-0.2-0.1-0.5-0.1-0.8c0-0.5,0.2-1.1,0.5-1.7C40.9,151.4,41.5,151.9,42.1,152.4z
		 M40.2,174.9l0.1-3.4c0-0.2,0-0.4,0.1-0.6c0.1-0.4,0.3-0.8,0.5-1.1c0.2-0.3,0.5-0.6,0.8-0.9c0.5-0.4,1-0.6,1.7-0.7l64.9-9.3
		l-0.1,6.3L40.2,174.9z M108.1,177.9c-11.2,0-22-1.6-32.1-4.5l8.5-1.2c7.6,1.6,15.6,2.5,23.8,2.5c19.7,0,38-5,53.2-13.5l7.5-1.1
		C152.3,171.2,131.1,177.9,108.1,177.9z M194.2,146.6c0,1.7-0.3,3-0.8,4.1c-0.3,0.7-0.8,1.3-1.4,1.7c-0.3,0.2-0.6,0.4-1,0.6
		c-0.7,0.3-1.5,0.6-2.5,0.7L116.7,164c0-0.8,0-1.8,0.1-2.9c0-1.1,0-2.2,0.1-3.5l70.3-10l0-4.6c-0.5,0.4-1.4,1-3,1.2
		c-0.2,0-0.5,0-0.7,0c0,0-0.1,0-0.1,0c-0.1,0-0.2,0-0.4,0c-0.2,0-0.4,0-0.6-0.1c-0.1,0-0.3-0.1-0.4-0.1c-0.2,0-0.4-0.1-0.6-0.2
		c-0.1,0-0.3-0.1-0.4-0.2c-0.2-0.1-0.4-0.2-0.6-0.3c-0.1-0.1-0.3-0.2-0.4-0.2c-0.2-0.1-0.4-0.3-0.6-0.4c-0.1-0.1-0.3-0.2-0.4-0.3
		c-0.2-0.2-0.3-0.4-0.5-0.6c-0.1-0.1-0.2-0.3-0.3-0.4c-0.2-0.2-0.3-0.5-0.4-0.8c-0.1-0.1-0.1-0.3-0.2-0.4c-0.2-0.4-0.3-0.9-0.4-1.5
		c-0.1-0.4-0.1-1-0.1-1.5l0.2-7.9l-1.5,0.2v0l0.1-3.1l0.1-3.1l7.9-1.1l-0.2,14.7c0,0.3,0,0.5,0,0.7c0,0.1,0,0.1,0,0.2
		c0,0.1,0,0.3,0.1,0.4c0,0.1,0.1,0.1,0.1,0.2c0,0.1,0.1,0.2,0.1,0.3c0,0.1,0.1,0.1,0.1,0.2c0,0.1,0.1,0.1,0.1,0.2
		c0,0,0.1,0.1,0.1,0.1c0.1,0,0.1,0.1,0.2,0.1c0,0,0.1,0.1,0.1,0.1c0.1,0,0.1,0.1,0.2,0.1c0.1,0,0.1,0,0.2,0c0.1,0,0.1,0,0.2,0
		c0.1,0,0.1,0,0.2,0c0.1,0,0.2,0,0.2,0c0.3,0,0.7-0.1,1-0.4c0.4-0.4,0.7-1,0.7-2.1l0.1-15.5l7-1L194.2,146.6z M197.8,129.9l0-9.1
		l0-4.1l-4.1,0.6l-6.5,0.9l-4.1,0.6l-0.1,0c-0.6-1.3-1-2.9-1-5.4V69.3l1.1-0.9c2.3,2.6,2.8,6.9,2.8,13.9v2.6h6.8V63.2h-35.3v21.7
		h6.8v-2.6c0-6.9,0.6-11.3,2.8-13.9l1.1,0.9v44.2c0,4.4-1.3,6.4-3,7.9l-0.9,0.1l-4.1,0.6l-2.4,0.3l0.2-0.3c-2.3-1.3-3.2-2.6-4.6-8.7
		L149,93.9l6.3-3c-1.1-0.9-1.7-5.2-1.7-10.4s1.1-9.5,2.3-10.4l-9.1-6.9h-26.8l-2.3,3.5c2.3,1.7,2.8,3.5,2.8,8.7v38.1
		c0,5.2-0.6,6.9-2.8,8.7l2.3,3.5h14.8l2.3-3.5c-2.3-1.7-2.9-3.5-2.9-8.7V100l2.3-1.3l3.4,16.9c0.6,2.6,1.1,4.8-1.1,6.5l1.8,2.7
		l-0.6,0.2l-1.3,0.2l0,0.3c-1.4,0.6-4.1,2-6.6,4.5h-4.1c-0.2-0.2-0.4-0.3-0.6-0.5c-1.5-1.2-3.5-1.8-5.6-1.8h0c-0.5,0-1.1,0-1.6,0.1
		c-0.3,0-0.6,0.1-0.9,0.2l-3.8,0.5l-9.2,1.3l-1,0.1H31.2c-3.9,0-6.2,4.5-3.8,7.6c0.9,1.2,1.9,2.3,2.8,3.4c-0.7,0.9-1.4,1.9-1.9,2.9
		C15.9,129.8,8.6,112.3,8.6,93.3c0-46.7,44.5-84.6,99.5-84.6s99.5,37.9,99.5,84.6C207.5,106.4,204,118.8,197.8,129.9z M140.4,81
		c0,8.2-3.4,11.7-5.1,11.7c-0.6,0-1.1-0.4-1.1-0.9V70.1c0-0.4,0.6-0.9,1.1-0.9C137,69.3,140.4,72.7,140.4,81z"/>
	<path fill="#F4F4F4" d="M108.4,13.1c-35,0-65.7,15.7-82.5,39.3c-2.2,3.1,0,7.5,3.9,7.5H187c3.8,0,6.1-4.3,3.9-7.5
		C174.1,28.8,143.4,13.1,108.4,13.1z M120.1,28.5c0.7,0.1,1,0.1,1.6,0.2c0.5-3.6,0.8-5.4,1.3-9c-0.7-0.1-1.1-0.1-1.8-0.2
		c0.1-0.7,0.1-1.1,0.2-1.8c3.1,0.4,4.7,0.6,7.7,1.2c3,0.6,3.6,0.7,5.5,1.2c3.9,1,5.2,2.9,4.6,4.6c-0.5,1.4-2.5,1.9-4.7,1.5
		c3.1,1.3,5,3.3,3.9,6.2c0.6,0.4,1,0.6,1.6,1c-0.4,0.6-0.5,0.9-0.9,1.5c-2.1-0.6-3.4-1.4-4.1-2.3c-1.2-1.8-0.2-4.7-3.8-5.9
		c-0.4-0.1-0.6-0.2-1.1-0.3c-0.3,1.5-0.5,2.2-0.8,3.7c0.7,0.1,1,0.2,1.6,0.4c-0.2,0.7-0.3,1.1-0.4,1.8c-4.3-1-6.4-1.4-10.7-2
		C119.9,29.6,120,29.3,120.1,28.5z M119.1,17.3c-0.2,1.8-0.3,2.7-0.4,4.5c-0.8-0.1-1.2-0.1-2-0.2c-1.1-1.2-1.6-1.9-2.8-3.1
		c-0.3,0-0.5,0-0.8,0c-0.2,3.8-0.2,5.6-0.4,9.4c0.6,0,0.8,0,1.4,0.1c0,0.7-0.1,1.1-0.1,1.8c-4.2-0.2-6.2-0.2-10.4,0
		c0-0.7-0.1-1.1-0.1-1.8c0.6,0,0.8,0,1.4-0.1c-0.2-3.8-0.3-5.6-0.4-9.4c-0.5,0-0.7,0-1.2,0.1c-1.1,1.2-1.7,1.8-2.8,3.1
		c-0.8,0.1-1.2,0.1-1.9,0.2c-0.2-1.8-0.3-2.7-0.4-4.5C106.6,16.5,110.8,16.5,119.1,17.3z M83.1,20.3c4.1,1.9,6,3,9.7,5.2
		c-0.4-2-0.5-3-0.9-5.1c-0.9,0.2-1.3,0.2-2.2,0.4c-0.2-0.8-0.2-1.2-0.4-2c2.6-0.5,4-0.7,6.6-1.1c0.1,0.8,0.2,1.2,0.3,2
		c-0.8,0.1-1.3,0.2-2.1,0.3c0.6,4.2,1,6.4,1.6,10.6c-1.9,0.3-2.9,0.5-4.7,0.8c-4.6-2.9-7.1-4.2-12.3-6.4c0.9,2.8,1.4,4.2,2.3,7
		c0.8-0.3,1.2-0.4,2-0.6c0.2,0.8,0.4,1.2,0.6,2c-2.3,0.7-3.4,1.1-5.6,1.9c-0.3-0.8-0.4-1.2-0.7-1.9c0.7-0.3,1.1-0.4,1.8-0.7
		c-1.1-3.2-1.7-4.8-2.8-8c-0.7,0.2-1,0.4-1.7,0.6c-0.3-0.8-0.5-1.3-0.8-2.1C77.3,21.9,79.2,21.3,83.1,20.3z M51.2,51.3
		c-5,4.3-9.9,5.9-12.8,3.3c-3-2.7-1.6-8.3,4-13.1c2.1-1.8,4.1-2.8,5.9-3.1c-0.2-0.3-0.4-0.5-0.6-0.8c1.1-0.8,1.6-1.2,2.7-2
		c1,1.4,1.5,2.1,2.5,3.5c-0.9,0.6-1.4,1-2.3,1.7c-1.5-0.2-2.3-0.3-3.9-0.5c-3.1,2.4-3.8,5.9-1.9,8c2,2.2,4.8,2,7,0.1
		c0.7-0.6,1.7-1.4,1.6-1.7c0-0.8-0.4-3.4,1.3-4.7c0.1-0.1,0.2-0.1,0.4-0.2c0.7,1,1.1,1.6,1.8,2.6C55.8,46.8,53.7,49.2,51.2,51.3z
		 M58.7,43.1c0.6-0.4,0.9-0.6,1.4-0.9c-2-3.1-2.9-4.6-4.9-7.7c-0.6,0.4-0.9,0.6-1.6,1c-0.4-0.6-0.6-0.9-1-1.5
		c6.9-4.6,10.5-6.5,18-9.5c0.6,1.5,0.9,2.2,1.5,3.7c-0.7,0.3-1.1,0.5-1.8,0.8c-1.4-0.5-2.1-0.7-3.5-1.2c-1.6,0.8-2.4,1.2-4,2
		c0.7,1.4,1.1,2.2,1.9,3.6c1-0.5,1.5-0.8,2.5-1.3c-0.3-0.5-0.4-0.8-0.6-1.3c0.7-0.3,1.1-0.5,1.8-0.8c0.7,1.6,1.1,2.4,1.8,4
		c-0.7,0.3-1,0.5-1.7,0.8c-0.3-0.5-0.4-0.8-0.7-1.4c-1,0.5-1.5,0.7-2.5,1.2c0.8,1.5,1.2,2.3,2,3.9c1.8-1,2.8-1.4,4.6-2.2
		c-0.8-1.7-0.2-3.3,1.9-4.2C74,32,74,32,74.2,31.9c0.7,1.7,1,2.5,1.7,4.2c-6.7,2.7-10,4.4-16.2,8.5C59.3,44,59.1,43.7,58.7,43.1z
		 M71.6,55.6c0-0.8,0-1.2-0.1-2c0.5,0,0.7,0,1.2-0.1c-0.4-1.3-0.6-1.9-1-3.2c-1.4,0.2-2.1,0.4-3.5,0.6c-0.3,1.1-0.5,1.7-0.8,2.7
		c0.5,0,0.8-0.1,1.3-0.1c0,0.8,0,1.2,0,2c-1.7,0-2.5,0-4.2,0c0-0.7,0-1,0-1.6c0.5,0,0.8-0.1,1.3-0.1c1.4-3.8,2-6,3.3-10.9
		c2.1-1,3.2-1.5,5.4-2.4c1.6,4.5,2.5,7.1,4.2,12.7c0.5,0,0.8,0,1.4-0.1c0,1,0,1.5,0.1,2.5C76.7,55.6,75,55.6,71.6,55.6z M91,38.7
		c-1.6,7-2.3,10.4-3.9,16.8c-1.6,0-2.4,0-4,0c-2.1-6.1-3.2-9-5.3-14c-0.5,0.1-0.7,0.2-1.2,0.4c0-0.9,0-1.4-0.1-2.3
		c3.3-1.3,5-1.8,8.4-2.8c0,1.1,0.1,1.6,0.1,2.7c-0.6,0.1-0.8,0.2-1.4,0.3c1.3,3.7,1.9,5.7,3.2,9.7c0.9-4.1,1.4-6.3,2.4-10.6
		c-0.5,0.1-0.8,0.2-1.4,0.3c0-1.2-0.1-1.9-0.1-3.1c1.7-0.4,2.6-0.6,4.4-0.9c0,1.3,0,2,0.1,3.3C91.8,38.6,91.6,38.6,91,38.7z
		 M94,55.5c0-1.2,0-1.8-0.1-3c0.5,0,0.7,0,1.2,0c-0.1-5.9-0.2-8.8-0.3-14.7c-0.5,0.1-0.7,0.1-1.2,0.2c0-1.2,0-1.8-0.1-3
		c5.2-0.9,7.8-1.1,13-1.3c0,2.7,0,4.1,0,6.8c-0.5,0-0.8,0-1.3,0c-0.7-1.7-1.1-2.6-1.8-4.2c-1.2,0.1-1.8,0.1-2.9,0.2
		c0,2.7,0.1,4.1,0.1,6.8c0.7,0,1.1-0.1,1.9-0.1c0-1,0-1.5,0-2.4c0.5,0,0.8,0,1.3-0.1c0,3,0,4.5,0.1,7.5c-0.5,0-0.8,0-1.3,0
		c0-1,0-1.5,0-2.5c-0.7,0-1.1,0-1.9,0.1c0,2.9,0.1,4.4,0.1,7.3c1.5,0,2.2,0,3.6,0c0-3.2,0.8-5.3,2.4-5.3c0.1,0,0.2,0,0.3,0
		c0,3.1,0,4.6,0,7.7C101.8,55.5,99.2,55.5,94,55.5z M123.6,38.3c-0.6-0.1-0.8-0.1-1.4-0.2c-0.1,7-0.2,10.4-0.3,17.4
		c-1.4,0-2.1,0-3.5,0c-2.7-6.2-4.1-9.5-7-15.9c0,5,0,7.5-0.1,12.4c0.6,0,0.9,0,1.5,0c0,1.4,0,2.1,0,3.5c-1.7,0-2.6,0-4.3,0
		c0-1.4,0-2.1,0-3.5c0.5,0,0.8,0,1.4,0c0-5.8,0-8.7,0-14.4c-0.5,0-0.7,0-1.2,0c0-1.5,0-2.3,0-3.8c2.6,0,3.9,0,6.5,0.2
		c2.2,5,3.3,7.5,5.4,12.4c0.1-3.4,0.1-5.1,0.2-8.4c-0.6-0.1-0.9-0.1-1.5-0.2c0-1.4,0-2,0.1-3.4c1.8,0.2,2.6,0.3,4.4,0.6
		C123.7,36.3,123.7,37,123.6,38.3z M139.2,41.8c-0.5-0.1-0.7-0.2-1.2-0.4c-0.1,2.9-0.1,4.4-0.2,7.3c-0.2,4.4-2.5,7.1-5.9,7.1
		c-4.1,0-6.2-3.2-6-9.4c0.1-3.2,0.1-4.8,0.2-8c-0.5-0.1-0.7-0.1-1.2-0.2c0-1.2,0-1.8,0.1-2.9c3.2,0.6,4.7,1,7.9,1.8
		c0,1.1-0.1,1.6-0.1,2.7c-0.4-0.1-0.6-0.1-1-0.2c-0.1,3.3-0.2,5-0.3,8.3c-0.1,3,0.7,4.4,2.5,4.5c1.4,0.1,2.3-1.4,2.4-3.8
		c0.1-3,0.2-4.5,0.3-7.5c-0.5-0.1-0.8-0.2-1.3-0.3c0-1.1,0.1-1.7,0.1-2.8c1.6,0.5,2.4,0.8,3.9,1.3C139.3,40.2,139.3,40.7,139.2,41.8
		z M152.8,55.7c-5.2,0-7.8-0.1-13-0.1c0-0.9,0-1.4,0.1-2.3c0.5,0,0.7,0,1.2,0.1c0.1-4.4,0.2-6.6,0.4-11.1c-0.5-0.2-0.7-0.2-1.2-0.4
		c0-0.9,0-1.4,0.1-2.3c5,1.9,7.4,3,12.1,5.7c0,1.3,0,2,0,3.3c-0.5-0.2-0.7-0.3-1.2-0.5c-0.7-1.1-1-1.7-1.6-3
		c-1.1-0.5-1.6-0.7-2.7-1.2c0,1.7-0.1,2.5-0.1,4.2c0.7,0.2,1.1,0.3,1.8,0.5c0-0.6,0-0.8,0-1.4c0.5,0.2,0.7,0.3,1.2,0.4
		c0,1.6,0,2.4-0.1,4.1c-0.5-0.1-0.7-0.1-1.2-0.2c0-0.6,0-0.9,0-1.5c-0.7-0.2-1.1-0.2-1.8-0.4c0,1.8-0.1,2.7-0.1,4.5
		c1.4,0.1,2.2,0.1,3.6,0.2c0-1.7,0.8-2.7,2.4-2.4c0.1,0,0.2,0,0.3,0.1C152.8,53.5,152.8,54.2,152.8,55.7z M159.9,45.6
		c-4-2.8-6-4-10.3-6.2c0.3-0.7,0.5-1,0.8-1.6c0.6,0.3,0.9,0.5,1.5,0.8c0.1-1.3,0.2-2,0.2-3.3c-1.9-1-2.9-1.4-4.8-2.3
		c-0.9,0.8-1.4,1.2-2.3,2.1c0.7,0.3,1,0.4,1.7,0.7c-0.3,0.7-0.5,1.1-0.8,1.9c-2.2-1-3.3-1.4-5.5-2.3c0.3-0.8,0.4-1.2,0.7-1.9
		c0.7,0.3,1.1,0.4,1.8,0.7c3.5-3.2,5.3-4.8,9.2-7.7c3.2,1.5,4.8,2.3,7.9,4.1c-0.1,5-0.3,7.5-0.8,12.3c0.7,0.4,1,0.7,1.6,1.1
		C160.5,44.7,160.3,45,159.9,45.6z M175,58.9c-5.1-5.6-7.8-8-13.7-12.3c0.4-0.6,0.6-0.9,1.1-1.5c0.6,0.4,0.8,0.6,1.4,1
		c2.2-2.9,3.3-4.4,5.5-7.3c-0.6-0.5-0.9-0.7-1.5-1.1c0.4-0.6,0.6-0.9,1.1-1.5c4.2,3.1,6.2,4.7,10.1,8.4c-0.5,0.5-0.8,0.8-1.3,1.3
		c-0.6-0.5-0.9-0.8-1.4-1.3c-2.5,2.8-3.8,4.2-6.3,7c1.2,1.1,1.8,1.7,3,2.8c1.7-1.7,4.1-1.7,5.9,0.3c0.1,0.1,0.2,0.2,0.3,0.3
		C177.5,56.7,176.7,57.4,175,58.9z"/>
	<path fill="#F4F4F4" d="M152.3,33.4c0.1-1.8,0.1-2.7,0.1-4.5c-1.4,1.1-2.1,1.7-3.5,2.9C150.2,32.4,150.9,32.7,152.3,33.4z"/>
	<path fill="#F4F4F4" d="M68.7,49.2c1-0.3,1.5-0.4,2.5-0.6c-0.5-1.6-0.8-2.4-1.3-3.9C69.4,46.6,69.2,47.5,68.7,49.2z"/>
	<path fill="#F4F4F4" d="M134.6,23.7c0.4-1.3-0.6-2.6-2.8-3.1c-0.1,0-0.2,0-0.3-0.1c-0.4,1.9-0.6,2.8-1.1,4.7c0.2,0,0.3,0,0.5,0.1
		C132.9,25.6,134.3,25.1,134.6,23.7z"/>
	<path fill="#F4F4F4" d="M54.3,110V94.4l-11.4-8.7c-2.3-1.7-3.4-3.9-3.4-6.1v-5.2c0-3.5,0.6-5.2,2.3-5.2c2.3,0,3.4,3,5.1,13h6.8
		V63.2H32.7l-9.1,6.9c1.1,0.9,2.3,3.5,2.3,8.7v9.5L37.2,97c2.3,1.7,3.4,3.9,3.4,6.1v11.3c0,3.5-1.1,5.2-2.9,5.2
		c-2.3,0-4-4.3-5.1-19.1h-7.4v25.1h22.2l9.1-6.9C55.5,117.8,54.3,115.2,54.3,110z"/>
	<path fill="#F4F4F4" d="M96,66.7l-2.3-3.5H79.4l-2.3,3.5c2.3,1.7,2.3,3.5,2.3,8.7v13h-5.7v-13c0-5.2,0-6.9,2.3-8.7l-2.3-3.5H59.5
		l-2.3,3.5c2.3,1.7,2.8,3.5,2.8,8.7v38.1c0,5.2-0.6,6.9-2.8,8.7l2.3,3.5h14.3l2.3-3.5c-2.3-1.7-2.3-3.5-2.3-8.7V94.4h5.7v19.1
		c0,5.2,0,6.9-2.3,8.7l2.3,3.5h14.3l2.3-3.5c-2.3-1.7-2.9-3.5-2.9-8.7V75.3C93.1,70.1,93.7,68.4,96,66.7z"/>
	<path fill="#F4F4F4" d="M116.5,66.7l-2.3-3.5H99.4l-2.3,3.5c2.3,1.7,2.9,3.5,2.9,8.7v38.1c0,5.2-0.6,6.9-2.9,8.7l2.3,3.5h14.8
		l2.3-3.5c-2.3-1.7-2.8-3.5-2.8-8.7V75.3C113.6,70.1,114.2,68.4,116.5,66.7z"/>
	<path fill="#F4F4F4" d="M65,154.7c0.1,0,0.2-0.1,0.3-0.1c0.1,0,0.2-0.1,0.3-0.2c0.1,0,0.2-0.1,0.2-0.2c0.1-0.1,0.2-0.2,0.3-0.2
		c0.1-0.1,0.1-0.1,0.2-0.2c0.1-0.1,0.2-0.2,0.2-0.3c0.1-0.1,0.1-0.2,0.2-0.2c0.1-0.1,0.1-0.3,0.2-0.4c0-0.1,0.1-0.2,0.1-0.3
		c0.1-0.2,0.1-0.3,0.2-0.5c0-0.1,0.1-0.2,0.1-0.2c0.1-0.3,0.1-0.5,0.2-0.8c0.2-0.9,0.2-1.9,0.1-2.9c-0.2-1.3-0.7-2.4-1.8-2.9
		c-0.2,0-0.4,0-0.6,0.1c-1.1,0.2-2.1,1-2.8,2.3c-0.3,0.5-0.5,1.1-0.6,1.8c-0.1,0.4-0.1,0.8-0.2,1.2c0,0.4,0,0.8,0.1,1.1
		c0.1,0.8,0.4,1.5,0.8,2.1s0.9,0.8,1.5,0.9c0.2,0,0.3,0,0.5,0c0.1,0,0.2,0,0.3,0C64.8,154.7,64.9,154.7,65,154.7z"/>
	<path fill="#F4F4F4" d="M137.4,138.8c-0.6,0.9-1,1.9-1.2,2.7c-0.2,0.8-0.3,1.6-0.2,2.2c0.1,0.6,0.3,1.1,0.8,1.3
		c0.2,0.1,0.3,0.1,0.5,0.2c0.1,0,0.1,0,0.2,0c0.2,0,0.4,0,0.6,0c0,0,0,0,0,0c0.2,0,0.4-0.1,0.6-0.2c0.7-0.2,1.4-0.7,1.9-1.3
		c0.3-0.3,0.5-0.6,0.7-1c0.4-0.7,0.7-1.5,0.7-2.4l0.2-6.3c-0.8,0.4-1.9,1.2-3,2.4C138.5,137.2,137.9,138,137.4,138.8z"/>
	<path fill="#F4F4F4" d="M115.8,148c0.1,0,0.3,0,0.5,0c0.1,0,0.2,0,0.3,0c0.1,0,0.2-0.1,0.4-0.1c0.1,0,0.2-0.1,0.3-0.1
		c0.1,0,0.3-0.1,0.4-0.2c0.1,0,0.2-0.1,0.3-0.1c0.1-0.1,0.3-0.1,0.4-0.2c0.1-0.1,0.2-0.1,0.3-0.2c0.1-0.1,0.3-0.2,0.4-0.3
		c0.1-0.1,0.2-0.1,0.3-0.2c0.1-0.1,0.3-0.2,0.4-0.4c0.1-0.1,0.2-0.2,0.3-0.2c0.1-0.2,0.3-0.3,0.4-0.5c0.1-0.1,0.1-0.1,0.2-0.2
		c0.2-0.3,0.4-0.5,0.5-0.8c0.2-0.4,0.4-0.8,0.6-1.3c0.2-0.5,0.3-1,0.4-1.5c0.1-0.5,0.2-1,0.2-1.5c0-0.5,0-0.9,0-1.3
		c0-0.2-0.1-0.4-0.1-0.6c-0.2-0.6-0.5-1-0.9-1.2c-0.2-0.1-0.4-0.1-0.6-0.2c-0.1,0-0.1,0-0.2,0c-0.2,0-0.4,0-0.6,0
		c-0.4,0.1-0.9,0.2-1.4,0.5c-0.7,0.4-1.3,1-1.8,1.7c-0.2,0.2-0.3,0.5-0.4,0.8c-0.2,0.6-0.4,1.2-0.4,1.9l-0.2,6.1L115.8,148z"/>
</g>
<g>
	<path fill="#2292A4" d="M41,165.2c0.6,0,1.1-0.1,1.6-0.1c1.1-0.2,2.1-0.5,3-0.8c1.8-0.7,3.3-1.6,4.4-2.7c0.9-0.8,1.6-1.6,2.1-2.3
		c0.4-0.6,0.7-1,0.9-1.4c0.1-0.1,0.1-0.2,0.2-0.3l-0.7-1.1l-1.3-2l-1.3-2c0,0-0.6,1.7-2,3.4c-1.1,1.3-2.8,2.5-5.1,2.9
		c-0.3,0.1-0.7,0.1-1,0.1c-0.1,0-0.3,0-0.4,0c-0.2,0-0.4,0-0.6-0.1c-0.1,0-0.3-0.1-0.4-0.1c-0.2-0.1-0.4-0.1-0.6-0.2
		c-0.1-0.1-0.3-0.1-0.4-0.2c-0.2-0.1-0.4-0.2-0.5-0.3c-0.1-0.1-0.2-0.2-0.4-0.3c-0.2-0.1-0.3-0.3-0.5-0.4c-0.1-0.1-0.2-0.2-0.3-0.3
		c-0.1-0.2-0.3-0.3-0.4-0.5c-0.1-0.1-0.2-0.2-0.2-0.4c-0.1-0.2-0.2-0.5-0.3-0.7c0-0.1-0.1-0.2-0.2-0.4c-0.1-0.4-0.2-0.8-0.3-1.2
		c0,0,0,0,0,0c0-0.2-0.1-0.4-0.1-0.7c0-0.2,0-0.5,0-0.7c0.1-2.5,1.5-5.1,3.6-7c0.7-0.6,1.5-1.2,2.3-1.7c0.6-0.3,1.1-0.6,1.8-0.8
		c0.6-0.2,1.2-0.4,1.9-0.5l-0.1,4.7l6.9-4.5l0.2-7.7h0l-8.1,1.2c-7,1-12.6,6.2-14.5,12.1c-0.8,2.5-0.9,4.8-0.7,6.9
		c0.8,5.8,5.3,9.9,10.2,10c0.3,0,0.5,0,0.8,0C40.8,165.2,40.9,165.2,41,165.2z"/>
	<path fill="#2292A4" d="M67.9,139.1C67.9,139.1,67.8,139,67.9,139.1c-0.2,0-0.3-0.1-0.5-0.1c0,0,0,0-0.1,0c-0.2,0-0.4-0.1-0.6-0.1
		c-0.1,0-0.1,0-0.2,0c-0.3,0-0.5,0-0.8,0c0,0-0.1,0-0.1,0c-0.4,0-0.8,0-1.2,0.1c-0.5,0.1-0.9,0.2-1.4,0.3c-0.4,0.1-0.7,0.3-1.1,0.4
		c-0.8,0.3-1.5,0.8-2.3,1.4c-0.4,0.3-0.7,0.6-1.1,1c-1.4,1.5-2.5,3.6-3.1,6.5c-0.1,0.7-0.2,1.4-0.2,2.2c0,0.7,0,1.5,0.1,2.2
		c0.6,4.2,3.1,7.9,7.1,8.6c0.4,0.1,0.8,0.1,1.3,0.1c0.6,0,1.2,0,1.8-0.1c0.5-0.1,1-0.2,1.5-0.3c0.1,0,0.1-0.1,0.2-0.1
		c2.3-0.8,4.3-2.5,5.6-4.9c0.3-0.5,0.5-1,0.8-1.6c0.2-0.6,0.4-1.1,0.6-1.7c0.1-0.3,0.1-0.5,0.2-0.8c0.1-0.7,0.3-1.4,0.3-2
		c0.1-0.9,0-1.9-0.1-2.8c-0.2-1.5-0.6-2.9-1.2-4c-0.8-1.8-2-3.1-3.1-3.6l-2.7,2.8l0,0l0.6-3.4C68,139.1,68,139.1,67.9,139.1z
		 M67.6,148.2c0.1,0.9,0.1,1.9-0.1,2.9c-0.1,0.3-0.1,0.5-0.2,0.8c0,0.1-0.1,0.2-0.1,0.2c-0.1,0.2-0.1,0.3-0.2,0.5
		c0,0.1-0.1,0.2-0.1,0.3c-0.1,0.1-0.1,0.3-0.2,0.4c-0.1,0.1-0.1,0.2-0.2,0.2c-0.1,0.1-0.2,0.2-0.2,0.3c-0.1,0.1-0.1,0.1-0.2,0.2
		c-0.1,0.1-0.2,0.2-0.3,0.2c-0.1,0.1-0.2,0.1-0.2,0.2c-0.1,0.1-0.2,0.1-0.3,0.2c-0.1,0-0.2,0.1-0.3,0.1c-0.1,0-0.2,0.1-0.3,0.1
		c-0.1,0-0.2,0-0.3,0c-0.2,0-0.3,0-0.5,0c-0.6-0.1-1.1-0.4-1.5-0.9s-0.7-1.2-0.8-2.1c-0.1-0.4-0.1-0.7-0.1-1.1
		c0-0.4,0.1-0.8,0.2-1.2c0.1-0.7,0.4-1.3,0.6-1.8c0.7-1.3,1.8-2,2.8-2.3c0.2,0,0.4-0.1,0.6-0.1C66.9,145.8,67.5,146.9,67.6,148.2z"
		/>
	<path fill="#2292A4" d="M97.5,156.3L97.5,156.3l7.7-1.1l0.2-4.9l-1.5,0.2v0l0.3-7.2l0.1-2.1c0-0.3,0-0.6,0-0.9c0-0.3,0-0.6-0.1-0.8
		c-0.2-1.1-0.5-2-1-2.7c-0.1-0.1-0.1-0.2-0.2-0.2c-0.1-0.2-0.3-0.4-0.4-0.5c-0.1-0.1-0.2-0.2-0.3-0.3c-0.2-0.1-0.3-0.3-0.5-0.4
		c-0.1-0.1-0.3-0.2-0.4-0.2c-0.2-0.1-0.4-0.2-0.5-0.3c-0.1-0.1-0.3-0.1-0.4-0.2c-0.2-0.1-0.4-0.1-0.6-0.2c-0.1,0-0.3-0.1-0.4-0.1
		c-0.2,0-0.4-0.1-0.6-0.1c-0.1,0-0.3,0-0.4,0c-0.3,0-0.6,0-0.8,0c0,0,0,0,0,0c-1.2,0.2-2.3,0.5-3.2,1.1c-0.9,0.6-1.6,1.3-2.1,2.2
		c-0.4-0.4-0.8-0.6-1.2-0.9c-0.1-0.1-0.3-0.1-0.4-0.2c-0.3-0.1-0.5-0.3-0.8-0.4c-0.2-0.1-0.3-0.1-0.5-0.1c-0.3-0.1-0.5-0.1-0.8-0.2
		c-0.2,0-0.3,0-0.4,0c-0.3,0-0.7,0-1,0c-1.7,0.2-2.5,0.8-3,1.2l0-0.6h0l-7.5,1.1l-0.1,6.2l0.2,0l1-0.1l-0.3,15.3l0,0.3l6.5-0.9
		l0.2-13.6c0-1.8,0.4-2.8,0.9-3.2c0.1-0.1,0.2-0.2,0.3-0.2c0.2-0.1,0.4-0.2,0.6-0.2c0.1,0,0.2,0,0.3,0c0.1,0,0.1,0,0.2,0
		c0,0,0.1,0,0.1,0c0.1,0,0.2,0,0.3,0.1c0,0,0,0,0,0c0.1,0,0.1,0.1,0.2,0.1c0,0,0.1,0,0.1,0.1c0.1,0,0.1,0.1,0.2,0.1
		c0,0,0.1,0.1,0.1,0.1c0,0.1,0.1,0.1,0.1,0.2c0,0,0,0.1,0.1,0.1c0,0.1,0.1,0.2,0.1,0.3c0,0,0,0.1,0.1,0.1c0,0.2,0.1,0.3,0.1,0.5
		c0,0.2,0,0.4,0.1,0.6c0,0.2,0,0.5,0,0.8l-0.2,13.6l6.2-0.9l0.3-13.6c0-1.9,0.4-2.8,0.9-3.3c0.2-0.2,0.4-0.3,0.6-0.3
		c0.1,0,0.2-0.1,0.3-0.1c0.1,0,0.2,0,0.3,0c0.1,0,0.1,0,0.2,0c0,0,0,0,0,0c0.1,0,0.2,0,0.3,0.1c0,0,0,0,0.1,0c0.1,0,0.1,0.1,0.2,0.1
		c0,0,0.1,0,0.1,0.1c0.1,0,0.1,0.1,0.1,0.1c0,0,0.1,0.1,0.1,0.1c0,0.1,0.1,0.1,0.1,0.2c0,0,0.1,0.1,0.1,0.1c0,0.1,0.1,0.2,0.1,0.3
		c0,0,0,0.1,0.1,0.1c0,0.2,0.1,0.3,0.1,0.5c0.1,0.4,0.1,0.8,0.1,1.4L97.5,156.3z"/>
	<path fill="#2292A4" d="M130.3,146.3c0.1,0.3,0.2,0.6,0.3,0.8c0.3,0.7,0.6,1.3,1.1,1.8c0.3,0.4,0.7,0.7,1,1c0.3,0.2,0.7,0.4,1,0.6
		c0.1,0,0.2,0.1,0.3,0.1c0.3,0.1,0.6,0.2,0.9,0.2c0.1,0,0.2,0.1,0.4,0.1c0.4,0.1,0.8,0.1,1.2,0.1c0.5,0,1,0,1.4-0.1
		c1-0.1,1.9-0.4,2.8-0.8c0.9-0.4,1.7-0.8,2.4-1.4c0.2,0.2,0.5,0.3,0.8,0.4c0.1,0,0.2,0,0.3,0.1c0.3,0.1,0.6,0.1,1,0.1
		c0.1,0,0.1,0,0.2,0c0.3,0,0.7,0,1.1-0.1c0,0,0,0,0,0l4.1-0.6l0-0.2l0.5-5.9l-0.4,0.1l-0.1,0l-0.5,0.1h0c-0.2,0-0.3,0-0.5,0
		c-0.1,0-0.2,0-0.2,0c-0.1,0-0.2-0.1-0.3-0.1c-0.1,0-0.1-0.1-0.2-0.1c-0.1-0.1-0.2-0.1-0.2-0.2c0,0-0.1-0.1-0.1-0.1
		c-0.1-0.1-0.1-0.3-0.1-0.5c0,0,0,0,0,0l0.3-14.4l-6.4,0.9l0,2.6v0l-1.4-2.4c0,0-0.5,0.2-1.3,0.5c-0.6,0.3-1.5,0.7-2.4,1.4
		c-0.2,0.2-0.5,0.3-0.7,0.5c-1.2,0.9-2.4,2-3.5,3.5c-0.2,0.3-0.4,0.6-0.6,0.9c-0.2,0.4-0.4,0.7-0.6,1.1c-1.5,2.9-2,5.8-1.7,8.3
		C130,145.3,130.1,145.8,130.3,146.3z M136.2,141.5c0.2-0.8,0.6-1.8,1.2-2.7c0.5-0.9,1.1-1.6,1.8-2.3c1.1-1.1,2.2-2,3-2.4l-0.2,6.3
		c0,0.9-0.3,1.7-0.7,2.4c-0.2,0.3-0.4,0.7-0.7,1c-0.6,0.6-1.3,1.1-1.9,1.3c-0.2,0.1-0.4,0.1-0.6,0.2c0,0,0,0,0,0c-0.2,0-0.4,0-0.6,0
		c-0.1,0-0.1,0-0.2,0c-0.2,0-0.4-0.1-0.5-0.2c-0.5-0.2-0.7-0.7-0.8-1.3C135.9,143.1,135.9,142.4,136.2,141.5z"/>
	<path fill="#2292A4" d="M172.8,145.6l0.2-6.2l-1,0.1c0,0-0.1,0-0.1,0c-0.1,0-0.2-0.1-0.3-0.1c0,0,0,0,0,0c-0.1-0.1-0.1-0.2-0.1-0.4
		l0.3-14.9l-5.5,0.8l-5.7,10.1l0.1-9.3l-7.6,1.1l-0.3,6.3l1.6-0.2l-0.2,15.5l6.3-0.9l4.8-9.3l-0.2,8.7L172.8,145.6z"/>
	<path fill="#2292A4" d="M122.5,151.5c0.5-0.3,1-0.7,1.5-1.2c0.8-0.7,1.5-1.5,2.1-2.4c0.3-0.4,0.5-0.7,0.7-1.1
		c0.8-1.5,1.3-3.2,1.5-4.8c0.1-1.2,0.1-2.4,0-3.5c-0.1-0.7-0.2-1.3-0.4-1.9c-0.6-1.8-1.5-3.3-2.7-4.2c-0.3-0.2-0.6-0.4-0.9-0.5
		c-0.1,0-0.2-0.1-0.3-0.1c-0.2-0.1-0.5-0.2-0.7-0.2c-0.1,0-0.2-0.1-0.3-0.1c-0.3,0-0.6-0.1-0.9-0.1c-0.1,0-0.1,0-0.2,0
		c-0.4,0-0.8,0-1.2,0.1c-0.4,0.1-0.9,0.2-1.3,0.3c-1.3,0.4-2.5,1-3.4,1.8l0-1.4l-9.2,1.3l0,6.1l2.9-0.4v0l-0.3,16.1l-0.3,13l2.5-0.4
		l1.5-0.2l2.5-0.4c0,0,0.1-3.1,0.1-7.4c0-0.9,0-1.8,0-2.7c0-0.5,0-0.9,0-1.4c0-0.5,0-1,0-1.5c0-1,0-2,0-3l0,0l1.3,2.3
		C117.1,153.6,119.7,153.3,122.5,151.5z M116.5,147.9c-0.1,0-0.2,0-0.3,0c-0.2,0-0.3,0-0.5,0l0-0.2l0.2-6.1c0-0.7,0.2-1.3,0.4-1.9
		c0.1-0.3,0.3-0.5,0.4-0.8c0.5-0.7,1.1-1.3,1.8-1.7c0.4-0.3,0.9-0.4,1.4-0.5c0.2,0,0.4,0,0.6,0c0.1,0,0.1,0,0.2,0
		c0.2,0,0.4,0.1,0.6,0.2c0.4,0.2,0.8,0.7,0.9,1.2c0.1,0.2,0.1,0.4,0.1,0.6c0.1,0.4,0.1,0.9,0,1.3c0,0.5-0.1,1-0.2,1.5
		c-0.1,0.5-0.3,1-0.4,1.5c-0.2,0.5-0.4,0.9-0.6,1.3c-0.2,0.3-0.3,0.5-0.5,0.8c-0.1,0.1-0.1,0.2-0.2,0.2c-0.1,0.2-0.3,0.3-0.4,0.5
		c-0.1,0.1-0.2,0.2-0.3,0.2c-0.1,0.1-0.3,0.3-0.4,0.4c-0.1,0.1-0.2,0.2-0.3,0.2c-0.1,0.1-0.3,0.2-0.4,0.3c-0.1,0.1-0.2,0.1-0.3,0.2
		c-0.1,0.1-0.3,0.2-0.4,0.2c-0.1,0.1-0.2,0.1-0.3,0.1c-0.1,0.1-0.3,0.1-0.4,0.2c-0.1,0-0.2,0.1-0.3,0.1
		C116.8,147.9,116.6,147.9,116.5,147.9z"/>
	<path fill="#2292A4" d="M41.7,168.8c-0.3,0.2-0.6,0.5-0.8,0.9c-0.2,0.3-0.4,0.7-0.5,1.1c0,0.2-0.1,0.4-0.1,0.6l-0.1,3.4l67.9-9.7
		l0.1-6.3l-64.9,9.3C42.7,168.2,42.1,168.5,41.7,168.8z"/>
	<path fill="#2292A4" d="M187.3,121.8l-0.1,15.5c0,1.1-0.3,1.7-0.7,2.1c-0.3,0.3-0.7,0.4-1,0.4c-0.1,0-0.2,0-0.2,0
		c-0.1,0-0.1,0-0.2,0c-0.1,0-0.1,0-0.2,0c-0.1,0-0.1,0-0.2,0c-0.1,0-0.1-0.1-0.2-0.1c0,0-0.1-0.1-0.1-0.1c-0.1,0-0.1-0.1-0.2-0.1
		c0,0-0.1-0.1-0.1-0.1c-0.1-0.1-0.1-0.1-0.1-0.2c0-0.1-0.1-0.1-0.1-0.2c0-0.1-0.1-0.2-0.1-0.3c0-0.1-0.1-0.1-0.1-0.2
		c0-0.1-0.1-0.3-0.1-0.4c0-0.1,0-0.1,0-0.2c0-0.2,0-0.5,0-0.7l0.2-14.7l-7.9,1.1l-0.1,3.1l-0.1,3.1l1.5-0.2l-0.2,7.9
		c0,0.5,0,1,0.1,1.5c0.1,0.5,0.2,1,0.4,1.5c0.1,0.2,0.1,0.3,0.2,0.4c0.1,0.3,0.3,0.5,0.4,0.8c0.1,0.1,0.2,0.3,0.3,0.4
		c0.2,0.2,0.3,0.4,0.5,0.6c0.1,0.1,0.3,0.2,0.4,0.3c0.2,0.1,0.4,0.3,0.6,0.4c0.1,0.1,0.3,0.2,0.4,0.2c0.2,0.1,0.4,0.2,0.6,0.3
		c0.1,0.1,0.3,0.1,0.4,0.2c0.2,0.1,0.4,0.1,0.6,0.2c0.1,0,0.3,0.1,0.4,0.1c0.2,0,0.4,0.1,0.6,0.1c0.1,0,0.2,0,0.4,0
		c0.3,0,0.6,0,0.8,0c1.7-0.2,2.5-0.8,3-1.2l0,4.6l-70.3,10c0,1.2,0,2.4-0.1,3.5c0,1.1,0,2-0.1,2.9l71.9-10.3
		c0.9-0.1,1.8-0.4,2.5-0.7c0.4-0.2,0.7-0.4,1-0.6c0.6-0.5,1-1,1.4-1.7c0.5-1,0.8-2.4,0.8-4.1l0.1-25.8L187.3,121.8z"/>
	<path fill="#2292A4" d="M80,53.1c-0.5,0-0.8,0-1.4,0.1c-1.7-5.6-2.5-8.1-4.2-12.7c-2.2,0.9-3.2,1.4-5.4,2.4
		c-1.3,4.9-1.9,7.1-3.3,10.9c-0.5,0-0.8,0.1-1.3,0.1c0,0.7,0,1,0,1.6c1.7,0,2.5,0,4.2,0c0-0.8,0-1.2,0-2c-0.5,0-0.8,0.1-1.3,0.1
		c0.3-1.1,0.5-1.6,0.8-2.7c1.4-0.3,2.1-0.4,3.5-0.6c0.4,1.2,0.6,1.9,1,3.2c-0.5,0-0.7,0-1.2,0.1c0,0.8,0,1.2,0.1,2
		c3.4,0,5.1,0,8.5,0C80.1,54.6,80,54.1,80,53.1z M68.7,49.2c0.5-1.7,0.7-2.6,1.2-4.5c0.5,1.5,0.8,2.3,1.3,3.9
		C70.2,48.9,69.7,49,68.7,49.2z"/>
	<path fill="#2292A4" d="M85.1,36.9c-3.4,0.9-5.1,1.5-8.4,2.8c0,0.9,0,1.4,0.1,2.3c0.5-0.2,0.7-0.2,1.2-0.4c2.1,5,3.2,7.8,5.3,14
		c1.6,0,2.4,0,4,0c1.5-6.4,2.3-9.8,3.9-16.8c0.5-0.1,0.8-0.1,1.3-0.2c0-1.3,0-2-0.1-3.3c-1.8,0.3-2.6,0.5-4.4,0.9
		c0,1.2,0.1,1.9,0.1,3.1c0.5-0.1,0.8-0.2,1.4-0.3c-1,4.4-1.4,6.5-2.4,10.6c-1.3-4.1-1.9-6-3.2-9.7c0.6-0.1,0.8-0.2,1.4-0.3
		C85.1,38.5,85.1,38,85.1,36.9z"/>
	<path fill="#2292A4" d="M107,47.7c-0.1,0-0.2,0-0.3,0c-1.6,0-2.4,2.1-2.4,5.3c-1.5,0-2.2,0-3.6,0c0-2.9-0.1-4.4-0.1-7.3
		c0.7,0,1.1,0,1.9-0.1c0,1,0,1.5,0,2.5c0.5,0,0.8,0,1.3,0c0-3,0-4.5-0.1-7.5c-0.5,0-0.8,0-1.3,0.1c0,1,0,1.5,0,2.4
		c-0.7,0-1.1,0-1.9,0.1c0-2.7-0.1-4.1-0.1-6.8c1.2-0.1,1.8-0.1,2.9-0.2c0.7,1.7,1.1,2.5,1.8,4.2c0.5,0,0.8,0,1.3,0
		c0-2.7,0-4.1,0-6.8c-5.2,0.1-7.9,0.4-13,1.3c0,1.2,0,1.8,0.1,3c0.5-0.1,0.7-0.1,1.2-0.2c0.1,5.9,0.2,8.8,0.3,14.7
		c-0.5,0-0.7,0-1.2,0c0,1.2,0,1.8,0.1,3c5.2,0,7.8,0,13,0C107,52.4,107,50.8,107,47.7z"/>
	<path fill="#2292A4" d="M120.6,46.3c-2.1-4.9-3.2-7.4-5.4-12.4c-2.6-0.2-3.9-0.2-6.5-0.2c0,1.5,0,2.3,0,3.8c0.5,0,0.7,0,1.2,0
		c0,5.8,0,8.7,0,14.4c-0.5,0-0.8,0-1.4,0c0,1.4,0,2.1,0,3.5c1.7,0,2.6,0,4.3,0c0-1.4,0-2.1,0-3.5c-0.6,0-0.9,0-1.5,0
		c0-5,0-7.5,0.1-12.4c2.9,6.4,4.3,9.7,7,15.9c1.4,0,2.1,0,3.5,0c0.1-7,0.2-10.4,0.3-17.4c0.6,0.1,0.8,0.1,1.4,0.2c0-1.3,0-2,0.1-3.3
		c-1.7-0.3-2.6-0.4-4.4-0.6c0,1.4,0,2-0.1,3.4c0.6,0.1,0.9,0.1,1.5,0.2C120.7,41.3,120.6,43,120.6,46.3z"/>
	<path fill="#2292A4" d="M131.9,55.8c3.3,0,5.7-2.7,5.9-7.1c0.1-2.9,0.1-4.4,0.2-7.3c0.5,0.1,0.7,0.2,1.2,0.4c0-1.1,0.1-1.6,0.1-2.6
		c-1.6-0.6-2.3-0.8-3.9-1.3c0,1.1-0.1,1.7-0.1,2.8c0.5,0.1,0.8,0.2,1.3,0.3c-0.1,3-0.2,4.5-0.3,7.5c-0.1,2.4-1,3.9-2.4,3.8
		c-1.8-0.1-2.6-1.5-2.5-4.5c0.1-3.3,0.2-5,0.3-8.3c0.4,0.1,0.6,0.1,1,0.2c0-1.1,0.1-1.6,0.1-2.7c-3.1-0.9-4.7-1.2-7.9-1.8
		c0,1.2,0,1.8-0.1,2.9c0.5,0.1,0.7,0.1,1.2,0.2c-0.1,3.2-0.1,4.8-0.2,8C125.8,52.6,127.8,55.8,131.9,55.8z"/>
	<path fill="#2292A4" d="M141.1,53.3c-0.5,0-0.7,0-1.2-0.1c0,0.9,0,1.4-0.1,2.3c5.2,0,7.8,0,13,0.1c0-1.5,0-2.2,0-3.6
		c-0.1,0-0.2,0-0.3-0.1c-1.5-0.3-2.3,0.7-2.4,2.4c-1.4-0.1-2.2-0.1-3.6-0.2c0-1.8,0.1-2.7,0.1-4.5c0.7,0.2,1.1,0.2,1.8,0.4
		c0,0.6,0,0.9,0,1.5c0.5,0.1,0.7,0.1,1.2,0.2c0-1.6,0-2.4,0.1-4.1c-0.5-0.2-0.7-0.3-1.2-0.4c0,0.6,0,0.8,0,1.4
		c-0.7-0.2-1.1-0.3-1.8-0.5c0-1.7,0.1-2.5,0.1-4.2c1.1,0.5,1.6,0.7,2.7,1.2c0.7,1.3,1,1.9,1.6,3c0.5,0.2,0.7,0.3,1.2,0.5
		c0-1.3,0-2,0-3.3c-4.7-2.7-7.2-3.8-12.1-5.7c0,0.9,0,1.4-0.1,2.3c0.5,0.2,0.7,0.2,1.2,0.4C141.3,46.7,141.2,48.9,141.1,53.3z"/>
	<path fill="#2292A4" d="M51.2,51.3c2.4-2.1,4.6-4.5,5.8-6.9c-0.7-1-1.1-1.6-1.8-2.6c-0.1,0.1-0.2,0.1-0.4,0.2
		c-1.7,1.2-1.3,3.8-1.3,4.7c0,0.3-1,1.1-1.6,1.7c-2.3,1.8-5,2.1-7-0.1c-1.9-2.1-1.2-5.6,1.9-8c1.6,0.2,2.3,0.3,3.9,0.5
		c0.9-0.7,1.4-1,2.3-1.7c-1-1.4-1.5-2.1-2.5-3.5c-1.1,0.8-1.6,1.2-2.7,2c0.2,0.3,0.4,0.5,0.6,0.8c-1.8,0.3-3.8,1.3-5.9,3.1
		c-5.6,4.8-6.9,10.4-4,13.1C41.3,57.2,46.3,55.5,51.2,51.3z"/>
	<path fill="#2292A4" d="M55.2,34.5c2,3.1,2.9,4.6,4.9,7.7c-0.6,0.4-0.9,0.6-1.4,0.9c0.4,0.6,0.6,0.9,1,1.5
		c6.2-4.1,9.4-5.8,16.2-8.5c-0.7-1.7-1-2.5-1.7-4.2C74,32,74,32,73.8,32c-2.1,0.9-2.7,2.5-1.9,4.2c-1.9,0.8-2.8,1.3-4.6,2.2
		c-0.8-1.5-1.2-2.3-2-3.9c1-0.5,1.5-0.8,2.5-1.2c0.3,0.5,0.4,0.8,0.7,1.4c0.7-0.3,1-0.5,1.7-0.8c-0.7-1.6-1.1-2.4-1.8-4
		c-0.7,0.3-1.1,0.5-1.8,0.8c0.3,0.5,0.4,0.8,0.6,1.3c-1,0.5-1.5,0.7-2.5,1.3c-0.7-1.4-1.1-2.2-1.9-3.6c1.6-0.8,2.4-1.2,4-2
		c1.4,0.5,2.1,0.7,3.5,1.2c0.7-0.3,1.1-0.5,1.8-0.8c-0.6-1.5-0.9-2.2-1.5-3.7c-7.5,3-11.1,4.9-18,9.5c0.4,0.6,0.6,0.9,1,1.5
		C54.3,35.1,54.6,34.9,55.2,34.5z"/>
	<path fill="#2292A4" d="M76.1,24.8c1.1,3.2,1.7,4.8,2.8,8c-0.7,0.3-1.1,0.4-1.8,0.7c0.3,0.8,0.4,1.2,0.7,1.9
		c2.2-0.8,3.4-1.2,5.6-1.9c-0.2-0.8-0.4-1.2-0.6-2c-0.8,0.2-1.2,0.4-2,0.6c-0.9-2.8-1.4-4.2-2.3-7c5.3,2.2,7.8,3.5,12.3,6.4
		c1.9-0.4,2.8-0.6,4.7-0.8c-0.6-4.2-1-6.4-1.6-10.6c0.8-0.1,1.3-0.2,2.1-0.3c-0.1-0.8-0.2-1.2-0.3-2c-2.7,0.3-4,0.6-6.6,1.1
		c0.2,0.8,0.2,1.2,0.4,2c0.9-0.2,1.3-0.3,2.2-0.4c0.4,2,0.5,3,0.9,5.1c-3.6-2.3-5.6-3.3-9.7-5.2c-3.8,1-5.8,1.6-9.5,3
		c0.3,0.8,0.5,1.3,0.8,2.1C75,25.2,75.4,25.1,76.1,24.8z"/>
	<path fill="#2292A4" d="M100.6,21.7c1.1-1.3,1.6-1.9,2.8-3.1c0.5,0,0.7,0,1.2-0.1c0.2,3.8,0.3,5.6,0.4,9.4c-0.6,0-0.8,0-1.4,0.1
		c0,0.7,0.1,1.1,0.1,1.8c4.2-0.3,6.2-0.3,10.4,0c0-0.7,0.1-1.1,0.1-1.8c-0.6,0-0.8,0-1.4-0.1c0.2-3.8,0.2-5.6,0.4-9.4
		c0.3,0,0.5,0,0.8,0c1.1,1.2,1.7,1.8,2.8,3.1c0.8,0.1,1.2,0.1,2,0.2c0.2-1.8,0.3-2.7,0.4-4.5c-8.3-0.8-12.5-0.8-20.9,0.1
		c0.2,1.8,0.3,2.7,0.4,4.5C99.4,21.8,99.8,21.8,100.6,21.7z"/>
	<path fill="#2292A4" d="M131,30.5c-0.7-0.2-1-0.2-1.6-0.4c0.3-1.5,0.5-2.2,0.8-3.7c0.4,0.1,0.6,0.2,1.1,0.3
		c3.6,1.1,2.5,4.1,3.8,5.9c0.6,0.9,2,1.8,4.1,2.3c0.3-0.6,0.5-0.9,0.9-1.5c-0.6-0.4-1-0.6-1.6-1c1-3-0.9-4.9-3.9-6.2
		c2.2,0.3,4.3-0.1,4.7-1.5c0.5-1.7-0.7-3.6-4.6-4.6c-1.8-0.5-2.4-0.6-5.5-1.2c-3.1-0.6-4.6-0.9-7.7-1.2c-0.1,0.7-0.1,1.1-0.2,1.8
		c0.7,0.1,1.1,0.1,1.8,0.2c-0.5,3.6-0.8,5.4-1.3,9c-0.7-0.1-1-0.1-1.6-0.2c-0.1,0.7-0.1,1.1-0.2,1.8c4.3,0.5,6.5,0.9,10.7,2
		C130.7,31.6,130.8,31.3,131,30.5z M131.6,20.5c0.1,0,0.2,0,0.3,0.1c2.2,0.5,3.1,1.7,2.8,3.1c-0.4,1.4-1.7,1.9-3.6,1.6
		c-0.2,0-0.3,0-0.5-0.1C130.9,23.3,131.2,22.4,131.6,20.5z"/>
	<path fill="#2292A4" d="M146.8,35.8c-0.7-0.3-1-0.5-1.7-0.7c0.9-0.8,1.4-1.2,2.3-2.1c1.9,0.9,2.9,1.3,4.8,2.3
		c-0.1,1.3-0.1,2-0.2,3.3c-0.6-0.3-0.9-0.5-1.5-0.8c-0.3,0.7-0.5,1-0.8,1.6c4.2,2.2,6.3,3.4,10.3,6.2c0.4-0.6,0.6-0.9,1.1-1.5
		c-0.7-0.5-1-0.7-1.6-1.1c0.6-4.9,0.8-7.3,0.8-12.3c-3.1-1.8-4.7-2.6-7.9-4.1c-3.9,2.9-5.7,4.5-9.2,7.7c-0.7-0.3-1.1-0.4-1.8-0.7
		c-0.3,0.8-0.4,1.2-0.7,1.9c2.2,0.8,3.3,1.3,5.5,2.3C146.3,36.9,146.5,36.5,146.8,35.8z M152.4,28.9c0,1.8,0,2.7-0.1,4.5
		c-1.4-0.7-2-1-3.4-1.6C150.3,30.6,151,30,152.4,28.9z"/>
	<path fill="#2292A4" d="M175,58.9c1.6-1.5,2.4-2.2,4.1-3.7c-0.1-0.1-0.2-0.2-0.3-0.3c-1.8-2-4.2-2.1-5.9-0.3
		c-1.2-1.2-1.8-1.7-3-2.8c2.5-2.8,3.8-4.2,6.3-7c0.6,0.5,0.9,0.8,1.4,1.3c0.5-0.5,0.8-0.8,1.3-1.3c-3.9-3.7-5.9-5.3-10.1-8.4
		c-0.4,0.6-0.6,0.9-1.1,1.5c0.6,0.4,0.9,0.7,1.5,1.1c-2.2,2.9-3.3,4.4-5.5,7.3c-0.5-0.4-0.8-0.6-1.4-1c-0.4,0.6-0.6,0.9-1.1,1.5
		C167.2,50.9,170,53.3,175,58.9z"/>
</g>
</svg>
