<?xml version="1.0" encoding="utf-8"?>
<!-- Generator: Adobe Illustrator 22.1.0, SVG Export Plug-In . SVG Version: 6.00 Build 0)  -->
<!DOCTYPE svg PUBLIC "-//W3C//DTD SVG 1.1//EN" "http://www.w3.org/Graphics/SVG/1.1/DTD/svg11.dtd">
<svg version="1.1" id="Layer_1" xmlns="http://www.w3.org/2000/svg" xmlns:xlink="http://www.w3.org/1999/xlink" x="0px" y="0px"
	 viewBox="0 0 216 156.4" style="enable-background:new 0 0 216 156.4;" xml:space="preserve">
<style type="text/css">
	.st0{fill:url(#SVGID_1_);}
	.st1{fill:#272525;}
	.st2{fill:#FFFFFF;}
</style>
<g>
	<g>
		
			<linearGradient id="SVGID_1_" gradientUnits="userSpaceOnUse" x1="115.9546" y1="4.1166" x2="100.0454" y2="155.4834" gradientTransform="matrix(1 0 0 -1 0 158)">
			<stop  offset="1.926141e-02" style="stop-color:#EBB952"/>
			<stop  offset="0.3001" style="stop-color:#FFF25A"/>
			<stop  offset="0.4924" style="stop-color:#B8DEF7"/>
			<stop  offset="1" style="stop-color:#66A9D0"/>
		</linearGradient>
		<ellipse class="st0" cx="108" cy="78.2" rx="105.6" ry="75.7"/>
		<path class="st1" d="M108,156.4c-59.6,0-108-35.1-108-78.2S48.5,0,108,0s108,35.1,108,78.2S167.6,156.4,108,156.4z M108,4.9
			C51.1,4.9,4.9,37.8,4.9,78.2s46.3,73.3,103.1,73.3s103.1-32.9,103.1-73.3S164.9,4.9,108,4.9z"/>
	</g>
	<g>
		<g>
			<path class="st1" d="M18.7,76.9c17.3-2.2,67.1-7.3,79.9-8.4c12.9-1.1,73.7-6.6,93.8-8c0.9,0,1.7,0.2,2.5,0.6
				c0.8,0.4,2,0.8,3.6,1.2c0.7,0.7,1.4,1.4,2.1,2.2c0.7,0.7,1.4,1.5,1.8,2.1c0.5,0.7,0.7,1.3,0.7,1.7c-7.2,0.9-57.3,6-62,6.7
				c-4.6,0.7-9.6,1.5-14.9,2.4c-5.3,0.9-10.4,1.7-15.2,2.5c-0.7,0.7-2,2.3-3.8,4.7c-1.9,2.4-4.6,6.3-8.2,11.7
				c-1.6,2.4-3.9,5.7-6.9,10s-5.5,7.8-7.4,10.4s-4.2,5.8-6.8,9.5c-2.6,3.7-5.6,7.9-8.8,12.7c-1.4-0.1-3.3-0.7-5.6-1.8
				c-2.3-1.1-3.7-1.7-4.1-1.8c-1.1-0.3-2.2-0.5-3.2-0.8s-1.7-0.5-2.3-0.8s-0.9-0.6-0.9-0.8l36.1-52c-5.2,0.2-9.9,0.5-14.2,0.8
				C70.6,82,30,86.1,22.4,87.1c-0.8-0.4-1.3-1-1.5-1.7s-0.3-1.7-0.3-3c0-0.6-0.2-1.1-0.5-1.6s-0.6-0.9-0.9-1.2
				c-0.3-0.3-0.5-0.6-0.8-0.8c-0.2-0.3-0.3-0.5-0.3-0.8C18.4,77.8,18.5,77.4,18.7,76.9z"/>
			<path class="st2" d="M192.5,60.4c0.9,0,1.7,0.2,2.5,0.6c0.8,0.4,2,0.8,3.6,1.2c0.7,0.7,1.4,1.4,2.1,2.2c0.7,0.7,1.4,1.5,1.8,2.1
				c0.5,0.7,0.7,1.3,0.7,1.7c-7.2,0.9-57.3,6-62,6.7c-4.6,0.7-9.6,1.5-14.9,2.4c-5.3,0.9-10.4,1.7-15.2,2.5c-0.7,0.7-2,2.3-3.8,4.7
				c-1.9,2.4-4.6,6.3-8.2,11.7c-1.6,2.4-3.9,5.7-6.9,10s-5.5,7.8-7.4,10.4s-4.2,5.8-6.8,9.5c-2.6,3.7-5.6,7.9-8.8,12.7
				c-1.4-0.1-3.3-0.7-5.6-1.8c-2.3-1.1-3.7-1.7-4.1-1.8c-1.1-0.3-2.2-0.5-3.2-0.8s-1.7-0.5-2.3-0.8s-0.9-0.6-0.9-0.8l36.1-52
				C84,81,79.3,81.3,75,81.6C70.7,81.9,30.1,86,22.5,87c-0.8-0.4-1.3-1-1.5-1.7s-0.3-1.7-0.3-3c0-0.6-0.2-1.1-0.5-1.6
				s-0.6-0.9-0.9-1.2c-0.3-0.3-0.5-0.6-0.8-0.8c-0.2-0.3-0.3-0.5-0.3-0.8c0-0.2,0.1-0.5,0.3-1.1c17.3-2.2,67.1-7.3,79.9-8.4
				C111.5,67.3,172.3,61.9,192.5,60.4 M192.5,57.5c-0.1,0-0.1,0-0.2,0c-16.8,1.2-62.1,5.2-83.8,7.1c-4.4,0.4-7.9,0.7-10,0.9
				c-13,1.1-62.6,6.2-80,8.4c-1,0.1-1.9,0.8-2.3,1.8s-0.6,1.6-0.6,2.2s0.2,1.6,1,2.6c0.3,0.3,0.6,0.7,0.9,1c0.1,0.1,0.2,0.3,0.5,0.7
				c0,1.7,0.2,3,0.5,3.9s1.1,2.3,2.9,3.3c0.4,0.2,0.9,0.4,1.4,0.4c0.1,0,0.2,0,0.4,0c7.4-0.9,48-5,52.3-5.4c2.6-0.2,5.4-0.4,8.3-0.5
				L51,131.1c-0.3,0.5-0.5,1.1-0.5,1.7c0,1,0.4,2.4,2.5,3.4c0.8,0.4,1.7,0.7,2.9,1c0.9,0.2,2,0.5,3,0.8c0.3,0.1,1.1,0.5,3.7,1.7
				c2.7,1.2,4.8,1.9,6.6,2c0.1,0,0.1,0,0.2,0c1,0,1.9-0.5,2.4-1.3c3.1-4.7,6.1-9,8.7-12.6c2.7-3.8,4.9-6.9,6.8-9.5s4.4-6.1,7.4-10.4
				s5.4-7.7,7-10c3.5-5.3,6.3-9.2,8.1-11.6c1.5-1.9,2.4-3.1,3-3.8c4.5-0.7,9.3-1.5,14.2-2.3c5.3-0.9,10.2-1.7,14.8-2.4
				c2.3-0.3,16.7-1.8,30.6-3.3c13.7-1.4,27.8-2.9,31.4-3.4c1.4-0.2,2.5-1.4,2.5-2.9c0-1.1-0.4-2.2-1.3-3.4c-0.6-0.8-1.3-1.6-2.1-2.5
				c-0.7-0.7-1.4-1.5-2.1-2.1c-0.4-0.4-0.9-0.7-1.4-0.8c-1.8-0.4-2.7-0.8-3.1-1C195,57.8,193.8,57.5,192.5,57.5L192.5,57.5z"/>
		</g>
	</g>
	<g>
		<g>
			<path class="st2" d="M113.1,86.8c0.2,0.2,0.4,0.4,0.4,0.7c0,0.3-0.1,0.5-0.2,0.8c-0.2,0.2-0.4,0.5-0.7,0.6
				c-0.4,0.2-0.6,0.4-0.6,0.6s0.2,0.3,0.5,0.5s0.8,0.3,1.5,0.6c0.7,0.2,1.1,0.4,1.4,0.5s0.4,0.3,0.5,0.4c-0.3,0.1-0.7,0.1-1,0.2
				c-0.8,0.1-1.7,0.1-2.6-0.1s-1.8-0.4-2.6-0.8c-0.8-0.3-1.4-0.8-1.9-1.2c-0.5-0.5-0.8-1-0.8-1.4s0.1-0.8,0.3-1.1
				c0.1-0.1,0.4-0.3,0.8-0.5s0.9-0.4,1.6-0.5C111,85.8,112.2,86.1,113.1,86.8z"/>
			<path class="st2" d="M113.9,93.1c-0.6,0-1.3-0.1-2-0.2c-1-0.2-2-0.5-2.9-0.9s-1.7-0.9-2.3-1.5c-0.8-0.7-1.2-1.5-1.3-2.4
				c-0.1-0.8,0.2-1.5,0.7-2.1l0.1-0.1c0.2-0.2,0.6-0.5,1.1-0.8c0.6-0.3,1.3-0.6,2.1-0.7c1.9-0.2,3.4,0.2,4.7,1.1l0,0
				c0.6,0.4,0.9,1.1,1,1.8c0,0.6-0.1,1.2-0.5,1.7c0,0,0,0,0,0.1c0.7,0.2,1.2,0.4,1.5,0.6c1,0.5,1.3,1.1,1.3,1.6
				c0.1,0.7-0.4,1.4-1.1,1.5c-0.4,0.1-0.8,0.2-1.2,0.2C114.6,93.1,114.2,93.1,113.9,93.1z M108.3,88c0,0.1,0.1,0.3,0.3,0.5
				c0.4,0.4,0.9,0.7,1.5,1c0.1,0.1,0.2,0.1,0.4,0.2l0,0c0-0.6,0.1-1.3,1.2-1.9c-0.6-0.2-1.2-0.3-2.1-0.2c-0.6,0.1-0.9,0.2-1,0.3
				C108.5,87.8,108.4,87.9,108.3,88z"/>
		</g>
		<g>
			<path class="st2" d="M118.4,95.2c-0.1-0.8,0.6-1.6,2-2.4s3.4-1.5,6.2-2.1c0.5-0.1,1.1-0.2,1.8-0.3c0.7-0.1,1.5-0.1,2.2-0.1
				s1.3,0.1,1.9,0.1c0.5,0.1,0.9,0.2,1,0.4c0.2,0.1,0.5,0.2,0.8,0.4c0.3,0.2,0.5,0.3,0.5,0.4s0,0.3,0,0.5c0,0.3-0.1,0.5-0.1,0.6
				c-0.6,0.5-1.2,0.8-1.7,1.1c-0.5,0.3-1,0.5-1.7,0.7c-0.6,0.2-1.3,0.4-2.1,0.5c-0.5-0.1-0.8-0.5-0.8-1c0-0.3,0-0.5,0.1-0.6
				c0.4-0.2,0.9-0.4,1.4-0.6s1-0.3,1.4-0.5c-1,0-2,0-2.9,0.1c-1.2,0.1-2.2,0.4-3.1,0.7c-0.9,0.3-1.6,0.7-2.1,1c0,0.4,0.3,0.7,0.9,1
				c0.6,0.2,1.5,0.5,2.8,0.8c1.3,0.3,2.3,0.6,3,0.9c0.7,0.3,1,0.7,1.1,1.3c-0.1,0.6-0.6,1.2-1.5,1.8c-0.9,0.6-1.9,1.2-3.2,1.7
				c-0.8,0.3-1.8,0.7-3,0.9c-1.2,0.3-2.3,0.5-3.4,0.6c-0.7,0.1-1.3,0.1-1.8,0.1c-1.2,0-2.1-0.2-2.9-0.5c-0.7-0.3-1.1-0.8-1.1-1.3
				c0-0.3,0-0.6,0.2-0.9c0.1-0.3,0.4-0.7,0.9-1s1-0.6,1.6-0.9s1.2-0.4,1.8-0.5c1.1-0.1,1.9,0.1,2.3,0.8c-0.8,0.3-1.3,0.5-1.7,0.6
				c-0.3,0.1-0.5,0.3-0.7,0.5c-0.1,0.2-0.2,0.5-0.2,0.9c0.1,0.2,0.5,0.2,1.3,0.1c1.2-0.1,2.5-0.5,4-1s2.5-1,2.8-1.5
				c0-0.4-0.3-0.7-0.9-0.9c-0.6-0.2-1.5-0.4-2.9-0.6c-1.3-0.2-2.3-0.5-3-0.8C118.9,96.2,118.5,95.7,118.4,95.2z"/>
			<path class="st2" d="M118,104.7c-1.4,0-2.5-0.2-3.4-0.6c-1.6-0.7-1.9-1.9-2-2.5c0-0.5,0-1,0.3-1.5c0.3-0.6,0.7-1.1,1.4-1.6
				c0.5-0.4,1.2-0.8,1.9-1.1c0.5-0.2,1-0.4,1.6-0.5c-0.4-0.5-0.6-1-0.7-1.4c0-0.1,0-0.1,0-0.2c-0.1-1.4,0.8-2.7,2.7-3.8
				c1.5-0.9,3.7-1.6,6.6-2.3c0.5-0.1,1.2-0.2,1.9-0.3c0.8-0.1,1.6-0.1,2.3-0.1c0.8,0,1.5,0.1,2.1,0.2c0.7,0.1,1.2,0.3,1.6,0.6
				c0.2,0.1,0.5,0.2,0.7,0.4c0.3,0.2,1.1,0.7,1.2,1.6c0,0.2,0,0.5-0.1,0.9c0,0.3-0.1,0.5-0.1,0.6c-0.1,0.4-0.3,0.7-0.6,0.9
				c-0.7,0.5-1.3,0.9-1.8,1.2c-0.6,0.3-1.2,0.6-1.9,0.9c-0.1,0-0.2,0.1-0.4,0.1c0.8,0.7,1,1.5,1.1,2c0,0.1,0,0.3,0,0.4
				c-0.2,1-0.9,1.9-2.1,2.7c-1,0.7-2.1,1.3-3.5,1.9c-0.9,0.4-2,0.7-3.3,1s-2.5,0.5-3.6,0.6C119.2,104.7,118.6,104.7,118,104.7
				L118,104.7z M115.5,101.4c0,0,0.1,0.1,0.3,0.1c0.2,0.1,0.6,0.2,1.2,0.3c-0.1-0.2-0.2-0.4-0.2-0.6c0-0.3,0-0.6,0.1-0.9
				c-0.3,0.2-0.6,0.3-0.9,0.5c-0.3,0.3-0.4,0.4-0.4,0.4C115.5,101.3,115.5,101.3,115.5,101.4z M127.4,97.6c0.3,0.4,0.3,0.8,0.4,1
				c0,0.3,0,0.5-0.1,0.8c0.4-0.2,0.7-0.4,1-0.6s0.5-0.4,0.7-0.6C128.9,98,128.2,97.8,127.4,97.6z M125.1,99.3L125.1,99.3L125.1,99.3
				z M122.2,98.7c0,0.1,0.1,0.3,0,0.5c0.3-0.1,0.5-0.2,0.8-0.3l0,0C122.8,98.8,122.6,98.7,122.2,98.7L122.2,98.7z M119.9,95
				c0.1,0,0.1,0.1,0.3,0.1c0.5,0.2,1.3,0.4,2.2,0.6c-0.5-0.5-0.6-1.1-0.6-1.4c0-0.2,0-0.5,0.1-0.7c-0.3,0.1-0.5,0.3-0.8,0.4
				C120.3,94.5,120,94.8,119.9,95z M126.3,94.3c0.2,0,0.4,0.1,0.6,0.1c0-0.1,0-0.2,0-0.3C126.7,94.2,126.5,94.3,126.3,94.3z
				 M132.7,92c0,0.1,0,0.1,0,0.2v0.1c0.1,0,0.1-0.1,0.2-0.1C132.9,92.2,132.8,92.2,132.7,92C132.7,92,132.7,92,132.7,92z"/>
		</g>
		<g>
			<path class="st2" d="M146.3,81.8c0.5,0,0.7,0,0.7,0c0.1,0,0.1,0.1,0.1,0.2c0,0.3-0.3,1-1,2s-1.6,2.4-2.8,4
				c-1.2,1.7-1.8,2.6-1.8,2.7c0.3-0.1,0.8-0.4,1.6-0.8s1.5-0.8,2.1-1s1.1-0.4,1.7-0.4c0.9-0.1,1.8,0,2.7,0.4
				c0.5,0.2,0.8,0.5,0.8,0.9c0,0.3,0,0.6-0.2,1c-0.2,0.3-0.4,0.7-0.6,1.1c-0.3,0.4-0.5,0.9-0.9,1.4c-1.6,2.9-3,5.3-4.3,7.2
				c-0.2,0-0.4,0-0.6,0c-0.2,0-0.3,0-0.5-0.1c-0.2,0-0.3-0.1-0.4-0.1c-0.1,0-0.2-0.1-0.4-0.1c-0.6-0.1-1-0.2-1.2-0.3
				c-0.3-0.1-0.4-0.2-0.5-0.4c0.1-0.2,0.4-0.7,0.7-1.3c0.4-0.6,0.7-1.3,1.2-1.9c0.4-0.6,0.7-1.2,1-1.6c0.3-0.5,0.6-0.9,0.9-1.3
				c0.3-0.4,0.5-0.8,0.8-1.2c0.3-0.4,0.6-0.9,0.8-1.3c-1.5,0.4-2.7,0.8-3.7,1.5c-1,0.6-1.8,1.3-2.5,2.1c-0.7,0.8-1.5,2-2.5,3.6
				s-1.8,2.8-2.5,3.7c-0.4,0-0.7,0-1,0c-0.3-0.1-0.5-0.1-0.7-0.2s-0.4-0.2-0.5-0.3c-0.3-0.1-0.6-0.2-0.9-0.2
				c-0.3-0.1-0.5-0.2-0.6-0.4c0.4-0.5,0.8-1.3,1.4-2.2c0.6-0.9,1.1-1.8,1.6-2.6c0.5-0.8,0.9-1.5,1.3-2c0.4-0.6,0.7-1.1,1.1-1.6
				c0.4-0.6,1.1-1.6,2.1-3.2c1-1.5,1.7-2.6,2.2-3.3c0.5-0.7,1-1.4,1.5-2.1s0.9-1.1,1-1.2c0,0,0-0.1,0.1-0.1c0.1-0.1,0.1-0.1,0.2-0.2
				c0.1-0.1,0.2-0.1,0.2-0.1c0.2,0,0.4,0,0.5,0.2c0.2,0.1,0.4,0.2,0.6,0.2c0.1,0,0.3-0.1,0.5-0.1C146,81.9,146.2,81.9,146.3,81.8z"
				/>
			<path class="st2" d="M134.6,103.1c-0.3,0-0.6,0-0.9-0.1c-0.4-0.1-0.7-0.2-1-0.4l-0.4-0.2c-0.2-0.1-0.4-0.1-0.7-0.2
				c-0.9-0.3-1.3-0.8-1.5-1.1c-0.2-0.5-0.2-1,0.1-1.5c0.4-0.5,0.8-1.3,1.4-2.2c0.6-0.9,1.1-1.8,1.6-2.6c0.5-0.8,0.9-1.5,1.3-2.1
				c0.4-0.6,0.8-1.1,1.1-1.6c0.4-0.5,1.1-1.6,2.1-3.1s1.7-2.7,2.2-3.4c0.5-0.7,1-1.4,1.5-2.2c0.6-0.8,0.9-1.2,1.2-1.4
				c0.1-0.1,0.2-0.3,0.4-0.4c0.3-0.2,0.6-0.3,1-0.4c0.4,0,0.9,0,1.3,0.3l0,0c0.3-0.1,0.6-0.2,0.8-0.2l0,0c0.5-0.1,1-0.1,1.5,0.2
				c0.5,0.2,0.9,0.7,0.9,1.3c0.1,0.7-0.3,1.5-1.2,3c-0.4,0.7-1,1.5-1.7,2.4c0.3-0.1,0.7-0.1,1-0.2c1.1-0.1,2.2,0,3.3,0.4
				c1,0.4,1.7,1.2,1.8,2.2c0,0.5-0.1,1.1-0.3,1.7c-0.2,0.4-0.4,0.8-0.7,1.3c-0.3,0.4-0.5,0.9-0.9,1.4c-1.6,2.9-3,5.4-4.3,7.3
				c-0.2,0.4-0.6,0.6-1.1,0.6c-0.3,0-0.6,0-0.8,0s-0.5-0.1-0.8-0.1c-0.3-0.1-0.5-0.1-0.6-0.2c-0.1,0-0.1,0-0.2-0.1
				c-0.6-0.1-1-0.2-1.4-0.4c-0.9-0.3-1.2-0.9-1.4-1.4c-0.1-0.4-0.1-0.8,0.1-1.1c0.1-0.3,0.4-0.7,0.8-1.4c0.4-0.6,0.8-1.3,1.2-2
				c0.2-0.4,0.5-0.8,0.7-1.2c-0.4,0.3-0.7,0.7-1,1c-0.6,0.8-1.4,1.9-2.4,3.4c-1,1.6-1.8,2.8-2.5,3.8c-0.2,0.3-0.6,0.5-1,0.6
				C135,103.1,134.8,103.1,134.6,103.1z M133.6,99.8L133.6,99.8l0.5,0.3c0,0,0.1,0,0.2,0.1c0.6-0.8,1.2-1.8,2-3
				c1-1.6,1.9-2.9,2.6-3.7c0.5-0.6,1-1.1,1.6-1.6c-0.4-0.3-0.5-0.8-0.4-1.3c0.1-0.4,0.1-0.5,2.1-3.3c1.1-1.5,2-2.7,2.6-3.7
				c-0.1,0-0.2-0.1-0.3-0.1c-0.1,0.1-0.3,0.3-0.6,0.8c-0.5,0.7-1,1.4-1.5,2.1s-1.2,1.8-2.2,3.3s-1.7,2.6-2.1,3.2
				c-0.4,0.5-0.7,1-1.1,1.6c-0.4,0.5-0.8,1.2-1.3,2s-1,1.7-1.6,2.6C133.9,99.3,133.8,99.6,133.6,99.8z M142.9,98.7
				c0.1,0,0.1,0,0.2,0.1c0.2,0.1,0.3,0.1,0.4,0.2c0,0,0.1,0,0.2,0l0,0c1.1-1.7,2.4-3.9,3.8-6.4c0.4-0.6,0.6-1,0.9-1.5
				c0.2-0.3,0.4-0.7,0.5-0.9c-0.5-0.2-1-0.2-1.4-0.2c0.3,0.5,0.4,1.1,0,1.6c-0.3,0.5-0.6,0.9-0.9,1.3c-0.3,0.4-0.6,0.8-0.8,1.2
				c-0.3,0.4-0.5,0.8-0.8,1.3c-0.3,0.4-0.6,1-1,1.6C143.6,97.6,143.2,98.2,142.9,98.7z M144.2,83.5L144.2,83.5L144.2,83.5z
				 M143.9,83.2L143.9,83.2L143.9,83.2z M145.6,82c0,0.1,0,0.1,0,0.2l0,0C145.6,82.1,145.6,82,145.6,82z M145.6,82L145.6,82
				L145.6,82z M145.6,82L145.6,82L145.6,82z M145.7,81.9L145.7,81.9L145.7,81.9z"/>
		</g>
		<g>
			<path class="st2" d="M155.7,93.8c-0.3,0.6-0.6,1.1-0.8,1.4s-0.4,0.8-0.7,1.3s-0.6,1.1-0.9,1.6c-0.3,0.5-0.6,1-0.9,1.4
				c-0.2,0-0.3,0.1-0.4,0.1c-0.3,0-0.7,0-1.1-0.1c-0.4-0.1-0.8-0.3-1.1-0.4c-1-0.2-1.5-0.5-1.5-0.8c0.9-1.4,2.2-3.1,3.7-5.2
				c0.5-0.7,1.1-1.5,1.7-2.3c0.6-0.8,1.2-1.5,1.6-1.9c0.4-0.4,0.7-0.7,0.8-0.8c0.1-0.1,0.2-0.1,0.4-0.1c0.1,0,0.3,0,0.6,0
				c0.2,0,0.4,0,0.6,0c0.2,0,0.4-0.1,0.6-0.2c0.3-0.1,0.5-0.2,0.7-0.2s0.4,0,0.5,0.1c-0.2,0.3-0.5,0.8-1,1.5s-1,1.5-1.5,2.4
				C156.4,92.7,156,93.4,155.7,93.8z M158.1,86.4c-0.4-0.2-0.6-0.6-0.6-1c0-0.5,0.1-0.9,0.5-1.3s0.9-0.8,1.5-1l0.6-0.1
				c1.1,0,1.6,0.3,1.7,0.9c0,0.3-0.1,0.7-0.4,1.1c-0.3,0.4-0.7,0.7-1.2,1s-1,0.5-1.4,0.5C158.6,86.5,158.4,86.5,158.1,86.4z"/>
			<path class="st2" d="M151.9,101.1c-0.4,0-0.9-0.1-1.3-0.2c-0.4-0.1-0.8-0.3-1.1-0.4c-0.8-0.2-2.4-0.6-2.5-2.1
				c0-0.3,0.1-0.6,0.2-0.9c1-1.4,2.2-3.2,3.7-5.2c0.5-0.7,1.1-1.5,1.8-2.3s1.2-1.5,1.6-2c0.6-0.7,0.9-0.9,1.2-1.1
				c0.3-0.1,0.6-0.2,0.9-0.3l0,0c-0.2-0.3-0.3-0.7-0.3-1.1c0-0.6,0.1-1.5,0.9-2.4c0.6-0.6,1.3-1.1,2.1-1.4c0.1,0,0.1,0,0.2-0.1
				l0.6-0.1c0.1,0,0.2,0,0.3,0c2.7,0,3,1.7,3.1,2.2c0.1,0.7-0.2,1.4-0.7,2c-0.4,0.5-0.9,1-1.6,1.4c-0.1,0.1-0.2,0.1-0.2,0.1
				c0.2,0.4,0.2,1-0.1,1.4c-0.2,0.3-0.5,0.8-1,1.5s-1,1.5-1.5,2.4s-1,1.5-1.2,2c-0.3,0.6-0.6,1-0.8,1.4c-0.2,0.3-0.4,0.8-0.7,1.3
				c-0.3,0.6-0.6,1.1-0.9,1.7c-0.3,0.6-0.6,1-0.9,1.4c-0.2,0.3-0.5,0.5-0.8,0.6s-0.5,0.1-0.6,0.1C152.1,101.1,152,101.1,151.9,101.1
				z M150.5,97.8L150.5,97.8c0.3,0.1,0.6,0.2,0.9,0.3c0.1,0,0.2,0,0.2,0.1c0.1-0.2,0.3-0.5,0.5-0.8c0.3-0.5,0.6-1,0.9-1.6
				c0.3-0.5,0.5-1,0.7-1.3s0.5-0.8,0.8-1.4l0,0c0.3-0.5,0.7-1.1,1.3-2c0.2-0.4,0.5-0.8,0.7-1.1c-0.4,0.4-0.9,1-1.5,1.8
				s-1.2,1.6-1.7,2.3C152.2,95.4,151.3,96.7,150.5,97.8z"/>
		</g>
		<g>
			<path class="st2" d="M166.6,88.4c0.7-0.5,1.8-1.1,3.2-1.8c1.5-0.7,2.6-1.2,3.3-1.5c0.3,0,0.4,0.1,0.6,0.2
				c0.1,0.1,0.2,0.2,0.3,0.3c0.1,0.1,0.2,0.3,0.3,0.4s0.2,0.1,0.4,0.3c0.2,0.1,0.3,0.2,0.4,0.3c0.1,0.1,0.1,0.1,0.1,0.2
				s0,0.2-0.1,0.2c-2.1,0.8-3.8,1.5-4.9,2c-1.1,0.5-2.1,1-3,1.5s-1.6,1-2.2,1.6c-0.8,1-2.2,3.2-4.1,6.6c-0.5,0-0.9,0-1.2-0.2
				c-0.3-0.1-0.5-0.3-0.6-0.4s-0.3-0.1-0.7-0.1c-0.3,0-0.5,0-0.6-0.1c-0.1,0-0.1-0.1-0.1-0.2c0.1-0.4,0.4-1.1,0.8-2
				c0.4-0.9,1-2,1.7-3.3c0.6-1,1.3-2.1,2.1-3.5c0.9-1.3,1.3-2,1.4-2c0.2-0.1,0.4-0.2,0.6-0.2c0.2,0,0.4,0,0.6-0.1
				c0.2,0,0.5,0,0.8-0.1c0.1,0,0.4-0.1,0.7-0.3c0.4-0.2,0.7-0.3,1-0.3c0.2,0,0.4,0,0.6,0C167.7,86.6,167.2,87.4,166.6,88.4z"/>
			<path class="st2" d="M160.7,100.1c-0.6,0-1.1-0.1-1.6-0.3c-0.3-0.1-0.5-0.2-0.7-0.4c0,0-0.1,0-0.2,0c-0.5,0-0.7-0.1-0.9-0.1
				c-0.7-0.2-1.2-0.7-1.2-1.5c0-0.2,0-0.4,0.1-0.6c0.2-0.4,0.4-1.1,0.9-2.1c0.4-1,1-2.1,1.8-3.4c0.6-1,1.3-2.2,2.2-3.5
				c1.4-2.2,1.6-2.5,2.1-2.6c0.3-0.1,0.6-0.2,0.9-0.2c0.2,0,0.4,0,0.6-0.1l0.6-0.1c0.1,0,0.2-0.1,0.4-0.2c0.5-0.3,1-0.4,1.5-0.5
				c0.4,0,0.8,0,1.1,0.1c0.4,0.1,0.7,0.3,0.9,0.7c1.5-0.7,2.6-1.2,3.4-1.5c0.2-0.1,0.4-0.1,0.6-0.1c0.5,0.1,0.9,0.2,1.2,0.4
				c0.3,0.2,0.5,0.5,0.7,0.8c0,0,0,0.1,0.1,0.1c0.3,0.2,0.5,0.3,0.6,0.4c0.4,0.3,0.7,0.8,0.7,1.3s-0.1,0.9-0.4,1.3
				c-0.2,0.2-0.3,0.3-0.5,0.4c-2.1,0.8-3.7,1.5-4.8,1.9c-1,0.4-2,0.9-2.9,1.4c-0.8,0.4-1.4,0.9-1.8,1.3c-0.5,0.7-1.7,2.3-3.9,6.3
				c-0.2,0.4-0.7,0.7-1.2,0.7C160.9,100.1,160.8,100.1,160.7,100.1z M159.6,96.7c0,0,0.1,0,0.1,0.1c0.1,0.1,0.2,0.1,0.3,0.2
				c0,0,0,0,0.1,0c1.7-3.1,3-5,3.8-6l0.1-0.1c0.5-0.4,1-0.9,1.7-1.3c-0.1,0-0.1-0.1-0.2-0.2c-0.4-0.3-0.5-0.8-0.4-1.3H165
				c-0.2,0-0.3,0-0.4,0c-0.2,0.3-0.5,0.7-1,1.6c-0.8,1.3-1.6,2.4-2.1,3.4c-0.7,1.2-1.2,2.3-1.6,3.1
				C159.8,96.5,159.7,96.6,159.6,96.7z"/>
		</g>
		<g>
			<path class="st2" d="M187,83.1c0,0,0.7-0.1,2.1-0.3c1.4-0.2,2.5-0.4,3.3-0.5c0,0.1,0,0.2,0,0.3c0,0.1-0.1,0.2-0.2,0.4
				c-0.1,0.2-0.3,0.3-0.5,0.4c-0.1,0.1-0.2,0.2-0.2,0.3c0,0.1,0,0.1,0,0.2c0,0,0,0.1,0,0.2s-0.1,0.2-0.2,0.3
				c-1.3,0.2-2.6,0.4-3.7,0.6c-1.1,0.2-1.9,0.4-2.3,0.5c-0.2,0.2-0.5,0.7-1,1.3c-0.5,0.6-1.1,1.5-1.8,2.6c-0.8,1.1-1.6,2.2-2.4,3.5
				c-0.9,1.3-1.9,2.7-3,4.4c-0.1,0-0.3,0.1-0.3,0.1c-0.3,0-0.5,0-0.7-0.1s-0.4-0.3-0.6-0.5s-0.3-0.3-0.4-0.3c-0.1-0.1-0.4-0.1-0.9,0
				s-0.8,0-0.9-0.1c0.5-0.9,1-1.7,1.5-2.4c0.5-0.7,1-1.4,1.7-2.2c0.6-0.8,1.3-1.6,1.9-2.5c0.7-0.8,1.5-1.9,2.4-3.2
				c-0.1,0-1.7,0.3-4.7,0.8c-0.4,0-0.5,0-0.5-0.1c0,0,0.1-0.2,0.3-0.4c0.2-0.2,0.3-0.4,0.3-0.5c0,0-0.1-0.1-0.3-0.3
				c-0.2-0.1-0.2-0.2-0.2-0.3c0-0.1,0.1-0.3,0.3-0.4c1.2-0.3,2.4-0.5,3.6-0.7c1.2-0.2,2.2-0.3,3.2-0.5c0.1-0.1,0.2-0.3,0.4-0.5
				c0.1-0.2,0.4-0.5,0.8-1c0.4-0.5,0.7-0.8,0.8-1c0.3-0.4,0.7-0.8,1.1-1.3c0.4-0.5,0.7-0.9,0.9-1.1c0.3-0.1,0.6-0.2,1-0.3
				c0.4-0.1,0.7-0.1,0.8-0.2c0.4,0,0.8,0,1.1,0c0.4,0,0.6,0.1,0.8,0.2c-0.2,0.3-0.6,0.8-1,1.3c-0.4,0.6-0.9,1.2-1.3,1.8
				C187.8,82.1,187.4,82.6,187,83.1z"/>
			<path class="st2" d="M176.8,98.8c-0.5,0-0.9-0.1-1.3-0.3c-0.3-0.2-0.6-0.4-0.9-0.7h-0.1c-1.1,0.1-1.9-0.2-2.3-0.9
				c-0.3-0.5-0.2-1,0-1.5c0.5-0.9,1.1-1.7,1.6-2.4c0.5-0.7,1.1-1.5,1.7-2.3c0.6-0.8,1.3-1.6,2-2.5c0.1-0.1,0.1-0.1,0.2-0.2
				c-0.3,0.1-0.7,0.1-1.1,0.2c-0.5,0.1-1.1,0.1-1.7-0.3c-0.3-0.3-0.5-0.6-0.5-1c0-0.3,0.1-0.6,0.2-0.8c-0.1-0.2-0.2-0.4-0.2-0.7
				c0-0.4,0.1-1,0.8-1.6c0.2-0.1,0.4-0.2,0.6-0.3c1.3-0.3,2.5-0.5,3.7-0.7c0.9-0.1,1.8-0.3,2.6-0.4l0,0c0.2-0.2,0.4-0.6,0.9-1.1
				c0.4-0.5,0.7-0.8,0.8-1c0.3-0.4,0.7-0.8,1.1-1.3c0.4-0.5,0.7-0.9,0.8-1.1c0.2-0.2,0.4-0.4,0.6-0.5c0.4-0.2,0.8-0.3,1.3-0.4
				c0.3-0.1,0.6-0.1,0.7-0.1c0.1,0,0.1,0,0.2,0c0.5-0.1,0.9-0.1,1.4,0c0.7,0.1,1.2,0.2,1.6,0.5c0.3,0.2,0.5,0.6,0.6,1s0,0.8-0.3,1.1
				c-0.2,0.3-0.6,0.7-1,1.3c-0.2,0.2-0.3,0.5-0.5,0.7l2-0.3c0.4-0.1,0.9,0.1,1.2,0.4s0.5,0.7,0.5,1.2c0,0.1,0,0.2,0,0.3
				c0,0.3-0.2,0.7-0.4,1.1c-0.1,0.1-0.2,0.2-0.3,0.3c0,0.4-0.2,0.9-0.7,1.3c-0.2,0.2-0.5,0.3-0.8,0.3c-1.3,0.2-2.5,0.4-3.6,0.6
				c-0.7,0.1-1.3,0.2-1.7,0.3l-2.5,3.4c-0.8,1.1-1.6,2.2-2.4,3.5c-0.9,1.2-1.8,2.7-3,4.4c-0.2,0.3-0.5,0.5-0.8,0.6s-0.5,0.1-0.6,0.1
				C177,98.8,176.9,98.8,176.8,98.8z M174.4,97.5L174.4,97.5L174.4,97.5z M174.4,97.5L174.4,97.5L174.4,97.5z M176.1,95.2
				c0.1,0.1,0.3,0.2,0.5,0.4c0.9-1.4,1.7-2.6,2.5-3.6c0.9-1.3,1.7-2.4,2.5-3.5l2.8-3.9c0.2-0.3,0.5-0.5,0.9-0.6
				c0.2,0,0.4-0.1,0.6-0.1c-0.1-0.2-0.2-0.4-0.2-0.6c-0.1-0.5,0.1-0.9,0.3-1.1c0.3-0.5,0.7-1,1.1-1.5l0,0c-0.4,0.5-0.8,1-1.1,1.3
				c-0.1,0.1-0.4,0.5-0.8,1c-0.4,0.5-0.7,0.8-0.8,1c-0.2,0.2-0.3,0.4-0.4,0.5c-0.2,0.3-0.5,0.4-0.8,0.5s-0.6,0.1-0.9,0.2
				c0,0,0,0.1,0.1,0.1c0.3,0.5,0.2,1.1-0.1,1.6c-1,1.3-1.8,2.3-2.5,3.2c-0.7,0.8-1.3,1.6-1.9,2.4c-0.6,0.8-1.1,1.5-1.6,2.2
				C176.2,94.8,176.1,95,176.1,95.2C176,95.1,176,95.1,176.1,95.2z M189.8,79.6L189.8,79.6L189.8,79.6z"/>
		</g>
		<g>
			<path class="st2" d="M188.4,87.5c-0.1-0.8,0.6-1.6,2-2.4s3.4-1.5,6.2-2.1c0.5-0.1,1.1-0.2,1.8-0.3c0.7-0.1,1.5-0.1,2.2-0.1
				s1.3,0.1,1.9,0.1c0.5,0.1,0.9,0.2,1,0.4c0.2,0.1,0.5,0.2,0.8,0.4c0.3,0.2,0.5,0.3,0.5,0.4s0,0.3,0,0.5c0,0.3-0.1,0.5-0.1,0.6
				c-0.6,0.5-1.2,0.8-1.7,1.1c-0.5,0.3-1,0.5-1.7,0.7c-0.6,0.2-1.3,0.4-2.1,0.5c-0.5-0.1-0.8-0.5-0.8-1c0-0.3,0-0.5,0.1-0.6
				c0.4-0.2,0.9-0.4,1.4-0.6s1-0.3,1.4-0.5c-1,0-2,0-2.9,0.1c-1.2,0.1-2.2,0.4-3.1,0.7c-0.9,0.3-1.6,0.7-2.1,1c0,0.4,0.3,0.7,0.9,1
				c0.6,0.2,1.5,0.5,2.8,0.8s2.3,0.6,3,0.9s1,0.7,1.1,1.3c-0.1,0.6-0.6,1.2-1.5,1.8c-0.9,0.6-1.9,1.2-3.2,1.7
				c-0.8,0.3-1.8,0.7-3,0.9c-1.2,0.3-2.3,0.5-3.4,0.6c-0.7,0.1-1.3,0.1-1.8,0.1c-1.2,0-2.1-0.2-2.9-0.5c-0.7-0.3-1.1-0.8-1.1-1.3
				c0-0.3,0-0.6,0.2-0.9c0.1-0.3,0.4-0.7,0.9-1c0.4-0.3,1-0.6,1.6-0.9s1.2-0.4,1.8-0.5c1.1-0.1,1.9,0.1,2.3,0.8
				c-0.8,0.3-1.3,0.5-1.7,0.6c-0.3,0.1-0.5,0.3-0.7,0.5c-0.1,0.2-0.2,0.5-0.2,0.9c0.1,0.2,0.5,0.2,1.3,0.1c1.2-0.1,2.5-0.5,4-1
				s2.5-1,2.8-1.5c0-0.4-0.3-0.7-0.9-0.9c-0.6-0.2-1.5-0.4-2.9-0.6c-1.3-0.2-2.3-0.5-3-0.8C188.9,88.4,188.5,88,188.4,87.5z"/>
			<path class="st2" d="M188,97c-1.4,0-2.5-0.2-3.4-0.6c-1.6-0.7-1.9-1.9-2-2.5c0-0.5,0-1,0.3-1.5c0.3-0.6,0.7-1.1,1.4-1.6
				c0.5-0.4,1.2-0.8,1.9-1.1c0.5-0.2,1.1-0.4,1.6-0.5c-0.4-0.5-0.6-1-0.7-1.4c0-0.1,0-0.1,0-0.2c-0.1-1.4,0.8-2.7,2.7-3.8
				c1.5-0.9,3.7-1.6,6.6-2.3c0.5-0.1,1.2-0.2,1.9-0.3c0.8-0.1,1.6-0.2,2.3-0.1c0.8,0,1.5,0.1,2.1,0.2c0.7,0.1,1.2,0.3,1.6,0.6
				c0.2,0.1,0.5,0.2,0.7,0.4c0.3,0.2,1.1,0.7,1.2,1.6c0,0.2,0,0.5-0.1,0.9c0,0.3-0.1,0.5-0.1,0.6c-0.1,0.4-0.3,0.7-0.6,0.9
				c-0.7,0.5-1.3,0.9-1.8,1.2c-0.6,0.3-1.2,0.6-1.9,0.9c-0.1,0-0.2,0.1-0.4,0.1c0.8,0.7,1,1.5,1.1,2c0,0.1,0,0.3,0,0.4
				c-0.2,1-0.9,1.9-2.1,2.7c-0.9,0.7-2.1,1.3-3.5,1.9c-0.9,0.4-2,0.7-3.3,1s-2.5,0.5-3.6,0.6C189.3,97,188.6,97,188,97
				C188.1,97,188.1,97,188,97z M185.5,93.6c0,0,0.1,0.1,0.3,0.1c0.2,0.1,0.6,0.2,1.2,0.3c-0.1-0.2-0.2-0.4-0.2-0.6
				c0-0.3,0-0.6,0.1-0.9c-0.3,0.2-0.6,0.4-0.9,0.5c-0.3,0.3-0.4,0.4-0.4,0.4C185.5,93.5,185.5,93.6,185.5,93.6z M197.5,89.9
				c0.3,0.4,0.3,0.8,0.4,1c0,0.3,0,0.5-0.1,0.8c0.4-0.2,0.7-0.4,1-0.6s0.5-0.4,0.7-0.6C198.9,90.3,198.3,90.1,197.5,89.9z
				 M195.2,91.6L195.2,91.6L195.2,91.6z M192.2,90.9c0,0.1,0.1,0.3,0,0.5c0.3-0.1,0.5-0.2,0.8-0.3l0,0C192.9,91,192.6,91,192.2,90.9
				C192.3,90.9,192.3,90.9,192.2,90.9z M189.9,87.2c0.1,0,0.1,0.1,0.3,0.1c0.5,0.2,1.3,0.4,2.2,0.6c-0.5-0.5-0.6-1.1-0.6-1.4
				c0-0.2,0-0.5,0.1-0.7c-0.3,0.1-0.5,0.3-0.8,0.4C190.4,86.7,190,87.1,189.9,87.2z M196.4,86.6c0.2,0,0.4,0.1,0.6,0.1
				c0-0.1,0-0.2,0-0.3l0,0C196.7,86.5,196.5,86.5,196.4,86.6z M202.7,84.2c0,0.1,0,0.1,0,0.2v0.1c0.1,0,0.1-0.1,0.2-0.1
				C202.9,84.4,202.8,84.4,202.7,84.2C202.8,84.3,202.7,84.2,202.7,84.2z"/>
		</g>
	</g>
	<g>
		<path class="st1" d="M113.1,86.8c0.2,0.2,0.4,0.4,0.4,0.7c0,0.3-0.1,0.5-0.2,0.8c-0.2,0.2-0.4,0.5-0.7,0.6
			c-0.4,0.2-0.6,0.4-0.6,0.6s0.2,0.3,0.5,0.5s0.8,0.3,1.5,0.6c0.7,0.2,1.1,0.4,1.4,0.5s0.4,0.3,0.5,0.4c-0.3,0.1-0.7,0.1-1,0.2
			c-0.8,0.1-1.7,0.1-2.6-0.1s-1.8-0.4-2.6-0.8c-0.8-0.3-1.4-0.8-1.9-1.2c-0.5-0.5-0.8-1-0.8-1.4s0.1-0.8,0.3-1.1
			c0.1-0.1,0.4-0.3,0.8-0.5s0.9-0.4,1.6-0.5C111,85.8,112.2,86.1,113.1,86.8z"/>
		<path class="st1" d="M118.4,95.2c-0.1-0.8,0.6-1.6,2-2.4s3.4-1.5,6.2-2.1c0.5-0.1,1.1-0.2,1.8-0.3c0.7-0.1,1.5-0.1,2.2-0.1
			s1.3,0.1,1.9,0.1c0.5,0.1,0.9,0.2,1,0.4c0.2,0.1,0.5,0.2,0.8,0.4c0.3,0.2,0.5,0.3,0.5,0.4s0,0.3,0,0.5c0,0.3-0.1,0.5-0.1,0.6
			c-0.6,0.5-1.2,0.8-1.7,1.1c-0.5,0.3-1,0.5-1.7,0.7c-0.6,0.2-1.3,0.4-2.1,0.5c-0.5-0.1-0.8-0.5-0.8-1c0-0.3,0-0.5,0.1-0.6
			c0.4-0.2,0.9-0.4,1.4-0.6s1-0.3,1.4-0.5c-1,0-2,0-2.9,0.1c-1.2,0.1-2.2,0.4-3.1,0.7c-0.9,0.3-1.6,0.7-2.1,1c0,0.4,0.3,0.7,0.9,1
			c0.6,0.2,1.5,0.5,2.8,0.8c1.3,0.3,2.3,0.6,3,0.9c0.7,0.3,1,0.7,1.1,1.3c-0.1,0.6-0.6,1.2-1.5,1.8c-0.9,0.6-1.9,1.2-3.2,1.7
			c-0.8,0.3-1.8,0.7-3,0.9c-1.2,0.3-2.3,0.5-3.4,0.6c-0.7,0.1-1.3,0.1-1.8,0.1c-1.2,0-2.1-0.2-2.9-0.5c-0.7-0.3-1.1-0.8-1.1-1.3
			c0-0.3,0-0.6,0.2-0.9c0.1-0.3,0.4-0.7,0.9-1s1-0.6,1.6-0.9s1.2-0.4,1.8-0.5c1.1-0.1,1.9,0.1,2.3,0.8c-0.8,0.3-1.3,0.5-1.7,0.6
			c-0.3,0.1-0.5,0.3-0.7,0.5c-0.1,0.2-0.2,0.5-0.2,0.9c0.1,0.2,0.5,0.2,1.3,0.1c1.2-0.1,2.5-0.5,4-1s2.5-1,2.8-1.5
			c0-0.4-0.3-0.7-0.9-0.9c-0.6-0.2-1.5-0.4-2.9-0.6c-1.3-0.2-2.3-0.5-3-0.8C118.9,96.2,118.5,95.7,118.4,95.2z"/>
		<path class="st1" d="M146.3,81.8c0.5,0,0.7,0,0.7,0c0.1,0,0.1,0.1,0.1,0.2c0,0.3-0.3,1-1,2s-1.6,2.4-2.8,4
			c-1.2,1.7-1.8,2.6-1.8,2.7c0.3-0.1,0.8-0.4,1.6-0.8s1.5-0.8,2.1-1s1.1-0.4,1.7-0.4c0.9-0.1,1.8,0,2.7,0.4c0.5,0.2,0.8,0.5,0.8,0.9
			c0,0.3,0,0.6-0.2,1c-0.2,0.3-0.4,0.7-0.6,1.1c-0.3,0.4-0.5,0.9-0.9,1.4c-1.6,2.9-3,5.3-4.3,7.2c-0.2,0-0.4,0-0.6,0
			c-0.2,0-0.3,0-0.5-0.1c-0.2,0-0.3-0.1-0.4-0.1c-0.1,0-0.2-0.1-0.4-0.1c-0.6-0.1-1-0.2-1.2-0.3c-0.3-0.1-0.4-0.2-0.5-0.4
			c0.1-0.2,0.4-0.7,0.7-1.3c0.4-0.6,0.7-1.3,1.2-1.9c0.4-0.6,0.7-1.2,1-1.6c0.3-0.5,0.6-0.9,0.9-1.3c0.3-0.4,0.5-0.8,0.8-1.2
			c0.3-0.4,0.6-0.9,0.8-1.3c-1.5,0.4-2.7,0.8-3.7,1.5c-1,0.6-1.8,1.3-2.5,2.1c-0.7,0.8-1.5,2-2.5,3.6s-1.8,2.8-2.5,3.7
			c-0.4,0-0.7,0-1,0c-0.3-0.1-0.5-0.1-0.7-0.2s-0.4-0.2-0.5-0.3c-0.3-0.1-0.6-0.2-0.9-0.2c-0.3-0.1-0.5-0.2-0.6-0.4
			c0.4-0.5,0.8-1.3,1.4-2.2c0.6-0.9,1.1-1.8,1.6-2.6c0.5-0.8,0.9-1.5,1.3-2c0.4-0.6,0.7-1.1,1.1-1.6c0.4-0.6,1.1-1.6,2.1-3.2
			c1-1.5,1.7-2.6,2.2-3.3c0.5-0.7,1-1.4,1.5-2.1s0.9-1.1,1-1.2c0,0,0-0.1,0.1-0.1c0.1-0.1,0.1-0.1,0.2-0.2c0.1-0.1,0.2-0.1,0.2-0.1
			c0.2,0,0.4,0,0.5,0.2c0.2,0.1,0.4,0.2,0.6,0.2c0.1,0,0.3-0.1,0.5-0.1C146,81.9,146.2,81.9,146.3,81.8z"/>
		<path class="st1" d="M155.7,93.8c-0.3,0.6-0.6,1.1-0.8,1.4s-0.4,0.8-0.7,1.3s-0.6,1.1-0.9,1.6c-0.3,0.5-0.6,1-0.9,1.4
			c-0.2,0-0.3,0.1-0.4,0.1c-0.3,0-0.7,0-1.1-0.1c-0.4-0.1-0.8-0.3-1.1-0.4c-1-0.2-1.5-0.5-1.5-0.8c0.9-1.4,2.2-3.1,3.7-5.2
			c0.5-0.7,1.1-1.5,1.7-2.3c0.6-0.8,1.2-1.5,1.6-1.9c0.4-0.4,0.7-0.7,0.8-0.8c0.1-0.1,0.2-0.1,0.4-0.1c0.1,0,0.3,0,0.6,0
			c0.2,0,0.4,0,0.6,0c0.2,0,0.4-0.1,0.6-0.2c0.3-0.1,0.5-0.2,0.7-0.2s0.4,0,0.5,0.1c-0.2,0.3-0.5,0.8-1,1.5s-1,1.5-1.5,2.4
			C156.4,92.7,156,93.4,155.7,93.8z M158.1,86.4c-0.4-0.2-0.6-0.6-0.6-1c0-0.5,0.1-0.9,0.5-1.3s0.9-0.8,1.5-1l0.6-0.1
			c1.1,0,1.6,0.3,1.7,0.9c0,0.3-0.1,0.7-0.4,1.1c-0.3,0.4-0.7,0.7-1.2,1s-1,0.5-1.4,0.5C158.6,86.5,158.4,86.5,158.1,86.4z"/>
		<path class="st1" d="M166.6,88.4c0.7-0.5,1.8-1.1,3.2-1.8c1.5-0.7,2.6-1.2,3.3-1.5c0.3,0,0.4,0.1,0.6,0.2c0.1,0.1,0.2,0.2,0.3,0.3
			c0.1,0.1,0.2,0.3,0.3,0.4s0.2,0.1,0.4,0.3c0.2,0.1,0.3,0.2,0.4,0.3c0.1,0.1,0.1,0.1,0.1,0.2s0,0.2-0.1,0.2c-2.1,0.8-3.8,1.5-4.9,2
			c-1.1,0.5-2.1,1-3,1.5s-1.6,1-2.2,1.6c-0.8,1-2.2,3.2-4.1,6.6c-0.5,0-0.9,0-1.2-0.2c-0.3-0.1-0.5-0.3-0.6-0.4s-0.3-0.1-0.7-0.1
			c-0.3,0-0.5,0-0.6-0.1c-0.1,0-0.1-0.1-0.1-0.2c0.1-0.4,0.4-1.1,0.8-2c0.4-0.9,1-2,1.7-3.3c0.6-1,1.3-2.1,2.1-3.5
			c0.9-1.3,1.3-2,1.4-2c0.2-0.1,0.4-0.2,0.6-0.2c0.2,0,0.4,0,0.6-0.1c0.2,0,0.5,0,0.8-0.1c0.1,0,0.4-0.1,0.7-0.3
			c0.4-0.2,0.7-0.3,1-0.3c0.2,0,0.4,0,0.6,0C167.7,86.6,167.2,87.4,166.6,88.4z"/>
		<path class="st1" d="M187,83.1c0,0,0.7-0.1,2.1-0.3c1.4-0.2,2.5-0.4,3.3-0.5c0,0.1,0,0.2,0,0.3c0,0.1-0.1,0.2-0.2,0.4
			c-0.1,0.2-0.3,0.3-0.5,0.4c-0.1,0.1-0.2,0.2-0.2,0.3c0,0.1,0,0.1,0,0.2c0,0,0,0.1,0,0.2s-0.1,0.2-0.2,0.3
			c-1.3,0.2-2.6,0.4-3.7,0.6c-1.1,0.2-1.9,0.4-2.3,0.5c-0.2,0.2-0.5,0.7-1,1.3c-0.5,0.6-1.1,1.5-1.8,2.6c-0.8,1.1-1.6,2.2-2.4,3.5
			c-0.9,1.3-1.9,2.7-3,4.4c-0.1,0-0.3,0.1-0.3,0.1c-0.3,0-0.5,0-0.7-0.1s-0.4-0.3-0.6-0.5s-0.3-0.3-0.4-0.3c-0.1-0.1-0.4-0.1-0.9,0
			s-0.8,0-0.9-0.1c0.5-0.9,1-1.7,1.5-2.4c0.5-0.7,1-1.4,1.7-2.2c0.6-0.8,1.3-1.6,1.9-2.5c0.7-0.8,1.5-1.9,2.4-3.2
			c-0.1,0-1.7,0.3-4.7,0.8c-0.4,0-0.5,0-0.5-0.1c0,0,0.1-0.2,0.3-0.4c0.2-0.2,0.3-0.4,0.3-0.5c0,0-0.1-0.1-0.3-0.3
			c-0.2-0.1-0.2-0.2-0.2-0.3c0-0.1,0.1-0.3,0.3-0.4c1.2-0.3,2.4-0.5,3.6-0.7c1.2-0.2,2.2-0.3,3.2-0.5c0.1-0.1,0.2-0.3,0.4-0.5
			c0.1-0.2,0.4-0.5,0.8-1c0.4-0.5,0.7-0.8,0.8-1c0.3-0.4,0.7-0.8,1.1-1.3c0.4-0.5,0.7-0.9,0.9-1.1c0.3-0.1,0.6-0.2,1-0.3
			c0.4-0.1,0.7-0.1,0.8-0.2c0.4,0,0.8,0,1.1,0c0.4,0,0.6,0.1,0.8,0.2c-0.2,0.3-0.6,0.8-1,1.3c-0.4,0.6-0.9,1.2-1.3,1.8
			C187.8,82.1,187.4,82.6,187,83.1z"/>
		<path class="st1" d="M188.4,87.5c-0.1-0.8,0.6-1.6,2-2.4s3.4-1.5,6.2-2.1c0.5-0.1,1.1-0.2,1.8-0.3c0.7-0.1,1.5-0.1,2.2-0.1
			s1.3,0.1,1.9,0.1c0.5,0.1,0.9,0.2,1,0.4c0.2,0.1,0.5,0.2,0.8,0.4c0.3,0.2,0.5,0.3,0.5,0.4s0,0.3,0,0.5c0,0.3-0.1,0.5-0.1,0.6
			c-0.6,0.5-1.2,0.8-1.7,1.1c-0.5,0.3-1,0.5-1.7,0.7c-0.6,0.2-1.3,0.4-2.1,0.5c-0.5-0.1-0.8-0.5-0.8-1c0-0.3,0-0.5,0.1-0.6
			c0.4-0.2,0.9-0.4,1.4-0.6s1-0.3,1.4-0.5c-1,0-2,0-2.9,0.1c-1.2,0.1-2.2,0.4-3.1,0.7c-0.9,0.3-1.6,0.7-2.1,1c0,0.4,0.3,0.7,0.9,1
			c0.6,0.2,1.5,0.5,2.8,0.8s2.3,0.6,3,0.9s1,0.7,1.1,1.3c-0.1,0.6-0.6,1.2-1.5,1.8c-0.9,0.6-1.9,1.2-3.2,1.7c-0.8,0.3-1.8,0.7-3,0.9
			c-1.2,0.3-2.3,0.5-3.4,0.6c-0.7,0.1-1.3,0.1-1.8,0.1c-1.2,0-2.1-0.2-2.9-0.5c-0.7-0.3-1.1-0.8-1.1-1.3c0-0.3,0-0.6,0.2-0.9
			c0.1-0.3,0.4-0.7,0.9-1c0.4-0.3,1-0.6,1.6-0.9s1.2-0.4,1.8-0.5c1.1-0.1,1.9,0.1,2.3,0.8c-0.8,0.3-1.3,0.5-1.7,0.6
			c-0.3,0.1-0.5,0.3-0.7,0.5c-0.1,0.2-0.2,0.5-0.2,0.9c0.1,0.2,0.5,0.2,1.3,0.1c1.2-0.1,2.5-0.5,4-1s2.5-1,2.8-1.5
			c0-0.4-0.3-0.7-0.9-0.9c-0.6-0.2-1.5-0.4-2.9-0.6c-1.3-0.2-2.3-0.5-3-0.8C188.9,88.4,188.5,88,188.4,87.5z"/>
	</g>
	<g>
		<g>
			<path class="st2" d="M38.8,42.8c1-1.5,2.5-2.7,3.5-3c0.7-0.2,0.9,1.9,0.2,2.3c-3.2,1.9-3.6,5.6-1.7,5.5c2.2-0.2,6.1-4.6,7.8-8.8
				c1.6-4.2,0.7-8.2-3.7-7.8C34.4,32,22,50.6,22.4,60.5c0.1,3.7,1.3,9.2,6.4,9.9c4.4,0.6,9.5-3.5,12-7c0.8-1.2,2.4-0.9,1.6,0.4
				c-8.2,12.7-21.2,11.3-22.1-2.5c-0.5-8.2,4-17.3,10.1-23.7c9.1-9.6,20.5-11.9,21.1-3.2c0.2,3.3-2,7.6-4.8,10.9
				C38.8,54.9,35.5,47.7,38.8,42.8z"/>
			<path class="st2" d="M29.7,75.5c-1,0-2-0.1-3-0.4c-5.4-1.4-8.8-6.5-9.3-13.6c-0.6-9.9,5.2-19.8,10.9-25.9c7-7.4,15.4-11,20.9-9
				c1.8,0.7,4.9,2.5,5.2,7.6c0.4,5.4-4.1,11.3-5.4,12.9c-6.3,7.7-10.5,5.9-12,4.8c-2.9-2.1-3.1-6.9-0.5-10.7l0,0
				c1.3-1.9,3.3-3.6,5-4.1c1.4-0.4,3.1,0.1,4,1.8c0.2-0.4,0.4-0.8,0.5-1.2c0.8-2.1,0.6-3.4,0.3-3.7c-0.1-0.1-0.4-0.2-1.1-0.1
				C36.6,34.7,25,51.7,25.3,60.4c0.1,3,0.9,6.7,3.9,7.2c2.8,0.4,7-2.7,9.2-5.8c1.4-1.9,3.9-2.5,5.6-1.4c1.4,0.9,2.1,2.9,0.8,4.9
				C40.7,71.8,35.1,75.5,29.7,75.5z"/>
		</g>
		<g>
			<path class="st2" d="M46.6,64.7c0.1,2.2,0.8,2.8,1.9,2.8c1.3-0.1,3.3-1.4,7.4-6.6c0.7-0.8,0.7,1.4,0.5,1.7
				c-0.3,0.4-4.9,6.8-7.7,6.9c-4.7,0.2-4-7.3-3.3-10.8c2.3-11.6,9.8-21.5,12.9-24.3c2.6-2.3,4.4-2.4,5-1.6
				c3,4.2-11.7,23.4-16.5,29.3C46.6,63,46.6,63.9,46.6,64.7z M61.4,35c-0.4-0.4-1.4,0.1-3.2,2c-3.8,4-9.5,14.4-11.2,22.7
				C52.1,53.4,63.4,36.9,61.4,35z"/>
			<path class="st2" d="M48.4,72.4c-1.8,0-3.4-0.7-4.5-2c-2.6-3-2.2-8.3-1.4-12.2c2.4-12.3,10.4-22.8,13.9-25.9c2.2-2,4.4-3,6.3-2.8
				c1.2,0.1,2.2,0.7,2.9,1.6c1.3,1.8,4.6,6.4-16,32.2c0,0.1,0,0.2,0,0.3c0.8-0.8,2.1-2.1,4.1-4.6c1.3-1.5,3.2-1.5,4.3-0.7
				c2,1.4,1.6,4.6,1,5.7c-0.1,0.1-0.1,0.2-0.2,0.3c-2.6,3.6-6.4,7.9-10,8.1C48.6,72.4,48.5,72.4,48.4,72.4z"/>
		</g>
		<g>
			<path class="st2" d="M69.5,59.6c0.7-0.8,0.7,1.4,0.4,1.8c-0.2,0.4-4.5,6.3-8.3,7.3c-3,0.8-5.1-0.3-6-2.9
				c-1.1-2.8-0.1-6.9,2.5-10.2c6.2-7.8,10.9-5.2,6.5,2c-1,1.5-5.6,6.5-7.3,7.6c0.6,2.2,2.7,2.8,7.3-0.4
				C66.1,63.7,67.8,61.8,69.5,59.6z M62.3,57.6c3.9-5.2,1.8-6.3-2.1-1.4c-1.4,1.9-2.5,4.4-2.9,6.5C58.4,61.8,60.8,59.6,62.3,57.6z"
				/>
			<path class="st2" d="M59.9,71.8c-3.2,0-5.8-1.8-7-5c-1.5-3.7-0.4-8.8,2.9-13c6.2-7.8,10.3-5.8,11.4-5c1.8,1.3,2.8,4,0.9,8.2
				c1.1-0.6,2.4-0.6,3.4,0.2c1.7,1.3,1.6,4.2,0.8,5.6l0,0l0,0c0,0.1-0.1,0.2-0.1,0.2l0,0c-0.9,1.3-5.2,7.2-9.9,8.4
				C61.5,71.7,60.7,71.8,59.9,71.8z M67.6,59.7L67.6,59.7L67.6,59.7z"/>
		</g>
		<g>
			<path class="st2" d="M83.5,66.6c-3,0.9-5-1.5-4.4-5.1c-4.1,6-5.7,6.6-7.7,6.4c-2.2-0.2-4-4.2-1.1-10c2.9-5.7,7.1-7.8,8.8-7.9
				c1.4-0.1,2.8,0.9,3.2,2.6c0.5-0.8,0.9-1.4,1-1.5c0.5-0.3,1.8,0.8,1.8,1.2c0,0.2-1.4,2.2-2.7,4.1c-3.4,7.3-1.4,9.7,3.9,5.9
				c1.6-1.1,3.2-2.7,5-4.8c0.7-0.8,0.7,1.4,0.4,1.8C91.4,59.7,87.2,65.6,83.5,66.6z M80.6,55.8L80.6,55.8c-0.1,0,0.8-3.7-1.7-3.4
				c-5.4,0.5-10.3,12.3-7.2,13c3,0.7,7.9-8,8.3-8.5L80.6,55.8z"/>
			<path class="st2" d="M72,70.9c-0.3,0-0.5,0-0.8,0c-1.8-0.2-3.3-1.3-4.2-3c-1.6-2.9-1.3-7,0.8-11.2c3.3-6.5,8.4-9.3,11.1-9.5
				c1.5-0.1,2.8,0.3,3.9,1.1c0.6-0.2,1.5-0.2,2.4,0.3c0.1,0.1,2.7,1.3,2.9,3.6c0.1,1.1-0.3,1.7-1.9,4.1c-0.3,0.5-0.7,1.1-1.1,1.6
				c-0.5,1.1-0.8,2-1,2.6c0.2-0.1,0.4-0.3,0.7-0.4c1.4-0.9,2.8-2.4,4.4-4.3c1.2-1.4,3.1-1.6,4.4-0.6c1.8,1.4,1.6,4.5,0.6,5.9
				c-0.8,1.2-5.3,7.1-9.8,8.4l0,0c-2.3,0.6-4.5,0.2-6.1-1.2c-0.1-0.1-0.2-0.2-0.3-0.3C75.8,70,74,70.9,72,70.9z M83.7,62.3
				L83.7,62.3L83.7,62.3z"/>
		</g>
		<g>
			<path class="st2" d="M98.6,54.1c1.1-1.8,1.6-3,1.3-3.3c-0.4-0.3-1.8,0.7-3.2,0.9c-1.4,2.6-3.3,5.5-5.3,8.2
				c-0.4,0.5-0.9-1.4-0.6-1.6c1.7-2,3.4-4.7,4.5-6.7c-0.8-0.4-1.4-1.3-1.2-3c0.6-4.6,5.2-4.6,4.4-1.2c-0.2,0.9-0.6,1.8-1,2.7
				c0.7-0.3,1.5-0.7,1.9-1c2.5-1.4,4.3-0.1,2,3.6c-1.2,2-5.2,9.8-1.9,9.9c1.3,0,3.2-1.4,7.4-6.6c0.6-0.8,0.6,1.4,0.4,1.8
				c-0.3,0.4-4.9,6.8-7.7,6.9C95.9,65,94.9,60.2,98.6,54.1z M96.8,48.3c0.5-1.7-1.3-1.1-1.5,0.7c-0.1,0.8,0.1,1.2,0.6,1.4
				C96.3,49.4,96.7,48.6,96.8,48.3z"/>
			<path class="st2" d="M99.2,67.7c-2.1,0-3.9-1-4.9-2.8c-0.5-0.9-0.8-1.8-0.9-2.9c-0.7,0.7-1.7,1-2.7,0.8c-0.7-0.1-2-0.7-2.6-2.6
				c-0.5-1.6-0.3-2.9,0.5-3.8c1-1.1,2.1-2.7,3.1-4.5c-0.5-0.9-0.7-2.1-0.5-3.6c0.4-2.9,1.9-5,4.2-5.9c1.7-0.6,3.5-0.3,4.7,0.8
				c0.7,0.7,1.2,1.5,1.4,2.5c1.2,0.1,2.2,0.6,2.8,1.2c0.9,1,2.1,3.2-0.4,7.3c-0.4,0.7-0.8,1.5-1.2,2.3c0.6-0.6,1.2-1.4,2-2.3
				c1.2-1.5,3-1.5,4.2-0.7c2,1.4,1.6,4.6,1,5.7c-0.1,0.1-0.1,0.2-0.2,0.3c-2.6,3.6-6.4,7.9-10,8.1C99.4,67.7,99.3,67.7,99.2,67.7z
				 M92.8,60.3L92.8,60.3L92.8,60.3z M92.9,60.3L92.9,60.3L92.9,60.3z M92.9,60.3L92.9,60.3L92.9,60.3z M92.9,60.3L92.9,60.3
				L92.9,60.3z M92.9,60.3L92.9,60.3L92.9,60.3z M109,58L109,58L109,58z"/>
		</g>
		<g>
			<path class="st2" d="M114,58.6c-1.4,2.1-4.1,5.4-5.6,5.7c-1.5,0.4-2.7-1.3-2.5-4.8c0.2-4.7,4.7-10.7,5.5-11.2
				c1.2-0.8,1.8,0.6,1.6,0.8c0,0-2.9,4.1-4.3,8c-0.7,1.8-1.4,4.4-0.5,4.8c1.3,0.8,5.9-5.4,7.7-9.5c0.6-1.3,1.7-3.7,2.6-4.5
				c1.1-0.9,1.8,1.2,1.5,1.5s-0.6,0.8-2.1,3.3c-1.5,2.6-3.7,10.4,0,8.5c2.4-1.3,8.5-12.4,9.5-16.3c0.1-0.4,1.4,0.6,1.2,1.5
				c-0.3,1.7-6.6,17.2-11.5,17.5c-2.6,0.2-3-3.7-2.9-5L114,58.6z"/>
			<path class="st2" d="M108.1,67.3c-1,0-2-0.3-2.8-1c-1.1-0.9-2.4-2.8-2.3-6.9c0.2-5.5,5.2-12.4,6.8-13.5c1.8-1.2,3.9-0.9,5.2,0.7
				c0.1,0.2,0.3,0.4,0.4,0.5c0.4-0.5,0.8-1,1.2-1.4c1.6-1.3,3.8-1.1,5.1,0.5c0.5,0.6,0.9,1.3,1.1,2.1c0.7-1.6,1.3-3,1.6-4
				c0.4-1.6,2-2.6,3.6-2.2c1.9,0.4,3.7,2.7,3.2,5c0,0.1-6.4,19.3-14.2,19.8c-1.5,0.1-2.9-0.4-3.9-1.5c-0.2-0.2-0.3-0.4-0.5-0.5
				c-1.1,1.1-2.4,2-3.5,2.3C108.8,67.3,108.4,67.3,108.1,67.3z M117.9,47.4C117.9,47.4,117.9,47.5,117.9,47.4
				C117.9,47.5,117.9,47.4,117.9,47.4z M110.8,47.1L110.8,47.1L110.8,47.1z"/>
		</g>
		<g>
			<path class="st2" d="M141.8,61.2c-3,0.9-5-1.5-4.4-5.1c-4.1,6-5.7,6.6-7.7,6.4c-2.2-0.2-4-4.2-1.1-10c2.9-5.7,7.1-7.8,8.8-7.9
				c1.4-0.1,2.8,0.9,3.2,2.6c0.5-0.8,0.9-1.4,1-1.5c0.5-0.3,1.8,0.8,1.8,1.2c0,0.2-1.4,2.2-2.7,4.1c-3.4,7.3-1.4,9.7,3.9,5.9
				c1.6-1.1,3.2-2.7,5-4.8c0.7-0.8,0.7,1.4,0.4,1.8C149.8,54.3,145.5,60.2,141.8,61.2z M139,50.4L139,50.4c-0.1,0,0.8-3.7-1.7-3.4
				c-5.4,0.5-10.3,12.3-7.2,13c3,0.7,7.9-8,8.3-8.5L139,50.4z"/>
			<path class="st2" d="M130.3,65.5c-0.3,0-0.5,0-0.8,0c-1.8-0.2-3.3-1.3-4.3-3c-1.6-2.9-1.3-7,0.8-11.2c3.3-6.5,8.4-9.3,11.1-9.5
				c1.5-0.1,2.8,0.3,3.9,1.1c0.6-0.2,1.5-0.2,2.4,0.3c0.1,0.1,2.7,1.3,2.9,3.6c0.1,1.1-0.3,1.7-2,4.1c-0.3,0.5-0.7,1.1-1.1,1.6
				c-0.5,1.1-0.8,2-1,2.6c0.2-0.1,0.4-0.3,0.7-0.4c1.4-0.9,2.9-2.4,4.4-4.3c1.2-1.4,3.1-1.6,4.4-0.6c1.8,1.4,1.6,4.5,0.6,5.9
				c-0.8,1.2-5.3,7.1-9.8,8.4l0,0c-2.3,0.6-4.5,0.2-6.1-1.2c-0.1-0.1-0.2-0.2-0.3-0.3C134.1,64.6,132.4,65.5,130.3,65.5z M142,56.9
				L142,56.9L142,56.9z"/>
		</g>
		<g>
			<path class="st2" d="M162.7,36.7c-3.8,5.8-8.7,12.3-11.2,15.4c-0.1,1-0.2,2-0.1,2.8c0.1,2.2,0.8,2.8,1.9,2.8
				c1.3-0.1,3.2-1.1,7.4-6.2c0.7-0.8,0.7,1,0.4,1.4c-0.2,0.4-4.8,6.7-7.7,6.9c-6.4,0.4-4-11.4-1.3-17.4c0.6-1.3,1.4-2.9,2.5-4.7
				c-3.3,0.6-5.5,0.9-5.5,0.9c-1.1,0.2-0.2-1.7,0.4-1.8c0.2-0.1,2.9-0.5,6.3-1.1c7.9-12.9,14.9-12.5,8.4-1.4
				c4.7-0.7,8.8-1.3,9.3-1.2c0.4,0.1,0.5,1.9,0.1,1.9c-2.3,0.1-6.4,0.7-10.6,1.3L162.7,36.7z M160.8,36.7c-1.3,0.2-2.6,0.4-3.8,0.6
				c-1.5,2.5-3.8,7.1-4.9,11.6C156.1,43.6,158.8,39.7,160.8,36.7z M162.1,34.7c2.9-4.7,2.9-5.9,2.3-5.9c-0.8,0-3.6,2.8-6.1,6.5
				L162.1,34.7z"/>
			<path class="st2" d="M153.2,62.7c-2.1,0-3.9-0.9-5.1-2.6c-3.4-4.9-0.3-14.7,1.3-18.5c-1.1,0.1-2.1-0.2-2.9-1
				c-0.8-0.9-1.1-2.2-0.6-3.5c0.4-1.1,1.3-2.6,2.8-3c0.4-0.1,0.9-0.2,2.6-0.5c0.8-0.1,1.7-0.3,2.8-0.5c5.1-8,10.1-11.5,13.6-9.4
				c1.5,0.9,2.8,2.9,1.5,6.9c4.1-0.6,4.5-0.5,5-0.4h0.1c2,0.5,2.7,2.6,2.6,4.4c-0.1,2.1-1.6,3.1-2.9,3.2c-2,0.1-5.5,0.6-9.2,1.1
				c-3.6,5.4-7.9,11.2-10.3,14.3c0,0.3,0,0.6,0,0.9c0.8-0.6,2.1-1.9,4.2-4.5c1.4-1.6,3.3-1.5,4.4-0.6c1.6,1.3,1.5,3.9,0.7,5.3l0,0
				l0,0c0,0.1-0.1,0.2-0.2,0.2l0,0c-0.9,1.4-5.6,7.9-9.9,8.1C153.5,62.7,153.3,62.7,153.2,62.7z M158.8,51.2L158.8,51.2L158.8,51.2z
				"/>
		</g>
		<g>
			<path class="st2" d="M174.3,49.9c0.7-0.8,0.7,1.4,0.4,1.8c-0.2,0.4-4.5,6.3-8.3,7.3c-3,0.8-5.1-0.3-6-2.9
				c-1.1-2.8-0.1-6.9,2.5-10.2c6.2-7.8,10.9-5.2,6.5,2c-1,1.5-5.6,6.5-7.3,7.6c0.6,2.2,2.7,2.8,7.3-0.4
				C170.9,54,172.6,52.1,174.3,49.9z M167.2,47.9c3.9-5.2,1.8-6.3-2.1-1.4c-1.4,1.9-2.5,4.4-2.9,6.5
				C163.3,52.1,165.7,49.9,167.2,47.9z"/>
			<path class="st2" d="M164.7,62.1c-3.2,0-5.8-1.8-7-5c-1.5-3.7-0.4-8.8,2.9-13c6.2-7.8,10.3-5.8,11.4-5c1.8,1.3,2.8,4,0.9,8.2
				c1.1-0.6,2.4-0.6,3.4,0.2c1.7,1.3,1.6,4.1,0.8,5.6l0,0l0,0c0,0.1-0.1,0.2-0.1,0.2l0,0c-0.9,1.3-5.2,7.2-9.9,8.4
				C166.4,62,165.5,62.1,164.7,62.1z M172.4,50L172.4,50L172.4,50z"/>
		</g>
		<g>
			<path class="st2" d="M181.6,46.4c1.1-1.8,1.6-3,1.3-3.3c-0.4-0.3-1.8,0.7-3.2,0.9c-1.4,2.6-3.3,5.5-5.3,8.2
				c-0.4,0.5-0.9-1.4-0.6-1.6c1.7-2,3.4-4.7,4.5-6.7c-0.8-0.4-1.4-1.3-1.2-3c0.6-4.6,5.2-4.6,4.4-1.2c-0.2,0.9-0.6,1.8-1,2.7
				c0.7-0.3,1.5-0.7,1.9-1c2.5-1.4,4.3-0.1,2,3.6c-1.2,2-5.2,9.8-1.9,9.9c1.3,0,3.2-1.4,7.4-6.6c0.6-0.8,0.6,1.4,0.4,1.8
				c-0.3,0.4-4.9,6.8-7.7,6.9C178.9,57.3,177.9,52.5,181.6,46.4z M179.8,40.6c0.5-1.7-1.3-1.1-1.5,0.7c-0.1,0.8,0.1,1.2,0.6,1.4
				C179.3,41.7,179.7,41,179.8,40.6z"/>
			<path class="st2" d="M182.3,60c-2.1,0-3.9-1-4.9-2.8c-0.5-0.9-0.8-1.8-0.9-2.9c-0.7,0.7-1.7,1-2.7,0.8c-0.7-0.1-2-0.7-2.6-2.6
				c-0.5-1.6-0.3-2.9,0.5-3.8c1-1.1,2.1-2.7,3.1-4.5c-0.5-0.9-0.7-2.1-0.5-3.6c0.4-2.9,1.9-5,4.2-5.9c1.7-0.6,3.5-0.3,4.7,0.8
				c0.7,0.7,1.2,1.5,1.4,2.5c1.2,0.1,2.2,0.6,2.8,1.2c0.9,1,2.1,3.2-0.4,7.3c-0.4,0.7-0.8,1.5-1.2,2.3c0.6-0.6,1.2-1.4,1.9-2.3
				c1.2-1.5,3-1.5,4.2-0.7c2,1.4,1.6,4.6,1,5.7c0,0.1-0.1,0.2-0.2,0.3c-2.6,3.6-6.4,7.9-10,8.1C182.5,60,182.4,60,182.3,60z
				 M175.9,52.6L175.9,52.6L175.9,52.6z M175.9,52.6L175.9,52.6L175.9,52.6z M175.9,52.6L175.9,52.6L175.9,52.6z M175.9,52.6
				L175.9,52.6L175.9,52.6z M175.9,52.6L175.9,52.6L175.9,52.6z M192.1,50.3C192.1,50.3,192,50.3,192.1,50.3
				C192,50.3,192.1,50.3,192.1,50.3z"/>
		</g>
	</g>
	<g>
		<path class="st1" d="M38.8,41.9c1-1.5,2.5-2.7,3.5-3c0.6-0.2,0.9,1.9,0.2,2.3c-3.2,1.9-3.6,5.6-1.7,5.5c2.2-0.2,6.1-4.6,7.8-8.8
			c1.6-4.2,0.7-8.2-3.7-7.7c-10.5,1-22.9,19.5-22.5,29.5c0.1,3.7,1.3,9.2,6.4,9.9c4.4,0.6,9.5-3.5,12-7c0.8-1.2,2.4-0.9,1.6,0.4
			c-8.2,12.7-21.2,11.3-22.1-2.5c-0.5-8.2,4-17.3,10.1-23.7c9.1-9.6,20.5-11.9,21.1-3.2c0.2,3.3-2,7.6-4.8,10.9
			C38.8,54,35.5,46.8,38.8,41.9z"/>
		<path class="st1" d="M46.6,63.7c0.1,2.2,0.8,2.8,1.9,2.8c1.3-0.1,3.3-1.4,7.4-6.6c0.7-0.8,0.7,1.4,0.5,1.7
			c-0.3,0.4-4.9,6.8-7.7,6.9c-4.7,0.2-4-7.3-3.3-10.8c2.3-11.6,9.8-21.5,12.9-24.3c2.6-2.3,4.4-2.4,5-1.6
			c3.1,4.2-11.7,23.4-16.5,29.3C46.6,62.1,46.6,63,46.6,63.7z M61.4,34.1c-0.4-0.4-1.4,0.1-3.2,2c-3.8,4-9.5,14.4-11.2,22.7
			C52.1,52.5,63.4,36,61.4,34.1z"/>
		<path class="st1" d="M69.5,58.7c0.7-0.8,0.7,1.4,0.4,1.8c-0.2,0.4-4.5,6.3-8.3,7.3c-3,0.8-5.1-0.3-6-2.9
			c-1.1-2.8-0.1-6.9,2.5-10.2c6.2-7.8,10.9-5.2,6.5,2c-1,1.5-5.6,6.5-7.3,7.6c0.6,2.2,2.7,2.8,7.3-0.4
			C66.1,62.8,67.8,60.9,69.5,58.7z M62.3,56.7c3.9-5.2,1.8-6.3-2.1-1.4c-1.4,1.9-2.5,4.4-2.9,6.5C58.4,60.9,60.8,58.7,62.3,56.7z"/>
		<path class="st1" d="M83.5,65.7c-3,0.9-5-1.5-4.4-5.1c-4.1,6-5.7,6.6-7.7,6.4c-2.2-0.2-4-4.2-1.1-10c2.9-5.7,7.1-7.8,8.8-7.9
			c1.4-0.1,2.8,0.9,3.2,2.6c0.5-0.8,0.9-1.4,1-1.5c0.5-0.3,1.8,0.8,1.8,1.2c0,0.2-1.4,2.2-2.7,4.1c-3.4,7.3-1.4,9.7,3.9,5.9
			c1.6-1.1,3.2-2.7,5-4.8c0.7-0.8,0.7,1.4,0.4,1.8C91.4,58.8,87.2,64.6,83.5,65.7z M80.6,54.9L80.6,54.9c-0.1,0,0.8-3.7-1.7-3.4
			c-5.4,0.5-10.3,12.3-7.2,13c3,0.7,7.9-8,8.3-8.5L80.6,54.9z"/>
		<path class="st1" d="M98.6,53.2c1.1-1.8,1.6-3,1.3-3.3c-0.4-0.3-1.8,0.7-3.2,0.9c-1.4,2.6-3.3,5.5-5.3,8.2
			c-0.4,0.5-0.9-1.4-0.6-1.6c1.7-2,3.4-4.7,4.5-6.7c-0.8-0.4-1.4-1.3-1.2-3c0.6-4.6,5.2-4.6,4.4-1.2c-0.2,0.9-0.6,1.8-1,2.7
			c0.7-0.3,1.5-0.7,1.9-1c2.5-1.4,4.3-0.1,2,3.6c-1.2,2-5.2,9.8-1.9,9.9c1.3,0,3.2-1.4,7.4-6.6c0.6-0.8,0.6,1.4,0.4,1.8
			c-0.3,0.4-4.9,6.8-7.7,6.9C95.9,64,94.9,59.3,98.6,53.2z M96.8,47.4c0.5-1.7-1.3-1.1-1.5,0.7c-0.1,0.8,0.1,1.2,0.6,1.4
			C96.3,48.5,96.7,47.7,96.8,47.4z"/>
		<path class="st1" d="M114,57.7c-1.4,2.1-4.1,5.4-5.6,5.7c-1.5,0.4-2.7-1.3-2.5-4.8c0.2-4.7,4.7-10.7,5.5-11.2
			c1.2-0.8,1.8,0.6,1.6,0.8c0,0-2.9,4.1-4.3,8c-0.7,1.8-1.4,4.4-0.5,4.8c1.3,0.8,5.9-5.4,7.7-9.5c0.6-1.3,1.7-3.7,2.6-4.5
			c1.1-0.9,1.8,1.2,1.5,1.5s-0.6,0.8-2.1,3.3c-1.5,2.6-3.7,10.4,0,8.5c2.4-1.3,8.5-12.4,9.5-16.3c0.1-0.4,1.4,0.6,1.2,1.5
			c-0.3,1.7-6.6,17.2-11.5,17.5c-2.6,0.2-3-3.7-2.9-5L114,57.7z"/>
		<path class="st1" d="M141.8,60.3c-3,0.9-5-1.5-4.4-5.1c-4.1,6-5.7,6.6-7.7,6.4c-2.2-0.2-4-4.2-1.1-10c2.9-5.7,7.1-7.8,8.8-7.9
			c1.4-0.1,2.8,0.9,3.2,2.6c0.5-0.8,0.9-1.4,1-1.5c0.5-0.3,1.8,0.8,1.8,1.2c0,0.2-1.4,2.2-2.7,4.1c-3.4,7.3-1.4,9.7,3.9,5.9
			c1.6-1.1,3.2-2.7,5-4.8c0.7-0.8,0.7,1.4,0.4,1.8C149.8,53.4,145.5,59.2,141.8,60.3z M139,49.5L139,49.5c-0.1,0,0.8-3.7-1.7-3.4
			c-5.4,0.5-10.3,12.3-7.2,13c3,0.7,7.9-8,8.3-8.5L139,49.5z"/>
		<path class="st1" d="M162.7,35.8c-3.8,5.8-8.7,12.3-11.2,15.4c-0.1,1-0.2,1.9-0.1,2.8c0.1,2.2,0.8,2.8,1.9,2.8
			c1.3-0.1,3.2-1.1,7.4-6.2c0.7-0.8,0.7,1,0.4,1.4c-0.2,0.4-4.8,6.7-7.7,6.9c-6.4,0.4-4-11.4-1.3-17.4c0.6-1.3,1.4-2.9,2.5-4.7
			c-3.3,0.6-5.5,0.9-5.5,0.9c-1.1,0.2-0.2-1.7,0.4-1.8c0.2-0.1,2.9-0.5,6.3-1.1c7.9-12.9,14.9-12.5,8.4-1.4c4.7-0.7,8.8-1.3,9.3-1.2
			c0.4,0.1,0.5,1.9,0.1,1.9c-2.3,0.1-6.4,0.7-10.6,1.3L162.7,35.8z M160.8,35.8c-1.3,0.2-2.6,0.4-3.8,0.6c-1.5,2.5-3.8,7.1-4.9,11.6
			C156.1,42.7,158.8,38.7,160.8,35.8z M162.1,33.8c2.9-4.7,2.9-5.9,2.3-5.9c-0.8,0-3.6,2.8-6.1,6.5L162.1,33.8z"/>
		<path class="st1" d="M174.3,49c0.7-0.8,0.7,1.4,0.4,1.8c-0.2,0.4-4.5,6.3-8.3,7.3c-3,0.8-5.1-0.3-6-2.9c-1.1-2.8-0.1-6.9,2.5-10.2
			c6.2-7.8,10.9-5.2,6.5,2c-1,1.5-5.6,6.5-7.3,7.6c0.6,2.2,2.7,2.8,7.3-0.4C170.9,53.1,172.6,51.1,174.3,49z M167.2,47
			c3.9-5.2,1.8-6.3-2.1-1.4c-1.4,1.9-2.5,4.4-2.9,6.5C163.3,51.1,165.7,49,167.2,47z"/>
		<path class="st1" d="M181.6,45.5c1.1-1.8,1.6-3,1.3-3.3c-0.4-0.3-1.8,0.7-3.2,0.9c-1.4,2.6-3.3,5.5-5.3,8.2
			c-0.4,0.5-0.9-1.4-0.6-1.6c1.7-2,3.4-4.7,4.5-6.7c-0.8-0.4-1.4-1.3-1.2-3c0.6-4.6,5.2-4.6,4.4-1.2c-0.2,0.9-0.6,1.8-1,2.7
			c0.7-0.3,1.5-0.7,1.9-1c2.5-1.4,4.3-0.1,2,3.6c-1.2,2-5.2,9.8-1.9,9.9c1.3,0,3.2-1.4,7.4-6.6c0.6-0.8,0.6,1.4,0.4,1.8
			c-0.3,0.4-4.9,6.8-7.7,6.9C178.9,56.4,177.9,51.6,181.6,45.5z M179.8,39.7c0.5-1.7-1.3-1.1-1.5,0.7c-0.1,0.8,0.1,1.2,0.6,1.4
			C179.3,40.8,179.7,40,179.8,39.7z"/>
	</g>
</g>
</svg>
